SplineFontDB: 3.2
FontName: TDAText
FullName: TDAText
FamilyName: TDAText
Weight: Regular
Copyright: Copyright (c) 2024 Dmitry Tretyakov\n\nBased on Philips SAA52XX/SAA55XX/TDA93XX IC character set:\nCopyright (c) 1993-2001 NXP Semiconductors N.V.

StartChar: exclam
Encoding: 33 33 4
Width: 600
Flags: HW
LayerCount: 2
Back
Fore
SplineSet
250 700 m 29
 350 700 l 25
 350 200 l 25
 250 200 l 25
 250 700 l 29
350 0 m 25
 250 0 l 1
 250 100 l 25
 350 100 l 1
 350 0 l 25
EndSplineSet
Validated: 1
EndChar

StartChar: asterisk
Encoding: 42 42 5
Width: 600
Flags: HW
LayerCount: 2
Back
Fore
SplineSet
50 600 m 29
 150 600 l 25
 150 500 l 25
 199 500 l 25
 200 400 l 25
 250 400 l 25
 250 700 l 25
 350 700 l 25
 350 400 l 25
 400 400 l 25
 400 500 l 25
 450 500 l 25
 450 600 l 25
 550 600 l 25
 550 500 l 25
 500 500 l 25
 500 400 l 25
 450 400 l 25
 450 300 l 25
 500 300 l 25
 500 200 l 25
 550 200 l 25
 550 100 l 25
 450 100 l 25
 450 200 l 25
 400 200 l 25
 400 300 l 25
 350 300 l 25
 350 0 l 25
 250 0 l 25
 250 300 l 25
 200 300 l 25
 200 200 l 25
 150 200 l 25
 150 100 l 25
 50 100 l 25
 50 200 l 25
 100 200 l 25
 100 300 l 25
 150 300 l 25
 150 400 l 25
 100 400 l 25
 100 500 l 25
 50 500 l 25
 50 600 l 29
EndSplineSet
Validated: 1
EndChar

StartChar: plus
Encoding: 43 43 6
Width: 600
Flags: HW
LayerCount: 2
Back
Fore
SplineSet
250 550 m 29
 350 550 l 25
 350 350 l 25
 500 350 l 25
 500 250 l 25
 350 250 l 25
 350 50 l 25
 250 50 l 25
 250 250 l 25
 100 250 l 25
 100 350 l 25
 250 350 l 25
 250 550 l 29
EndSplineSet
Validated: 1
EndChar

StartChar: comma
Encoding: 44 44 7
Width: 600
Flags: HW
LayerCount: 2
Back
Fore
SplineSet
199 -100 m 5
 249 -100 l 29
 249 0 l 5
 199 0 l 29
 199 100 l 29
 349 100 l 29
 349 -100 l 29
 299 -100 l 29
 299 -200 l 29
 199 -200 l 29
 199 -100 l 5
EndSplineSet
Validated: 1
EndChar

StartChar: hyphen
Encoding: 45 45 8
Width: 600
Flags: HW
LayerCount: 2
Back
Fore
SplineSet
100 250 m 29
 100 350 l 25
 500 350 l 25
 500 250 l 25
 100 250 l 29
EndSplineSet
Validated: 1
EndChar

StartChar: period
Encoding: 46 46 9
Width: 600
Flags: HW
LayerCount: 2
Back
Fore
SplineSet
350 0 m 29
 250 0 l 29
 250 100 l 29
 350 100 l 29
 350 0 l 29
EndSplineSet
Validated: 1
EndChar

StartChar: slash
Encoding: 47 47 10
Width: 600
Flags: HW
LayerCount: 2
Back
Fore
SplineSet
400 700 m 29
 500 700 l 25
 500 600 l 25
 450 600 l 25
 450 500 l 25
 400 500 l 25
 400 400 l 25
 350 400 l 25
 350 300 l 25
 300 300 l 25
 300 200 l 25
 250 200 l 25
 250 100 l 25
 200 100 l 25
 200 0 l 25
 100 0 l 25
 100 100 l 25
 150 100 l 25
 150 200 l 25
 200 200 l 25
 200 300 l 25
 250 300 l 25
 250 400 l 25
 300 400 l 25
 300 500 l 25
 350 500 l 25
 350 600 l 25
 400 600 l 25
 400 700 l 29
EndSplineSet
Validated: 1
EndChar

StartChar: zero
Encoding: 48 48 11
Width: 600
Flags: HW
LayerCount: 2
Back
Fore
SplineSet
400 600 m 29
 250 600 l 25
 250 100 l 25
 400 100 l 25
 400 600 l 29
150 700 m 25
 500 700 l 25
 500 600 l 25
 550 600 l 25
 550 100 l 25
 500 100 l 25
 500 0 l 25
 150 0 l 25
 150 100 l 25
 100 100 l 25
 100 600 l 25
 150 600 l 25
 150 700 l 25
EndSplineSet
Validated: 1
EndChar

StartChar: one
Encoding: 49 49 12
Width: 600
Flags: HW
LayerCount: 2
Back
Fore
SplineSet
200 500 m 29
 200 600 l 29
 300 600 l 29
 300 700 l 29
 450 700 l 29
 450 0 l 29
 300 0 l 29
 300 500 l 29
 200 500 l 29
EndSplineSet
Validated: 1
EndChar

StartChar: two
Encoding: 50 50 13
Width: 600
Flags: HW
LayerCount: 2
Back
Fore
SplineSet
200 500 m 29
 100 500 l 1
 100 600 l 25
 150 600 l 25
 150 700 l 25
 500 700 l 25
 500 600 l 25
 550 600 l 25
 550 400 l 25
 500 400 l 25
 500 300 l 25
 450 300 l 25
 450 200 l 25
 350 200 l 25
 350 100 l 25
 550 100 l 25
 550 0 l 25
 100 0 l 25
 100 100 l 25
 150 100 l 25
 150 200 l 25
 250 200 l 25
 250 300 l 25
 350 300 l 25
 350 400 l 25
 400 400 l 25
 400 600 l 25
 200 600 l 1
 200 500 l 29
EndSplineSet
Validated: 1
EndChar

StartChar: three
Encoding: 51 51 14
Width: 600
Flags: HW
LayerCount: 2
Back
Fore
SplineSet
100 700 m 29
 550 700 l 25
 550 600 l 25
 500 600 l 25
 500 500 l 25
 450 500 l 25
 450 400 l 25
 550 400 l 25
 550 100 l 25
 500 100 l 25
 500 0 l 25
 100 0 l 25
 100 100 l 25
 450 100 l 25
 450 300 l 25
 250 300 l 25
 250 400 l 25
 350 400 l 25
 350 500 l 25
 400 500 l 25
 400 600 l 25
 100 601 l 25
 100 700 l 29
EndSplineSet
Validated: 1
EndChar

StartChar: four
Encoding: 52 52 15
Width: 600
Flags: HW
LayerCount: 2
Back
Fore
SplineSet
400 700 m 29
 550 700 l 25
 550 600 l 25
 500 600 l 25
 500 500 l 25
 400 500 l 25
 400 400 l 25
 300 400 l 25
 300 300 l 25
 250 300 l 25
 250 200 l 25
 400 200 l 25
 400 300 l 25
 550 300 l 25
 550 0 l 25
 400 0 l 25
 400 100 l 25
 100 100 l 25
 100 300 l 25
 150 300 l 25
 150 400 l 25
 250 400 l 25
 250 500 l 25
 300 500 l 25
 300 600 l 25
 400 600 l 25
 400 700 l 29
EndSplineSet
Validated: 1
EndChar

StartChar: five
Encoding: 53 53 16
Width: 600
Flags: HW
LayerCount: 2
Back
Fore
SplineSet
500 700 m 29
 500 600 l 25
 200 600 l 25
 200 400 l 25
 500 400 l 25
 500 300 l 25
 550 300 l 25
 550 100 l 25
 500 100 l 25
 500 0 l 25
 150 0 l 25
 150 100 l 25
 100 100 l 25
 100 200 l 25
 200 200 l 25
 200 100 l 25
 400 100 l 25
 400 300 l 25
 100 300 l 25
 100 700 l 25
 500 700 l 29
EndSplineSet
Validated: 1
EndChar

StartChar: six
Encoding: 54 54 17
Width: 600
Flags: HW
LayerCount: 2
Back
Fore
SplineSet
450 300 m 29
 249 300 l 25
 249 100 l 25
 450 100 l 25
 450 300 l 29
400 700 m 25
 400 600 l 25
 350 600 l 25
 350 500 l 25
 300 500 l 25
 300 400 l 25
 500 400 l 25
 500 300 l 25
 550 300 l 25
 550 100 l 25
 500 100 l 25
 500 0 l 25
 150 0 l 25
 150 100 l 25
 100 100 l 25
 100 400 l 25
 150 400 l 25
 150 500 l 25
 200 500 l 25
 200 600 l 25
 250 600 l 25
 250 700 l 25
 400 700 l 25
EndSplineSet
Validated: 1
EndChar

StartChar: seven
Encoding: 55 55 18
Width: 600
Flags: HW
LayerCount: 2
Back
Fore
SplineSet
50 700 m 1
 550 700 l 25
 550 600 l 25
 500 600 l 25
 500 500 l 25
 450 500 l 25
 450 400 l 25
 400 400 l 25
 400 300 l 25
 350 300 l 25
 350 200 l 25
 300 200 l 25
 300 100 l 25
 250 100 l 25
 250 0 l 25
 100 0 l 25
 100 100 l 25
 150 100 l 25
 150 200 l 25
 200 200 l 25
 200 300 l 25
 250 300 l 25
 250 400 l 25
 300 400 l 25
 300 500 l 25
 350 500 l 25
 350 600 l 1
 50 600 l 25
 50 700 l 1
EndSplineSet
Validated: 1
EndChar

StartChar: eight
Encoding: 56 56 19
Width: 600
Flags: HW
LayerCount: 2
Back
Fore
SplineSet
250 100 m 29
 400 100 l 25
 400 300 l 25
 250 300 l 25
 250 100 l 29
250 600 m 25
 250 400 l 25
 400 400 l 25
 400 600 l 25
 250 600 l 25
150 700 m 25
 500 700 l 25
 500 600 l 25
 550 600 l 25
 550 400 l 25
 450 400 l 25
 450 300 l 25
 550 300 l 25
 550 100 l 25
 500 100 l 25
 500 0 l 25
 150 0 l 25
 150 100 l 25
 100 100 l 25
 100 300 l 25
 200 300 l 25
 200 400 l 25
 100 400 l 25
 100 600 l 25
 150 600 l 25
 150 700 l 25
EndSplineSet
Validated: 1
EndChar

StartChar: nine
Encoding: 57 57 20
Width: 600
Flags: HW
LayerCount: 2
Back
Fore
SplineSet
200 600 m 29
 200 400 l 25
 400 400 l 25
 400 600 l 25
 200 600 l 29
150 600 m 25
 150 700 l 25
 500 700 l 25
 500 600 l 25
 550 600 l 25
 550 300 l 25
 499 300 l 25
 500 200 l 25
 450 200 l 25
 450 100 l 25
 400 100 l 25
 400 0 l 25
 250 0 l 25
 250 100 l 25
 300 100 l 25
 300 200 l 25
 350 200 l 25
 350 300 l 25
 150 300 l 25
 150 400 l 25
 100 400 l 25
 100 600 l 25
 150 600 l 25
EndSplineSet
Validated: 1
EndChar

StartChar: colon
Encoding: 58 58 21
Width: 600
Flags: HW
LayerCount: 2
Back
Fore
SplineSet
250 200 m 29
 350 200 l 25
 350 0 l 25
 250 0 l 25
 250 200 l 29
250 500 m 25
 349 500 l 25
 350 300 l 25
 250 300 l 25
 250 500 l 25
EndSplineSet
Validated: 1
EndChar

StartChar: semicolon
Encoding: 59 59 22
Width: 600
Flags: HW
LayerCount: 2
Back
Fore
SplineSet
250 100 m 1
 350 100 l 25
 350 -100 l 1
 300 -100 l 25
 300 -200 l 25
 200 -200 l 25
 200 -100 l 25
 250 -100 l 25
 250 100 l 1
250 500 m 25
 350 500 l 25
 350 300 l 25
 250 300 l 25
 250 500 l 25
EndSplineSet
Validated: 1
EndChar

StartChar: less
Encoding: 60 60 23
Width: 600
Flags: HW
LayerCount: 2
Back
Fore
SplineSet
400 700 m 29
 550 700 l 25
 550 600 l 25
 450 600 l 25
 450 500 l 25
 350 500 l 25
 350 400 l 25
 250 400 l 25
 250 300 l 25
 350 300 l 25
 350 200 l 25
 450 200 l 25
 450 100 l 25
 550 100 l 25
 550 0 l 25
 400 0 l 25
 400 100 l 25
 300 100 l 25
 300 200 l 25
 200 200 l 25
 200 300 l 25
 100 300 l 25
 100 400 l 25
 200 400 l 25
 200 500 l 25
 300 500 l 25
 300 600 l 25
 400 600 l 25
 400 700 l 29
EndSplineSet
Validated: 1
EndChar

StartChar: equal
Encoding: 61 61 24
Width: 600
Flags: HW
LayerCount: 2
Back
Fore
SplineSet
100 500 m 29
 500 500 l 25
 500 400 l 25
 100 400 l 25
 100 500 l 29
100 300 m 25
 500 300 l 25
 500 200 l 25
 100 200 l 25
 100 300 l 25
EndSplineSet
Validated: 1
EndChar

StartChar: greater
Encoding: 62 62 25
Width: 600
Flags: HW
LayerCount: 2
Back
Fore
SplineSet
100 600 m 29
 100 700 l 25
 250 700 l 25
 250 600 l 25
 350 600 l 25
 350 500 l 25
 450 500 l 25
 450 400 l 25
 550 400 l 25
 550 300 l 25
 450 300 l 25
 450 200 l 25
 350 200 l 25
 350 100 l 25
 250 100 l 25
 250 0 l 25
 100 0 l 25
 100 100 l 25
 200 100 l 25
 200 200 l 25
 300 200 l 25
 300 300 l 25
 400 300 l 25
 400 400 l 25
 300 400 l 25
 300 500 l 25
 200 500 l 25
 200 600 l 25
 100 600 l 29
EndSplineSet
Validated: 1
EndChar

StartChar: question
Encoding: 63 63 26
Width: 600
Flags: HW
LayerCount: 2
Back
Fore
SplineSet
300 300 m 1
 400 300 l 1
 400 200 l 1
 300 200 l 1
 300 300 l 1
400 0 m 25
 300 0 l 1
 300 100 l 25
 400 100 l 1
 400 0 l 25
100 600 m 25
 150 600 l 25
 150 700 l 25
 500 700 l 25
 500 600 l 25
 550 600 l 25
 550 400 l 25
 499 400 l 25
 500 300 l 25
 400 300 l 25
 400 400 l 25
 450 400 l 25
 450 600 l 25
 200 600 l 25
 200 400 l 25
 100 400 l 25
 100 600 l 25
EndSplineSet
Validated: 5
EndChar

StartChar: at
Encoding: 64 64 27
Width: 600
Flags: HW
LayerCount: 2
Back
Fore
SplineSet
350 400 m 29
 350 200 l 25
 450 200 l 25
 450 400 l 25
 350 400 l 29
150 600 m 25
 150 700 l 25
 500 700 l 25
 500 600 l 25
 550 600 l 25
 550 100 l 25
 300 100 l 25
 300 200 l 25
 250 200 l 25
 250 400 l 25
 300 400 l 25
 300 500 l 25
 450 500 l 25
 450 600 l 25
 200 600 l 25
 200 500 l 25
 150 500 l 25
 150 100 l 25
 200 100 l 25
 200 0 l 25
 500 0 l 25
 500 -100 l 25
 150 -100 l 25
 150 0 l 25
 100 0 l 25
 100 100 l 25
 50 100 l 25
 50 500 l 25
 100 500 l 25
 100 600 l 25
 150 600 l 25
EndSplineSet
Validated: 1
EndChar

StartChar: A
Encoding: 65 65 28
Width: 600
Flags: HW
LayerCount: 2
Back
Fore
SplineSet
150 400 m 29
 150 300 l 25
 450 300 l 25
 450 400 l 25
 400 400 l 25
 400 500 l 25
 350 500 l 25
 350 600 l 25
 250 600 l 25
 250 500 l 25
 200 500 l 25
 200 400 l 25
 150 400 l 29
150 0 m 25
 50 0 l 25
 50 400 l 25
 100 400 l 25
 100 500 l 25
 150 500 l 25
 150 600 l 25
 200 600 l 25
 200 700 l 25
 399 700 l 25
 400 600 l 25
 450 600 l 25
 450 500 l 25
 500 500 l 25
 500 400 l 25
 550 400 l 25
 550 0 l 25
 450 0 l 25
 450 200 l 25
 150 200 l 25
 150 0 l 25
EndSplineSet
Validated: 1
EndChar

StartChar: B
Encoding: 66 66 29
Width: 600
Flags: HW
LayerCount: 2
Back
Fore
SplineSet
200 600 m 29
 200 400 l 25
 450 400 l 25
 450 600 l 25
 200 600 l 29
200 300 m 25
 200 100 l 25
 450 100 l 25
 450 300 l 25
 200 300 l 25
100 0 m 25
 100 700 l 25
 500 700 l 25
 500 600 l 25
 550 600 l 25
 550 400 l 25
 500 400 l 25
 500 300 l 25
 550 300 l 25
 550 100 l 25
 500 100 l 25
 500 0 l 25
 100 0 l 25
EndSplineSet
Validated: 1
EndChar

StartChar: C
Encoding: 67 67 30
Width: 600
Flags: HW
LayerCount: 2
Back
Fore
SplineSet
200 700 m 29
 500 700 l 25
 500 600 l 25
 550 600 l 25
 550 500 l 25
 450 500 l 25
 450 600 l 25
 250 600 l 25
 250 500 l 25
 200 500 l 25
 200 200 l 25
 250 200 l 25
 250 100 l 25
 450 100 l 25
 450 200 l 25
 550 200 l 25
 550 100 l 25
 500 100 l 25
 500 0 l 25
 200 0 l 25
 200 100 l 25
 150 100 l 25
 150 200 l 25
 100 200 l 25
 100 500 l 25
 150 500 l 25
 150 600 l 25
 200 600 l 25
 200 700 l 29
EndSplineSet
Validated: 1
EndChar

StartChar: D
Encoding: 68 68 31
Width: 600
Flags: HW
LayerCount: 2
Back
Fore
SplineSet
200 600 m 29
 200 100 l 25
 400 100 l 25
 400 200 l 25
 450 200 l 25
 450 500 l 25
 400 500 l 25
 400 600 l 25
 200 600 l 29
100 700 m 25
 450 700 l 25
 450 600 l 25
 500 600 l 25
 500 500 l 25
 550 500 l 25
 550 200 l 25
 500 200 l 25
 500 100 l 25
 450 100 l 25
 450 0 l 25
 100 0 l 25
 100 700 l 25
EndSplineSet
Validated: 1
EndChar

StartChar: E
Encoding: 69 69 32
Width: 600
Flags: HW
LayerCount: 2
Back
Fore
SplineSet
550 600 m 29
 200 600 l 25
 200 400 l 25
 450 400 l 25
 450 300 l 25
 200 300 l 25
 200 100 l 25
 550 100 l 25
 550 0 l 25
 100 0 l 25
 100 700 l 25
 550 700 l 25
 550 600 l 29
EndSplineSet
Validated: 1
EndChar

StartChar: F
Encoding: 70 70 33
Width: 600
Flags: HW
LayerCount: 2
Back
Fore
SplineSet
200 0 m 29
 100 0 l 25
 100 700 l 25
 550 700 l 25
 550 600 l 25
 200 600 l 25
 200 400 l 25
 450 400 l 25
 450 300 l 25
 200 300 l 25
 200 0 l 29
EndSplineSet
Validated: 1
EndChar

StartChar: G
Encoding: 71 71 34
Width: 600
Flags: HW
LayerCount: 2
Back
Fore
SplineSet
450 600 m 29
 200 600 l 25
 200 100 l 25
 450 100 l 25
 450 200 l 25
 300 200 l 25
 300 300 l 25
 550 300 l 25
 550 100 l 25
 500 100 l 25
 500 0 l 25
 150 0 l 25
 150 100 l 25
 100 100 l 25
 100 600 l 25
 150 600 l 25
 150 700 l 25
 500 700 l 25
 500 600 l 25
 550 600 l 25
 550 500 l 25
 450 500 l 25
 450 600 l 29
EndSplineSet
Validated: 1
EndChar

StartChar: H
Encoding: 72 72 35
Width: 600
Flags: HW
LayerCount: 2
Back
Fore
SplineSet
100 700 m 29
 200 700 l 25
 200 400 l 25
 450 400 l 25
 450 700 l 25
 550 700 l 25
 550 0 l 25
 450 0 l 25
 450 300 l 25
 200 300 l 25
 200 0 l 25
 100 0 l 25
 100 700 l 29
EndSplineSet
Validated: 1
EndChar

StartChar: I
Encoding: 73 73 36
Width: 600
Flags: W
HStem: 0 100<100 250 350 500> 600 100<100 250 350 500>
VStem: 250 100<100 600>
LayerCount: 2
Back
Fore
SplineSet
100 700 m 29
 500 700 l 25
 500 600 l 25
 350 600 l 25
 350 100 l 25
 500 100 l 25
 500 0 l 25
 100 0 l 25
 100 100 l 25
 250 100 l 25
 250 600 l 25
 100 600 l 25
 100 700 l 29
EndSplineSet
Validated: 1
EndChar

StartChar: J
Encoding: 74 74 37
Width: 600
Flags: HW
LayerCount: 2
Back
Fore
SplineSet
450 700 m 29
 550 700 l 25
 550 100 l 25
 500 100 l 25
 500 0 l 25
 150 0 l 25
 150 100 l 25
 100 100 l 25
 100 200 l 25
 200 200 l 25
 200 100 l 25
 450 100 l 25
 450 700 l 29
EndSplineSet
Validated: 1
EndChar

StartChar: K
Encoding: 75 75 38
Width: 600
Flags: HW
LayerCount: 2
Back
Fore
SplineSet
100 700 m 29
 200 700 l 25
 200 400 l 25
 250 400 l 25
 250 500 l 25
 350 500 l 25
 350 600 l 25
 400 600 l 25
 400 700 l 25
 550 700 l 25
 550 600 l 25
 450 600 l 25
 450 500 l 25
 400 500 l 25
 400 400 l 25
 300 400 l 25
 300 300 l 25
 400 300 l 25
 400 200 l 25
 450 200 l 25
 450 100 l 25
 550 100 l 25
 550 0 l 25
 400 0 l 25
 400 100 l 25
 350 100 l 25
 350 200 l 25
 250 200 l 25
 250 300 l 25
 200 300 l 25
 200 0 l 25
 100 0 l 25
 100 700 l 29
EndSplineSet
Validated: 1
EndChar

StartChar: L
Encoding: 76 76 39
Width: 600
Flags: HW
LayerCount: 2
Back
Fore
SplineSet
100 700 m 29
 200 700 l 25
 200 100 l 25
 550 100 l 25
 550 0 l 25
 100 0 l 25
 100 700 l 29
EndSplineSet
Validated: 1
EndChar

StartChar: M
Encoding: 77 77 40
Width: 600
Flags: HW
LayerCount: 2
Back
Fore
SplineSet
150 0 m 29
 50 0 l 25
 50 700 l 25
 200 700 l 25
 200 600 l 25
 250 600 l 25
 250 500 l 25
 350 500 l 25
 350 600 l 25
 400 600 l 25
 400 700 l 25
 550 700 l 25
 550 0 l 25
 450 0 l 25
 450 500 l 25
 400 500 l 25
 400 400 l 25
 350 400 l 25
 350 300 l 25
 250 300 l 25
 250 400 l 25
 200 400 l 25
 200 500 l 25
 150 500 l 25
 150 0 l 29
EndSplineSet
Validated: 1
EndChar

StartChar: N
Encoding: 78 78 41
Width: 600
Flags: HW
LayerCount: 2
Back
Fore
SplineSet
50 700 m 29
 200 700 l 25
 200 600 l 25
 250 600 l 25
 250 500 l 25
 300 500 l 25
 300 400 l 25
 350 400 l 25
 350 300 l 25
 400 300 l 25
 400 200 l 25
 450 200 l 25
 450 700 l 25
 550 700 l 25
 550 0 l 25
 400 0 l 25
 400 100 l 25
 350 100 l 25
 350 200 l 25
 300 200 l 25
 300 300 l 25
 250 300 l 25
 250 400 l 25
 200 400 l 25
 200 500 l 25
 150 500 l 25
 150 0 l 25
 50 0 l 25
 50 700 l 29
EndSplineSet
Validated: 1
EndChar

StartChar: O
Encoding: 79 79 42
Width: 600
Flags: W
HStem: 0 100<200 400> 600 100<200 400>
VStem: 50 100<200 500> 100 100<100 200 500 600> 150 300<0 100 600 700> 400 100<100 200 500 600> 450 100<200 500>
LayerCount: 2
Back
Fore
SplineSet
400 100 m 29xd4
 400 200 l 25xd4
 450 200 l 25
 450 500 l 25xc2
 400 500 l 25
 400 600 l 25
 200 600 l 25
 200 500 l 25xd4
 150 500 l 25
 150 200 l 25xe0
 200 200 l 25
 200 100 l 25
 400 100 l 29xd4
450 0 m 25xc8
 150 0 l 25
 150 100 l 25xc8
 100 100 l 25
 100 200 l 25xd0
 50 200 l 25
 50 500 l 25xe0
 100 500 l 25
 100 600 l 25xd0
 150 600 l 25
 150 700 l 25
 450 700 l 25
 450 600 l 25xc8
 500 600 l 25
 500 500 l 25xc4
 550 500 l 25
 550 200 l 25xc2
 500 200 l 25
 500 100 l 25xc4
 450 100 l 25
 450 0 l 25xc8
EndSplineSet
Validated: 1
EndChar

StartChar: P
Encoding: 80 80 43
Width: 600
Flags: HW
LayerCount: 2
Back
Fore
SplineSet
200 600 m 29
 200 400 l 25
 450 400 l 25
 450 600 l 25
 200 600 l 29
100 700 m 25
 500 700 l 25
 500 650 l 25
 550 650 l 25
 550 400 l 25
 500 400 l 25
 500 300 l 25
 200 300 l 25
 200 0 l 25
 100 0 l 25
 100 700 l 25
EndSplineSet
Validated: 1
EndChar

StartChar: Q
Encoding: 81 81 44
Width: 600
Flags: HW
LayerCount: 2
Back
Fore
SplineSet
150 600 m 29
 150 100 l 25
 300 100 l 25
 300 200 l 25
 400 200 l 25
 400 100 l 25
 450 100 l 25
 450 600 l 25
 150 600 l 29
100 700 m 25
 500 700 l 25
 500 600 l 25
 550 600 l 25
 550 100 l 25
 500 100 l 25
 500 0 l 25
 450 0 l 25
 450 -100 l 25
 550 -100 l 25
 550 -200 l 25
 400 -200 l 25
 400 -100 l 25
 350 -100 l 25
 350 0 l 25
 100 0 l 25
 100 100 l 25
 50 100 l 25
 50 600 l 25
 100 600 l 25
 100 700 l 25
EndSplineSet
Validated: 1
EndChar

StartChar: R
Encoding: 82 82 45
Width: 600
Flags: HW
LayerCount: 2
Back
Fore
SplineSet
200 600 m 29
 200 400 l 25
 450 400 l 25
 450 600 l 25
 200 600 l 29
100 700 m 25
 500 700 l 25
 500 650 l 25
 550 650 l 25
 550 400 l 25
 500 400 l 25
 500 300 l 25
 400 300 l 25
 400 200 l 25
 450 200 l 25
 450 100 l 25
 550 100 l 25
 550 0 l 25
 400 0 l 25
 400 100 l 25
 350 100 l 25
 350 200 l 25
 300 200 l 25
 300 300 l 25
 200 300 l 25
 200 0 l 25
 100 0 l 25
 100 700 l 25
EndSplineSet
Validated: 1
EndChar

StartChar: S
Encoding: 83 83 46
Width: 600
Flags: HW
LayerCount: 2
Back
Fore
SplineSet
150 600 m 29
 150 700 l 25
 500 700 l 25
 500 600 l 25
 200 600 l 25
 200 400 l 25
 500 400 l 25
 500 300 l 25
 550 300 l 25
 550 100 l 25
 500 100 l 25
 500 0 l 25
 150 0 l 25
 150 100 l 25
 450 100 l 25
 450 300 l 25
 150 300 l 25
 150 400 l 25
 100 400 l 25
 100 600 l 25
 150 600 l 29
EndSplineSet
Validated: 1
EndChar

StartChar: T
Encoding: 84 84 47
Width: 600
Flags: HW
LayerCount: 2
Back
Fore
SplineSet
50 700 m 1
 550 700 l 5
 550 600 l 1
 350 600 l 1
 350 0 l 25
 250 0 l 25
 250 600 l 1
 50 600 l 1
 50 700 l 1
EndSplineSet
Validated: 1
EndChar

StartChar: U
Encoding: 85 85 48
Width: 600
Flags: HW
LayerCount: 2
Back
Fore
SplineSet
100 700 m 29
 200 700 l 25
 200 100 l 25
 450 100 l 25
 450 700 l 25
 550 700 l 25
 550 100 l 25
 500 100 l 25
 500 0 l 25
 150 0 l 25
 150 100 l 25
 100 100 l 25
 100 700 l 29
EndSplineSet
Validated: 1
EndChar

StartChar: V
Encoding: 86 86 49
Width: 600
Flags: HW
LayerCount: 2
Back
Fore
SplineSet
100 700 m 29
 200 700 l 25
 200 500 l 25
 250 500 l 25
 250 300 l 25
 300 300 l 25
 300 200 l 25
 400 200 l 25
 400 300 l 25
 450 300 l 25
 450 500 l 25
 500 500 l 25
 500 700 l 25
 600 700 l 25
 600 500 l 25
 550 500 l 25
 550 300 l 25
 500 300 l 25
 500 200 l 25
 450 200 l 25
 450 100 l 25
 400 100 l 25
 400 0 l 25
 300 0 l 25
 300 100 l 25
 250 100 l 25
 250 200 l 25
 200 200 l 25
 200 300 l 25
 150 300 l 25
 150 500 l 25
 100 500 l 25
 100 700 l 29
EndSplineSet
Validated: 1
EndChar

StartChar: W
Encoding: 87 87 50
Width: 600
Flags: HW
LayerCount: 2
Back
Fore
SplineSet
50 700 m 29
 150 700 l 25
 150 200 l 25
 200 200 l 25
 200 300 l 25
 250 300 l 25
 250 400 l 25
 350 400 l 25
 350 300 l 25
 400 300 l 25
 400 200 l 25
 450 200 l 25
 450 700 l 25
 550 700 l 25
 550 200 l 25
 500 200 l 25
 500 0 l 25
 400 0 l 25
 400 100 l 25
 350 100 l 25
 350 200 l 25
 250 200 l 25
 250 100 l 25
 200 100 l 25
 200 0 l 25
 100 0 l 25
 100 200 l 25
 50 200 l 25
 50 700 l 29
EndSplineSet
Validated: 1
EndChar

StartChar: X
Encoding: 88 88 51
Width: 600
Flags: HW
LayerCount: 2
Back
Fore
SplineSet
100 700 m 29
 200 700 l 25
 200 600 l 25
 250 600 l 25
 250 500 l 25
 350 500 l 25
 350 600 l 25
 400 600 l 25
 400 700 l 25
 500 700 l 25
 500 600 l 25
 450 600 l 25
 450 500 l 25
 400 500 l 25
 400 400 l 25
 350 400 l 25
 350 300 l 25
 400 300 l 25
 400 200 l 25
 450 200 l 25
 450 100 l 25
 500 100 l 25
 500 0 l 25
 400 0 l 25
 400 100 l 25
 350 100 l 25
 350 200 l 25
 250 200 l 25
 250 100 l 25
 200 100 l 25
 200 0 l 25
 100 0 l 25
 100 100 l 25
 150 100 l 25
 150 200 l 25
 200 200 l 25
 200 300 l 25
 250 300 l 25
 250 400 l 25
 200 400 l 25
 200 500 l 25
 150 500 l 25
 150 600 l 25
 100 600 l 25
 100 700 l 29
EndSplineSet
Validated: 1
EndChar

StartChar: Y
Encoding: 89 89 52
Width: 600
Flags: HW
LayerCount: 2
Back
Fore
SplineSet
50 700 m 29
 150 700 l 25
 150 600 l 25
 200 600 l 25
 200 500 l 25
 250 500 l 25
 250 400 l 25
 350 400 l 25
 350 500 l 25
 400 500 l 25
 400 600 l 25
 450 600 l 25
 450 700 l 25
 550 700 l 25
 550 600 l 25
 500 600 l 25
 500 500 l 25
 450 500 l 25
 450 400 l 25
 400 400 l 25
 400 300 l 25
 350 300 l 25
 350 0 l 25
 250 0 l 25
 250 300 l 25
 200 300 l 25
 200 400 l 25
 150 400 l 25
 150 500 l 25
 100 500 l 25
 100 600 l 25
 50 600 l 25
 50 700 l 29
EndSplineSet
Validated: 1
EndChar

StartChar: Z
Encoding: 90 90 53
Width: 600
Flags: HW
LayerCount: 2
Back
Fore
SplineSet
100 700 m 29
 500 700 l 25
 500 600 l 25
 450 600 l 25
 450 500 l 25
 400 500 l 25
 400 400 l 25
 350 400 l 25
 350 300 l 25
 300 300 l 25
 300 200 l 25
 250 200 l 25
 250 100 l 25
 500 100 l 25
 500 0 l 25
 100 0 l 25
 100 100 l 25
 150 100 l 25
 150 200 l 25
 200 200 l 25
 200 300 l 25
 250 300 l 25
 250 400 l 25
 300 400 l 25
 300 500 l 25
 350 500 l 25
 350 600 l 25
 100 600 l 25
 100 700 l 29
EndSplineSet
Validated: 1
EndChar

StartChar: a
Encoding: 97 97 54
Width: 600
Flags: HW
LayerCount: 2
Back
Fore
SplineSet
150 200 m 29
 150 100 l 25
 400 100 l 25
 400 200 l 25
 150 200 l 29
100 500 m 25
 450 500 l 25
 450 400 l 25
 500 400 l 25
 500 100 l 25
 549 100 l 25
 550 0 l 25
 100 0 l 25
 100 100 l 25
 50 100 l 25
 50 200 l 25
 100 200 l 25
 100 300 l 25
 400 300 l 25
 400 400 l 25
 100 400 l 25
 100 500 l 25
EndSplineSet
Validated: 1
EndChar

StartChar: b
Encoding: 98 98 55
Width: 600
Flags: HW
LayerCount: 2
Back
Fore
SplineSet
450 400 m 29
 250 400 l 25
 250 300 l 25
 200 300 l 25
 200 100 l 25
 450 100 l 25
 450 400 l 29
100 700 m 25
 200 700 l 25
 200 400 l 25
 250 400 l 25
 250 500 l 25
 500 500 l 25
 500 400 l 25
 550 400 l 25
 550 100 l 25
 500 100 l 25
 500 0 l 25
 100 0 l 25
 100 700 l 25
EndSplineSet
Validated: 5
EndChar

StartChar: c
Encoding: 99 99 56
Width: 600
Flags: HW
LayerCount: 2
Back
Fore
SplineSet
200 500 m 29
 550 500 l 25
 550 400 l 25
 250 400 l 25
 250 300 l 25
 200 300 l 25
 200 200 l 25
 250 200 l 25
 250 100 l 25
 550 100 l 25
 550 0 l 25
 200 0 l 25
 200 100 l 25
 150 100 l 25
 150 200 l 25
 100 200 l 25
 100 300 l 25
 150 300 l 25
 150 400 l 25
 200 400 l 25
 200 500 l 29
EndSplineSet
Validated: 1
EndChar

StartChar: d
Encoding: 100 100 57
Width: 600
Flags: HW
LayerCount: 2
Back
Fore
SplineSet
200 100 m 29
 450 100 l 25
 450 300 l 25
 400 300 l 25
 400 400 l 25
 200 400 l 25
 200 100 l 29
450 700 m 25
 550 700 l 25
 550 0 l 25
 150 0 l 25
 150 100 l 25
 100 100 l 25
 100 400 l 25
 150 400 l 25
 150 500 l 25
 400 500 l 25
 400 400 l 25
 450 400 l 25
 450 700 l 25
EndSplineSet
Validated: 5
EndChar

StartChar: e
Encoding: 101 101 58
Width: 600
Flags: HW
LayerCount: 2
Back
Fore
SplineSet
200 400 m 1
 200 300 l 1
 450 300 l 1
 450 400 l 1
 200 400 l 1
150 400 m 1
 150 500 l 1
 499 500 l 1
 500 400 l 25
 550 400 l 25
 550 200 l 1
 200 200 l 1
 200 100 l 1
 500 100 l 1
 500 0 l 1
 150 0 l 1
 150 100 l 1
 100 100 l 1
 100 400 l 5
 150 400 l 1
EndSplineSet
Validated: 1
EndChar

StartChar: f
Encoding: 102 102 59
Width: 600
Flags: HW
LayerCount: 2
Back
Fore
SplineSet
250 600 m 29
 250 700 l 25
 550 700 l 25
 550 600 l 25
 300 600 l 25
 300 400 l 25
 450 400 l 25
 450 300 l 25
 300 300 l 25
 300 0 l 25
 200 0 l 25
 200 300 l 25
 100 300 l 25
 100 400 l 25
 200 400 l 25
 200 600 l 25
 250 600 l 29
EndSplineSet
Validated: 1
EndChar

StartChar: g
Encoding: 103 103 60
Width: 600
Flags: HW
LayerCount: 2
Back
Fore
SplineSet
200 400 m 29
 200 100 l 25
 400 100 l 25
 400 200 l 25
 450 200 l 25
 450 300 l 25
 400 300 l 25
 400 400 l 25
 200 400 l 29
150 400 m 25
 150 498 l 25
 400 500 l 25
 400 400 l 25
 450 400 l 25
 450 500 l 25
 550 500 l 25
 550 -100 l 25
 500 -100 l 25
 500 -200 l 25
 150 -200 l 25
 150 -100 l 25
 450 -100 l 25
 450 100 l 25
 400 100 l 25
 400 0 l 25
 150 0 l 25
 150 100 l 25
 100 100 l 25
 100 400 l 25
 150 400 l 25
EndSplineSet
Validated: 5
EndChar

StartChar: h
Encoding: 104 104 61
Width: 600
Flags: HW
LayerCount: 2
Back
Fore
SplineSet
100 700 m 29
 200 700 l 25
 200 400 l 25
 250 400 l 25
 250 500 l 25
 500 500 l 25
 500 400 l 25
 550 400 l 25
 550 0 l 25
 450 0 l 25
 450 400 l 25
 250 400 l 25
 250 300 l 25
 200 300 l 25
 200 0 l 25
 100 0 l 25
 100 700 l 29
EndSplineSet
Validated: 5
EndChar

StartChar: i
Encoding: 105 105 62
Width: 600
Flags: HW
LayerCount: 2
Back
Fore
SplineSet
200 500 m 1
 350 500 l 25
 349 100 l 25
 450 100 l 25
 450 0 l 25
 150 0 l 25
 150 100 l 25
 250 100 l 25
 250 400 l 1
 200 400 l 29
 200 500 l 1
200 700 m 25
 350 700 l 25
 350 600 l 25
 200 600 l 25
 200 700 l 25
EndSplineSet
Validated: 1
EndChar

StartChar: j
Encoding: 106 106 63
Width: 600
Flags: HW
LayerCount: 2
Back
Fore
SplineSet
400 400 m 29
 400 500 l 25
 550 500 l 25
 550 -100 l 25
 500 -100 l 25
 500 -200 l 25
 150 -200 l 25
 150 -100 l 25
 100 -100 l 25
 100 0 l 25
 200 0 l 25
 200 -100 l 25
 450 -100 l 25
 450 400 l 25
 400 400 l 29
400 700 m 25
 549 700 l 25
 550 600 l 25
 400 600 l 25
 400 700 l 25
EndSplineSet
Validated: 1
EndChar

StartChar: k
Encoding: 107 107 64
Width: 600
Flags: HW
LayerCount: 2
Back
Fore
SplineSet
100 700 m 29
 200 700 l 25
 200 300 l 25
 300 300 l 25
 300 400 l 25
 350 400 l 25
 350 500 l 25
 500 500 l 25
 500 400 l 25
 400 400 l 25
 400 300 l 25
 350 300 l 25
 350 200 l 25
 400 200 l 25
 400 100 l 25
 500 100 l 25
 500 0 l 25
 350 0 l 25
 350 100 l 25
 300 100 l 25
 300 200 l 25
 200 200 l 25
 200 0 l 25
 100 0 l 25
 100 700 l 29
EndSplineSet
Validated: 1
EndChar

StartChar: l
Encoding: 108 108 65
Width: 600
Flags: HW
LayerCount: 2
Back
Fore
SplineSet
150 750 m 29
 350 750 l 25
 350 100 l 25
 500 100 l 25
 500 0 l 25
 100 0 l 25
 100 100 l 25
 250 100 l 25
 250 650 l 25
 150 650 l 25
 150 750 l 29
EndSplineSet
Validated: 1
EndChar

StartChar: m
Encoding: 109 109 66
Width: 600
Flags: HW
LayerCount: 2
Back
Fore
SplineSet
50 0 m 29
 50 500 l 25
 499 500 l 25
 500 400 l 25
 550 400 l 25
 550 0 l 25
 450 0 l 25
 450 400 l 25
 350 400 l 25
 350 0 l 25
 250 0 l 25
 250 400 l 25
 150 400 l 25
 150 0 l 25
 50 0 l 29
EndSplineSet
Validated: 1
EndChar

StartChar: n
Encoding: 110 110 67
Width: 600
Flags: HW
LayerCount: 2
Back
Fore
SplineSet
100 0 m 29
 100 500 l 25
 200 500 l 25
 200 400 l 25
 250 400 l 25
 250 500 l 25
 500 500 l 25
 500 400 l 25
 550 400 l 25
 550 0 l 25
 450 0 l 25
 450 400 l 25
 250 400 l 25
 250 300 l 25
 200 300 l 25
 200 0 l 25
 100 0 l 29
EndSplineSet
Validated: 5
EndChar

StartChar: o
Encoding: 111 111 68
Width: 600
Flags: W
HStem: 0 100<200 450> 400 100<200 450>
VStem: 100 100<100 400> 450 100<100 400>
LayerCount: 2
Back
Fore
SplineSet
200 400 m 29
 200 100 l 25
 450 100 l 25
 450 400 l 25
 200 400 l 29
150 500 m 25
 500 500 l 25
 500 400 l 25
 550 400 l 25
 550 100 l 25
 500 100 l 25
 500 0 l 25
 150 0 l 25
 150 100 l 25
 100 100 l 25
 100 400 l 25
 150 400 l 25
 150 500 l 25
EndSplineSet
Validated: 1
EndChar

StartChar: p
Encoding: 112 112 69
Width: 600
Flags: HW
LayerCount: 2
Back
Fore
SplineSet
250 300 m 29
 200 300 l 25
 200 200 l 25
 250 200 l 25
 250 100 l 25
 450 100 l 25
 450 400 l 25
 250 400 l 25
 250 300 l 29
100 500 m 25
 200 500 l 25
 200 400 l 25
 250 400 l 25
 250 500 l 25
 500 500 l 25
 500 400 l 25
 550 400 l 25
 550 100 l 25
 500 100 l 25
 500 0 l 25
 250 0 l 25
 250 100 l 25
 200 100 l 25
 200 -200 l 25
 100 -200 l 25
 100 500 l 25
EndSplineSet
Validated: 5
EndChar

StartChar: q
Encoding: 113 113 70
Width: 600
Flags: HW
LayerCount: 2
Back
Fore
SplineSet
200 400 m 29
 200 100 l 25
 400 100 l 25
 400 200 l 25
 450 200 l 25
 450 300 l 25
 400 300 l 25
 400 400 l 25
 200 400 l 29
150 500 m 25
 400 500 l 25
 400 400 l 25
 450 400 l 25
 450 500 l 25
 550 500 l 25
 550 -200 l 25
 450 -200 l 25
 450 100 l 25
 400 100 l 25
 400 0 l 25
 150 0 l 25
 150 100 l 25
 100 100 l 25
 100 400 l 25
 150 400 l 25
 150 500 l 25
EndSplineSet
Validated: 5
EndChar

StartChar: r
Encoding: 114 114 71
Width: 600
Flags: HW
LayerCount: 2
Back
Fore
SplineSet
100 0 m 29
 100 500 l 25
 200 500 l 25
 200 400 l 25
 300 400 l 25
 300 500 l 25
 550 500 l 25
 550 400 l 25
 300 400 l 25
 300 300 l 25
 200 300 l 25
 200 0 l 25
 100 0 l 29
EndSplineSet
Validated: 5
EndChar

StartChar: s
Encoding: 115 115 72
Width: 600
Flags: HW
LayerCount: 2
Back
Fore
SplineSet
500 400 m 1
 200 400 l 1
 200 300 l 1
 500 300 l 1
 500 200 l 25
 550 200 l 25
 550 100 l 25
 500 100 l 25
 500 0 l 1
 150 0 l 5
 150 100 l 1
 450 100 l 1
 450 200 l 1
 150 200 l 1
 150 300 l 1
 100 300 l 1
 100 400 l 1
 150 400 l 1
 150 500 l 1
 500 500 l 1
 500 400 l 1
EndSplineSet
Validated: 1
EndChar

StartChar: t
Encoding: 116 116 73
Width: 600
Flags: HW
LayerCount: 2
Back
Fore
SplineSet
200 700 m 25
 300 700 l 25
 300 500 l 1
 450 500 l 5
 450 400 l 1
 300 400 l 1
 300 100 l 25
 550 100 l 25
 550 0 l 25
 250 0 l 25
 250 100 l 25
 200 100 l 25
 200 400 l 25
 100 400 l 25
 100 500 l 25
 200 500 l 25
 200 700 l 25
EndSplineSet
Validated: 1
EndChar

StartChar: u
Encoding: 117 117 74
Width: 600
Flags: HW
LayerCount: 2
Back
Fore
SplineSet
100 500 m 29
 200 500 l 25
 200 100 l 25
 400 100 l 25
 400 200 l 25
 450 200 l 25
 450 500 l 25
 550 500 l 25
 550 0 l 25
 450 0 l 25
 450 100 l 25
 400 100 l 25
 400 0 l 25
 150 0 l 25
 150 100 l 25
 100 100 l 25
 100 500 l 29
EndSplineSet
Validated: 5
EndChar

StartChar: v
Encoding: 118 118 75
Width: 600
Flags: HW
LayerCount: 2
Back
Fore
SplineSet
50 500 m 29
 150 500 l 25
 150 400 l 25
 200 400 l 25
 200 300 l 25
 250 300 l 25
 250 200 l 25
 350 200 l 25
 350 300 l 25
 400 300 l 25
 400 400 l 25
 450 400 l 25
 450 500 l 25
 550 500 l 25
 550 400 l 25
 500 400 l 25
 500 300 l 25
 450 300 l 25
 450 200 l 25
 400 200 l 25
 400 100 l 25
 350 100 l 25
 350 0 l 25
 250 0 l 25
 250 100 l 25
 200 100 l 25
 200 200 l 25
 150 200 l 25
 150 300 l 25
 100 300 l 25
 100 400 l 25
 50 400 l 25
 50 500 l 29
EndSplineSet
Validated: 1
EndChar

StartChar: w
Encoding: 119 119 76
Width: 600
Flags: HW
LayerCount: 2
Back
Fore
SplineSet
450 500 m 29
 550 500 l 25
 550 200 l 25
 500 200 l 25
 500 100 l 25
 450 100 l 25
 450 0 l 25
 350 0 l 25
 350 100 l 25
 250 100 l 25
 250 0 l 25
 150 0 l 25
 150 100 l 25
 100 100 l 25
 100 200 l 25
 50 200 l 25
 50 500 l 25
 150 500 l 25
 150 200 l 25
 200 200 l 25
 200 100 l 25
 250 100 l 25
 250 400 l 25
 350 400 l 25
 350 100 l 25
 400 100 l 25
 400 200 l 25
 450 200 l 25
 450 500 l 29
EndSplineSet
Validated: 5
EndChar

StartChar: x
Encoding: 120 120 77
Width: 600
Flags: W
HStem: 0 100<50 150 450 550> 200 100<250 350> 400 100<50 150 450 550>
VStem: 50 150<0 100 400 500> 150 100<100 200 300 400> 350 100<100 200 300 400> 400 150<0 100 400 500>
CounterMasks: 1 e0
LayerCount: 2
Back
Fore
SplineSet
50 500 m 29xf0
 200 500 l 25
 200 400 l 25xf0
 250 400 l 25
 250 300 l 25
 350 300 l 25
 350 400 l 25xec
 400 400 l 25
 400 500 l 25
 550 500 l 25
 550 400 l 25xe2
 450 400 l 25
 450 300 l 25xe4
 400 300 l 25
 400 200 l 25xe2
 450 200 l 25
 450 100 l 25xe4
 550 100 l 25
 550 0 l 25
 400 0 l 25
 400 100 l 25xe2
 350 100 l 25
 350 200 l 25
 250 200 l 25
 250 100 l 25xec
 200 100 l 25
 200 0 l 25
 50 0 l 25
 50 100 l 25xf0
 150 100 l 25
 150 200 l 25xe8
 200 200 l 25
 200 300 l 25xf0
 150 300 l 25
 150 400 l 25xe8
 50 400 l 25
 50 500 l 29xf0
EndSplineSet
Validated: 1
EndChar

StartChar: y
Encoding: 121 121 78
Width: 600
Flags: HW
LayerCount: 2
Back
Fore
SplineSet
100 500 m 29
 200 500 l 25
 200 400 l 25
 250 400 l 25
 250 300 l 25
 300 300 l 25
 300 200 l 25
 350 200 l 25
 350 300 l 25
 400 300 l 25
 400 400 l 25
 450 400 l 25
 450 500 l 25
 550 500 l 25
 550 400 l 25
 500 400 l 25
 500 300 l 25
 450 300 l 25
 450 200 l 25
 400 200 l 25
 400 100 l 25
 350 100 l 25
 350 0 l 25
 300 0 l 25
 300 -100 l 25
 250 -100 l 25
 250 -200 l 25
 100 -200 l 25
 100 -100 l 25
 200 -100 l 25
 200 0 l 25
 250 0 l 25
 250 200 l 25
 200 200 l 25
 200 300 l 25
 150 300 l 25
 150 400 l 25
 100 400 l 25
 100 500 l 29
EndSplineSet
Validated: 1
EndChar

StartChar: z
Encoding: 122 122 79
Width: 600
Flags: HW
LayerCount: 2
Back
Fore
SplineSet
100 500 m 29
 500 500 l 25
 500 400 l 25
 400 400 l 25
 400 300 l 25
 350 300 l 25
 350 200 l 25
 300 200 l 25
 300 100 l 25
 500 100 l 25
 500 0 l 25
 100 0 l 25
 100 100 l 25
 200 100 l 25
 200 200 l 25
 250 200 l 25
 250 300 l 25
 300 300 l 25
 300 400 l 25
 100 400 l 25
 100 500 l 29
EndSplineSet
Validated: 1
EndChar

StartChar: edieresis
Encoding: 235 235 82
Width: 600
Flags: HW
LayerCount: 2
Back
Fore
SplineSet
400 700 m 25
 500 700 l 25
 500 600 l 25
 400 600 l 25
 400 700 l 25
150 700 m 25
 250 700 l 25
 250 600 l 25
 150 600 l 25
 150 700 l 25
200 400 m 1
 200 300 l 1
 450 300 l 1
 450 400 l 1
 200 400 l 1
150 400 m 1
 151 500 l 1
 499 500 l 1
 500 400 l 25
 550 400 l 25
 550 200 l 1
 200 200 l 1
 200 100 l 1
 500 100 l 1
 500 0 l 1
 150 0 l 1
 150 100 l 1
 100 100 l 1
 100 400 l 5
 150 400 l 1
EndSplineSet
Validated: 1
EndChar

StartChar: uni0401
Encoding: 1025 1025 97
Width: 600
Flags: HW
LayerCount: 2
Back
Fore
SplineSet
400 700 m 25
 400 800 l 25
 500 800 l 25
 500 700 l 25
 400 700 l 25
150 700 m 25
 150 800 l 25
 250 800 l 25
 250 700 l 25
 150 700 l 25
550 500 m 1
 200 500 l 1
 200 400 l 1
 450 400 l 25
 450 300 l 25
 200 300 l 25
 200 100 l 25
 550 100 l 25
 550 0 l 25
 100 0 l 1
 100 600 l 1
 550 600 l 1
 550 500 l 1
EndSplineSet
Validated: 1
EndChar

StartChar: uni0402
Encoding: 1026 1026 98
Width: 600
Flags: HW
LayerCount: 2
Back
Fore
SplineSet
200 0 m 29
 200 600 l 25
 50 600 l 25
 50 700 l 25
 450 700 l 25
 450 600 l 25
 300 600 l 25
 300 400 l 25
 550 400 l 25
 550 300 l 25
 600 300 l 25
 600 100 l 25
 550 100 l 25
 550 0 l 25
 350 0 l 25
 350 100 l 25
 500 100 l 25
 500 300 l 25
 300 300 l 25
 300 0 l 25
 200 0 l 29
EndSplineSet
Validated: 1
EndChar

StartChar: uni0403
Encoding: 1027 1027 99
Width: 600
Flags: HW
LayerCount: 2
Back
Fore
SplineSet
100 0 m 29
 100 600 l 25
 250 600 l 25
 250 700 l 25
 300 700 l 25
 300 800 l 25
 400 800 l 25
 400 700 l 25
 350 700 l 25
 350 600 l 25
 550 600 l 25
 550 500 l 25
 200 500 l 25
 200 0 l 25
 100 0 l 29
EndSplineSet
Validated: 1
EndChar

StartChar: uni0404
Encoding: 1028 1028 100
Width: 600
Flags: HW
LayerCount: 2
Back
Fore
SplineSet
200 500 m 29
 150 500 l 25
 150 400 l 25
 350 400 l 25
 350 300 l 25
 150 300 l 25
 150 200 l 25
 200 200 l 25
 200 100 l 25
 400 100 l 25
 400 200 l 25
 500 200 l 25
 500 100 l 25
 450 100 l 25
 450 0 l 25
 150 0 l 25
 150 100 l 25
 100 100 l 25
 100 200 l 25
 50 200 l 25
 50 500 l 25
 100 500 l 25
 100 600 l 25
 150 600 l 25
 150 700 l 25
 450 700 l 25
 450 600 l 25
 500 600 l 25
 500 500 l 25
 400 500 l 25
 400 600 l 25
 200 600 l 25
 200 500 l 29
EndSplineSet
Validated: 1
EndChar

StartChar: uni0405
Encoding: 1029 1029 101
Width: 600
Flags: HW
LayerCount: 2
Back
Fore
SplineSet
150 600 m 29
 150 700 l 25
 500 700 l 25
 500 600 l 25
 200 600 l 25
 200 400 l 25
 500 400 l 25
 500 300 l 25
 550 300 l 25
 550 100 l 25
 500 100 l 25
 500 0 l 25
 150 0 l 25
 150 100 l 25
 450 100 l 25
 450 300 l 25
 150 300 l 25
 150 400 l 25
 100 400 l 25
 100 600 l 25
 150 600 l 29
EndSplineSet
Validated: 1
EndChar

StartChar: uni0406
Encoding: 1030 1030 102
Width: 600
Flags: W
HStem: 0 100<100 250 350 500> 600 100<100 250 350 500>
VStem: 250 100<100 600>
LayerCount: 2
Back
Fore
SplineSet
100 700 m 29
 500 700 l 25
 500 600 l 25
 350 600 l 25
 350 100 l 25
 500 100 l 25
 500 0 l 25
 100 0 l 25
 100 100 l 25
 250 100 l 25
 250 600 l 25
 100 600 l 25
 100 700 l 29
EndSplineSet
Validated: 1
EndChar

StartChar: uni0407
Encoding: 1031 1031 103
Width: 600
Flags: HMW
LayerCount: 2
Back
Fore
SplineSet
350 650 m 29
 350 750 l 25
 450 750 l 25
 450 650 l 25
 350 650 l 29
150 650 m 25
 150 750 l 25
 250 750 l 25
 250 650 l 25
 150 650 l 25
100 500 m 25
 100 600 l 25
 500 600 l 25
 500 500 l 25
 350 500 l 25
 350 100 l 25
 500 100 l 25
 500 0 l 25
 100 0 l 25
 100 100 l 25
 250 100 l 25
 250 500 l 25
 100 500 l 25
EndSplineSet
Validated: 1
EndChar

StartChar: uni0408
Encoding: 1032 1032 104
Width: 600
Flags: HW
LayerCount: 2
Back
Fore
SplineSet
450 700 m 29
 550 700 l 25
 550 100 l 25
 500 100 l 25
 500 0 l 25
 150 0 l 25
 150 100 l 25
 100 100 l 25
 100 200 l 25
 200 200 l 25
 200 100 l 25
 450 100 l 25
 450 700 l 29
EndSplineSet
Validated: 1
EndChar

StartChar: uni0409
Encoding: 1033 1033 105
Width: 600
Flags: HW
LayerCount: 2
Back
Fore
SplineSet
400 100 m 29
 500 100 l 25
 500 300 l 25
 400 300 l 25
 400 100 l 29
50 0 m 25
 50 100 l 25
 100 100 l 25
 100 600 l 25
 150 600 l 25
 150 700 l 25
 400 700 l 25
 400 400 l 25
 550 400 l 25
 550 300 l 25
 600 300 l 25
 600 50 l 25
 550 50 l 25
 550 0 l 25
 300 0 l 25
 300 600 l 25
 200 600 l 25
 200 100 l 25
 150 100 l 25
 150 0 l 25
 50 0 l 25
EndSplineSet
EndChar

StartChar: uni040A
Encoding: 1034 1034 106
Width: 600
Flags: HW
LayerCount: 2
Back
Fore
SplineSet
50 700 m 29
 150 700 l 25
 150 400 l 25
 300 400 l 25
 300 700 l 25
 400 700 l 25
 400 400 l 25
 550 400 l 25
 550 300 l 25
 600 300 l 25
 600 50 l 25
 550 50 l 25
 550 0 l 25
 300 0 l 25
 300 300 l 25
 150 300 l 25
 150 0 l 25
 50 0 l 25
 50 700 l 29
EndSplineSet
Validated: 1
EndChar

StartChar: uni040B
Encoding: 1035 1035 107
Width: 600
Flags: HW
LayerCount: 2
Back
Fore
SplineSet
50 600 m 29
 50 700 l 25
 450 700 l 25
 450 600 l 25
 300 600 l 25
 300 400 l 25
 550 400 l 25
 550 300 l 25
 600 300 l 25
 600 0 l 25
 500 0 l 25
 500 300 l 25
 300 300 l 25
 300 0 l 25
 200 0 l 25
 200 600 l 25
 50 600 l 29
EndSplineSet
Validated: 1
EndChar

StartChar: uni040C
Encoding: 1036 1036 108
Width: 600
Flags: HW
LayerCount: 2
Back
Fore
SplineSet
100 0 m 29
 100 600 l 25
 200 600 l 25
 200 400 l 25
 250 400 l 25
 250 500 l 25
 350 500 l 25
 350 600 l 25
 500 600 l 25
 500 500 l 25
 400 500 l 25
 400 400 l 25
 300 400 l 25
 300 200 l 25
 400 200 l 25
 400 100 l 25
 500 100 l 25
 500 0 l 25
 350 0 l 25
 350 100 l 25
 250 100 l 25
 250 200 l 25
 200 200 l 25
 200 0 l 25
 100 0 l 29
250 600 m 25
 250 700 l 25
 300 700 l 25
 300 800 l 25
 400 800 l 25
 400 700 l 25
 350 700 l 25
 350 600 l 25
 250 600 l 25
EndSplineSet
Validated: 5
EndChar

StartChar: uni040E
Encoding: 1038 1038 109
Width: 600
Flags: HW
LayerCount: 2
Back
Fore
SplineSet
300 700 m 29
 300 800 l 25
 350 800 l 25
 350 700 l 25
 300 700 l 29
100 700 m 25
 200 700 l 25
 200 400 l 25
 450 400 l 25
 450 700 l 25
 550 700 l 25
 550 100 l 25
 500 100 l 25
 500 0 l 25
 150 0 l 25
 150 100 l 25
 100 100 l 25
 100 200 l 25
 200 200 l 25
 200 100 l 25
 450 100 l 25
 450 300 l 25
 150 300 l 25
 150 400 l 25
 100 400 l 25
 100 700 l 25
EndSplineSet
Validated: 1
EndChar

StartChar: uni040F
Encoding: 1039 1039 110
Width: 600
Flags: HW
LayerCount: 2
Back
Fore
SplineSet
100 0 m 29
 100 700 l 25
 200 700 l 25
 200 100 l 25
 500 100 l 25
 500 700 l 25
 600 700 l 25
 600 0 l 25
 400 0 l 25
 400 -200 l 25
 300 -200 l 25
 300 0 l 25
 100 0 l 29
EndSplineSet
Validated: 1
EndChar

StartChar: uni0410
Encoding: 1040 1040 111
Width: 600
Flags: HW
LayerCount: 2
Back
Fore
SplineSet
150 400 m 29
 150 300 l 25
 450 300 l 25
 450 400 l 25
 400 400 l 25
 400 500 l 25
 350 500 l 25
 350 600 l 25
 250 600 l 25
 250 500 l 25
 200 500 l 25
 200 400 l 25
 150 400 l 29
150 0 m 25
 50 0 l 25
 50 400 l 25
 100 400 l 25
 100 500 l 25
 150 500 l 25
 150 600 l 25
 200 600 l 25
 200 700 l 25
 399 700 l 25
 400 600 l 25
 450 600 l 25
 450 500 l 25
 500 500 l 25
 500 400 l 25
 550 400 l 25
 550 0 l 25
 450 0 l 25
 450 200 l 25
 150 200 l 25
 150 0 l 25
EndSplineSet
Validated: 1
EndChar

StartChar: uni0411
Encoding: 1041 1041 112
Width: 600
Flags: HW
LayerCount: 2
Back
Fore
SplineSet
200 100 m 29
 450 100 l 25
 450 300 l 25
 200 300 l 25
 200 100 l 29
100 700 m 25
 500 700 l 25
 500 600 l 25
 200 600 l 25
 200 400 l 25
 500 400 l 25
 500 300 l 25
 550 300 l 25
 550 100 l 25
 500 100 l 25
 500 0 l 25
 100 0 l 25
 100 700 l 25
EndSplineSet
Validated: 1
EndChar

StartChar: uni0412
Encoding: 1042 1042 113
Width: 600
Flags: HW
LayerCount: 2
Back
Fore
SplineSet
200 600 m 29
 200 400 l 25
 450 400 l 25
 450 600 l 25
 200 600 l 29
200 300 m 25
 200 100 l 25
 450 100 l 25
 450 300 l 25
 200 300 l 25
100 0 m 25
 100 700 l 25
 500 700 l 25
 500 600 l 25
 550 600 l 25
 550 400 l 25
 500 400 l 25
 500 300 l 25
 550 300 l 25
 550 100 l 25
 500 100 l 25
 500 0 l 25
 100 0 l 25
EndSplineSet
Validated: 1
EndChar

StartChar: uni0413
Encoding: 1043 1043 114
Width: 600
Flags: HW
LayerCount: 2
Back
Fore
SplineSet
100 700 m 29
 550 700 l 25
 550 600 l 25
 200 600 l 25
 200 0 l 25
 100 0 l 25
 100 700 l 29
EndSplineSet
Validated: 1
EndChar

StartChar: uni0414
Encoding: 1044 1044 115
Width: 600
Flags: HW
LayerCount: 2
Back
Fore
SplineSet
300 600 m 29
 300 500 l 25
 250 500 l 25
 250 100 l 25
 400 100 l 25
 400 600 l 25
 300 600 l 29
200 500 m 25
 200 600 l 25
 250 600 l 25
 250 700 l 25
 500 700 l 25
 500 100 l 25
 550 100 l 25
 550 -100 l 25
 450 -100 l 25
 450 0 l 25
 200 0 l 25
 200 -100 l 25
 100 -100 l 25
 100 100 l 25
 150 100 l 25
 150 500 l 25
 200 500 l 25
EndSplineSet
Validated: 1
EndChar

StartChar: uni0415
Encoding: 1045 1045 116
Width: 600
Flags: HW
LayerCount: 2
Back
Fore
SplineSet
550 600 m 29
 200 600 l 29
 200 400 l 29
 450 400 l 29
 450 300 l 29
 200 300 l 29
 200 100 l 29
 550 100 l 29
 550 0 l 29
 100 0 l 29
 100 700 l 29
 550 700 l 29
 550 600 l 29
EndSplineSet
Validated: 1
EndChar

StartChar: uni0416
Encoding: 1046 1046 117
Width: 600
Flags: HW
LayerCount: 2
Back
Fore
SplineSet
50 700 m 29
 149 700 l 25
 150 500 l 25
 199 500 l 25
 200 400 l 25
 250 400 l 25
 250 700 l 25
 350 700 l 25
 350 400 l 25
 400 400 l 25
 400 500 l 25
 450 500 l 25
 450 700 l 25
 550 700 l 25
 550 500 l 25
 500 500 l 25
 500 400 l 25
 450 400 l 25
 449 300 l 25
 500 300 l 25
 500 200 l 25
 550 200 l 25
 550 0 l 25
 450 0 l 25
 450 200 l 25
 400 200 l 25
 400 300 l 25
 350 300 l 25
 350 0 l 25
 250 0 l 25
 250 300 l 25
 200 300 l 25
 200 200 l 25
 150 200 l 25
 150 0 l 25
 50 0 l 25
 50 200 l 25
 100 200 l 25
 100 300 l 25
 150 300 l 25
 150 400 l 25
 100 400 l 25
 100 500 l 25
 50 500 l 25
 50 700 l 29
EndSplineSet
Validated: 1
EndChar

StartChar: uni0417
Encoding: 1047 1047 118
Width: 600
Flags: HW
LayerCount: 2
Back
Fore
SplineSet
100 500 m 29
 100 600 l 1
 150 600 l 25
 150 700 l 25
 500 700 l 25
 500 600 l 25
 550 600 l 25
 550 400 l 25
 500 400 l 25
 500 300 l 25
 550 300 l 25
 550 100 l 25
 500 100 l 25
 500 0 l 25
 150 0 l 25
 150 100 l 25
 100 100 l 25
 100 200 l 25
 199 200 l 25
 200 100 l 25
 450 100 l 25
 450 300 l 25
 250 300 l 25
 250 400 l 25
 450 400 l 25
 450 600 l 25
 200 600 l 25
 200 500 l 1
 100 500 l 29
EndSplineSet
Validated: 1
EndChar

StartChar: uni0418
Encoding: 1048 1048 119
Width: 600
Flags: HW
LayerCount: 2
Back
Fore
SplineSet
50 700 m 29
 150 700 l 29
 150 200 l 29
 200 200 l 29
 200 300 l 29
 250 300 l 29
 250 400 l 29
 300 400 l 29
 300 500 l 29
 350 500 l 29
 350 600 l 29
 400 600 l 29
 400 700 l 29
 550 700 l 29
 550 0 l 29
 450 0 l 29
 450 500 l 29
 400 500 l 29
 400 400 l 29
 350 400 l 29
 350 300 l 29
 300 300 l 29
 300 200 l 29
 250 200 l 29
 250 100 l 29
 200 100 l 29
 200 0 l 29
 50 0 l 29
 50 700 l 29
EndSplineSet
Validated: 1
EndChar

StartChar: uni0419
Encoding: 1049 1049 120
Width: 600
Flags: HW
LayerCount: 2
Back
Fore
SplineSet
250 700 m 29
 250 800 l 25
 300 800 l 25
 300 700 l 25
 250 700 l 29
50 700 m 25
 150 700 l 25
 150 200 l 25
 200 200 l 25
 200 300 l 25
 250 300 l 25
 250 400 l 25
 300 400 l 25
 300 500 l 25
 350 500 l 25
 350 600 l 25
 400 600 l 25
 400 700 l 25
 550 700 l 25
 550 0 l 25
 450 0 l 25
 450 500 l 25
 400 500 l 25
 400 400 l 25
 350 400 l 25
 350 300 l 25
 300 300 l 25
 300 200 l 25
 250 200 l 25
 250 100 l 25
 200 100 l 25
 200 0 l 25
 50 0 l 25
 50 700 l 25
EndSplineSet
Validated: 1
EndChar

StartChar: uni041A
Encoding: 1050 1050 121
Width: 600
Flags: HW
LayerCount: 2
Back
Fore
SplineSet
100 700 m 29
 200 700 l 25
 200 400 l 25
 250 400 l 25
 250 500 l 25
 350 500 l 25
 350 600 l 25
 400 600 l 25
 400 700 l 25
 550 700 l 25
 550 600 l 25
 450 600 l 25
 450 500 l 25
 400 500 l 25
 400 400 l 25
 300 400 l 25
 300 300 l 25
 400 300 l 25
 400 200 l 25
 450 200 l 25
 450 100 l 25
 550 100 l 25
 550 0 l 25
 400 0 l 25
 400 100 l 25
 350 100 l 25
 350 200 l 25
 250 200 l 25
 250 300 l 25
 200 300 l 25
 200 0 l 25
 100 0 l 25
 100 700 l 29
EndSplineSet
Validated: 1
EndChar

StartChar: uni041B
Encoding: 1051 1051 122
Width: 600
Flags: HW
LayerCount: 2
Back
Fore
SplineSet
100 0 m 29
 100 100 l 25
 150 100 l 25
 150 200 l 25
 200 200 l 25
 200 600 l 25
 250 600 l 25
 250 700 l 25
 550 700 l 25
 550 0 l 25
 450 0 l 25
 450 600 l 25
 300 600 l 25
 300 200 l 25
 250 200 l 25
 250 100 l 25
 200 100 l 25
 200 0 l 25
 100 0 l 29
EndSplineSet
Validated: 1
EndChar

StartChar: uni041C
Encoding: 1052 1052 123
Width: 600
Flags: HW
LayerCount: 2
Back
Fore
SplineSet
150 0 m 29
 50 0 l 25
 50 700 l 25
 200 700 l 25
 200 600 l 25
 250 600 l 25
 250 500 l 25
 350 500 l 25
 350 600 l 25
 400 600 l 25
 400 700 l 25
 550 700 l 25
 550 0 l 25
 450 0 l 25
 450 500 l 25
 400 500 l 25
 400 400 l 25
 350 400 l 25
 350 300 l 25
 250 300 l 25
 250 400 l 25
 200 400 l 25
 200 500 l 25
 150 500 l 25
 150 0 l 29
EndSplineSet
Validated: 1
EndChar

StartChar: uni041D
Encoding: 1053 1053 124
Width: 600
Flags: HW
LayerCount: 2
Back
Fore
SplineSet
100 700 m 29
 200 700 l 25
 200 400 l 25
 450 400 l 25
 450 700 l 25
 550 700 l 25
 550 0 l 25
 450 0 l 25
 450 300 l 25
 200 300 l 25
 200 0 l 25
 100 0 l 25
 100 700 l 29
EndSplineSet
Validated: 1
EndChar

StartChar: uni041E
Encoding: 1054 1054 125
Width: 600
Flags: HW
LayerCount: 2
Back
Fore
SplineSet
400 100 m 29
 400 200 l 25
 450 200 l 25
 450 500 l 25
 400 500 l 25
 400 600 l 25
 200 600 l 25
 200 500 l 25
 150 500 l 25
 150 200 l 25
 200 200 l 25
 200 100 l 25
 400 100 l 29
450 0 m 25
 150 0 l 25
 150 100 l 25
 100 100 l 25
 100 200 l 25
 50 200 l 25
 50 500 l 25
 100 500 l 25
 100 600 l 25
 150 600 l 25
 150 700 l 25
 450 700 l 25
 450 600 l 25
 500 600 l 25
 500 500 l 25
 550 500 l 25
 550 200 l 25
 500 200 l 25
 500 100 l 25
 450 100 l 25
 450 0 l 25
EndSplineSet
Validated: 1
EndChar

StartChar: uni041F
Encoding: 1055 1055 126
Width: 600
Flags: HW
LayerCount: 2
Back
Fore
SplineSet
100 700 m 29
 550 700 l 25
 550 0 l 25
 450 0 l 25
 450 600 l 25
 200 600 l 25
 200 0 l 25
 100 0 l 25
 100 700 l 29
EndSplineSet
Validated: 1
EndChar

StartChar: uni0420
Encoding: 1056 1056 127
Width: 600
Flags: HW
LayerCount: 2
Back
Fore
SplineSet
200 600 m 29
 200 400 l 25
 450 400 l 25
 450 600 l 25
 200 600 l 29
100 700 m 25
 500 700 l 25
 500 650 l 25
 550 650 l 25
 550 400 l 25
 500 400 l 25
 500 300 l 25
 200 300 l 25
 200 0 l 25
 100 0 l 25
 100 700 l 25
EndSplineSet
Validated: 1
EndChar

StartChar: uni0421
Encoding: 1057 1057 128
Width: 600
Flags: HW
LayerCount: 2
Back
Fore
SplineSet
200 700 m 29
 500 700 l 25
 500 600 l 25
 550 600 l 25
 550 500 l 25
 450 500 l 25
 450 600 l 25
 250 600 l 25
 250 500 l 25
 200 500 l 25
 200 200 l 25
 250 200 l 25
 250 100 l 25
 450 100 l 25
 450 200 l 25
 550 200 l 25
 550 100 l 25
 500 100 l 25
 500 0 l 25
 200 0 l 25
 200 100 l 25
 150 100 l 25
 150 200 l 25
 100 200 l 25
 100 500 l 25
 150 500 l 25
 150 600 l 25
 200 600 l 25
 200 700 l 29
EndSplineSet
Validated: 1
EndChar

StartChar: uni0422
Encoding: 1058 1058 129
Width: 600
Flags: HW
LayerCount: 2
Back
Fore
SplineSet
50 700 m 1
 550 700 l 5
 550 600 l 1
 350 600 l 1
 350 0 l 25
 250 0 l 25
 250 600 l 1
 50 600 l 1
 50 700 l 1
EndSplineSet
Validated: 1
EndChar

StartChar: uni0423
Encoding: 1059 1059 130
Width: 600
Flags: HW
LayerCount: 2
Back
Fore
SplineSet
100 700 m 29
 200 700 l 25
 200 400 l 25
 450 400 l 25
 450 700 l 25
 550 700 l 25
 550 100 l 25
 500 100 l 25
 500 0 l 25
 150 0 l 25
 150 100 l 25
 100 100 l 25
 100 200 l 25
 200 200 l 25
 200 100 l 25
 450 100 l 25
 450 300 l 25
 150 300 l 25
 150 400 l 25
 100 400 l 25
 100 700 l 29
EndSplineSet
Validated: 1
EndChar

StartChar: uni0424
Encoding: 1060 1060 131
Width: 600
Flags: HW
LayerCount: 2
Back
Fore
SplineSet
350 500 m 29
 350 200 l 25
 450 200 l 25
 450 500 l 25
 350 500 l 29
150 500 m 25
 150 200 l 25
 250 200 l 25
 250 500 l 25
 150 500 l 25
250 600 m 25
 250 700 l 1
 350 700 l 25
 350 600 l 25
 500 600 l 25
 500 500 l 25
 550 500 l 25
 550 200 l 25
 500 200 l 25
 500 100 l 25
 350 100 l 25
 350 0 l 25
 250 0 l 25
 250 100 l 25
 100 100 l 25
 100 200 l 25
 50 200 l 25
 50 500 l 25
 100 500 l 25
 100 600 l 1
 250 600 l 25
EndSplineSet
Validated: 1
EndChar

StartChar: uni0425
Encoding: 1061 1061 132
Width: 600
Flags: HW
LayerCount: 2
Back
Fore
SplineSet
100 700 m 29
 200 700 l 25
 200 600 l 25
 250 600 l 25
 250 500 l 25
 350 500 l 25
 350 600 l 25
 400 600 l 25
 400 700 l 25
 500 700 l 25
 500 600 l 25
 450 600 l 25
 450 500 l 25
 400 500 l 25
 400 400 l 25
 350 400 l 25
 350 300 l 25
 400 300 l 25
 400 200 l 25
 450 200 l 25
 450 100 l 25
 500 100 l 25
 500 0 l 25
 400 0 l 25
 400 100 l 25
 350 100 l 25
 350 200 l 25
 250 200 l 25
 250 100 l 25
 200 100 l 25
 200 0 l 25
 100 0 l 25
 100 100 l 25
 150 100 l 25
 150 200 l 25
 200 200 l 25
 200 300 l 25
 250 300 l 25
 250 400 l 25
 200 400 l 25
 200 500 l 25
 150 500 l 25
 150 600 l 25
 100 600 l 25
 100 700 l 29
EndSplineSet
Validated: 1
EndChar

StartChar: uni0426
Encoding: 1062 1062 133
Width: 600
Flags: HW
LayerCount: 2
Back
Fore
SplineSet
100 700 m 29
 200 700 l 25
 200 100 l 25
 350 100 l 25
 350 700 l 25
 450 700 l 25
 450 100 l 25
 550 100 l 25
 550 -100 l 25
 450 -100 l 25
 450 0 l 25
 100 0 l 25
 100 700 l 29
EndSplineSet
Validated: 1
EndChar

StartChar: uni0427
Encoding: 1063 1063 134
Width: 600
Flags: HW
LayerCount: 2
Back
Fore
SplineSet
100 700 m 29
 200 700 l 25
 200 500 l 25
 250 500 l 25
 250 400 l 25
 450 400 l 25
 450 700 l 25
 550 700 l 25
 550 0 l 25
 450 0 l 25
 450 300 l 25
 200 300 l 25
 200 400 l 25
 150 400 l 25
 150 500 l 25
 100 500 l 25
 100 700 l 29
EndSplineSet
Validated: 1
EndChar

StartChar: uni0428
Encoding: 1064 1064 135
Width: 600
Flags: HW
LayerCount: 2
Back
Fore
SplineSet
50 700 m 29
 150 700 l 25
 150 100 l 25
 250 100 l 25
 250 700 l 25
 350 700 l 25
 350 100 l 25
 450 100 l 25
 450 700 l 25
 550 700 l 25
 550 0 l 25
 50 0 l 25
 50 700 l 29
EndSplineSet
Validated: 1
EndChar

StartChar: uni0429
Encoding: 1065 1065 136
Width: 600
Flags: HW
LayerCount: 2
Back
Fore
SplineSet
50 700 m 29
 150 700 l 25
 150 100 l 25
 250 100 l 25
 250 700 l 25
 350 700 l 25
 350 100 l 25
 450 100 l 25
 450 700 l 25
 550 700 l 25
 550 100 l 25
 600 100 l 25
 600 -100 l 25
 500 -100 l 25
 500 0 l 25
 50 0 l 25
 50 700 l 29
EndSplineSet
Validated: 1
EndChar

StartChar: uni042A
Encoding: 1066 1066 137
Width: 600
Flags: HW
LayerCount: 2
Back
Fore
SplineSet
250 300 m 29
 250 100 l 25
 450 100 l 25
 450 300 l 25
 250 300 l 29
50 700 m 25
 250 700 l 25
 250 400 l 25
 500 400 l 25
 500 300 l 25
 550 300 l 25
 550 100 l 25
 500 100 l 25
 500 0 l 25
 150 0 l 25
 150 600 l 25
 50 600 l 25
 50 700 l 25
EndSplineSet
Validated: 1
EndChar

StartChar: uni042B
Encoding: 1067 1067 138
Width: 600
Flags: HW
LayerCount: 2
Back
Fore
SplineSet
300 300 m 29
 150 300 l 25
 150 100 l 25
 300 100 l 25
 300 300 l 29
450 700 m 25
 550 700 l 25
 550 0 l 25
 450 0 l 25
 450 700 l 25
50 700 m 25
 150 700 l 25
 150 400 l 25
 350 400 l 25
 350 300 l 25
 400 300 l 25
 400 100 l 25
 350 100 l 25
 350 0 l 25
 50 0 l 25
 50 700 l 25
EndSplineSet
Validated: 1
EndChar

StartChar: uni042C
Encoding: 1068 1068 139
Width: 600
Flags: HW
LayerCount: 2
Back
Fore
SplineSet
250 100 m 29
 450 100 l 25
 450 300 l 25
 250 300 l 25
 250 100 l 29
150 700 m 25
 249 700 l 25
 249 400 l 25
 500 400 l 25
 500 300 l 25
 548 300 l 25
 550 101 l 25
 500 100 l 25
 500 0 l 25
 150 0 l 25
 150 700 l 25
EndSplineSet
Validated: 1
EndChar

StartChar: uni042D
Encoding: 1069 1069 140
Width: 600
Flags: HW
LayerCount: 2
Back
Fore
SplineSet
100 500 m 29
 100 600 l 25
 150 600 l 25
 150 700 l 25
 450 700 l 25
 450 600 l 25
 500 600 l 25
 500 500 l 25
 550 500 l 25
 550 200 l 25
 500 200 l 25
 500 100 l 25
 450 100 l 25
 450 0 l 25
 150 0 l 25
 150 100 l 25
 100 100 l 25
 100 200 l 25
 200 200 l 25
 200 100 l 25
 400 100 l 25
 400 200 l 25
 450 200 l 25
 450 300 l 25
 250 300 l 25
 250 400 l 25
 450 400 l 25
 450 500 l 25
 400 500 l 25
 400 600 l 25
 200 600 l 25
 200 500 l 25
 100 500 l 29
EndSplineSet
Validated: 1
EndChar

StartChar: uni042E
Encoding: 1070 1070 141
Width: 600
Flags: HW
LayerCount: 2
Back
Fore
SplineSet
350 600 m 29
 350 100 l 25
 450 100 l 25
 450 600 l 25
 350 600 l 29
100 700 m 25
 200 700 l 25
 200 400 l 25
 250 400 l 25
 250 600 l 25
 300 600 l 25
 300 700 l 25
 500 700 l 25
 500 600 l 25
 550 600 l 25
 550 100 l 25
 500 100 l 25
 500 0 l 25
 300 0 l 25
 300 100 l 25
 250 100 l 25
 250 300 l 25
 200 300 l 25
 200 0 l 25
 100 0 l 25
 100 700 l 25
EndSplineSet
Validated: 1
EndChar

StartChar: uni042F
Encoding: 1071 1071 142
Width: 600
Flags: HW
LayerCount: 2
Back
Fore
SplineSet
200 600 m 29
 200 400 l 25
 450 400 l 25
 450 600 l 25
 200 600 l 29
150 700 m 25
 550 700 l 25
 550 0 l 25
 450 0 l 25
 450 200 l 25
 350 200 l 25
 350 100 l 25
 300 100 l 25
 300 0 l 25
 100 0 l 25
 100 100 l 25
 200 100 l 25
 200 200 l 25
 300 200 l 25
 300 300 l 25
 150 300 l 25
 150 400 l 25
 100 400 l 25
 100 600 l 25
 150 600 l 25
 150 700 l 25
EndSplineSet
Validated: 1
EndChar

StartChar: uni0430
Encoding: 1072 1072 143
Width: 600
Flags: HW
LayerCount: 2
Back
Fore
SplineSet
150 200 m 29
 150 100 l 25
 400 100 l 25
 400 200 l 25
 150 200 l 29
100 500 m 25
 450 500 l 25
 450 400 l 25
 500 400 l 25
 500 100 l 25
 549 100 l 25
 550 0 l 25
 100 0 l 25
 100 100 l 25
 50 100 l 25
 50 200 l 25
 100 200 l 25
 100 300 l 25
 400 300 l 25
 400 400 l 25
 100 400 l 25
 100 500 l 25
EndSplineSet
Validated: 1
EndChar

StartChar: uni0431
Encoding: 1073 1073 144
Width: 600
Flags: HW
LayerCount: 2
Back
Fore
SplineSet
200 300 m 29
 200 100 l 25
 450 100 l 25
 450 300 l 25
 200 300 l 29
150 700 m 25
 550 700 l 25
 550 600 l 25
 300 600 l 25
 300 500 l 25
 450 500 l 25
 450 400 l 25
 500 400 l 25
 500 300 l 25
 550 300 l 25
 550 100 l 25
 500 100 l 25
 500 0 l 25
 150 0 l 25
 150 100 l 25
 100 100 l 25
 100 300 l 25
 150 300 l 25
 150 400 l 25
 300 400 l 25
 300 500 l 25
 200 500 l 25
 200 600 l 25
 150 600 l 25
 150 700 l 25
EndSplineSet
Validated: 5
EndChar

StartChar: uni0432
Encoding: 1074 1074 145
Width: 600
Flags: HW
LayerCount: 2
Back
Fore
SplineSet
200 200 m 29
 200 100 l 25
 450 100 l 25
 450 200 l 25
 200 200 l 29
200 400 m 25
 200 300 l 25
 450 300 l 25
 450 400 l 25
 200 400 l 25
100 500 m 25
 500 500 l 25
 500 400 l 25
 550 400 l 25
 550 300 l 25
 500 300 l 25
 500 200 l 25
 550 200 l 25
 550 100 l 25
 500 100 l 25
 500 0 l 25
 100 0 l 25
 100 500 l 25
EndSplineSet
Validated: 1
EndChar

StartChar: uni0433
Encoding: 1075 1075 146
Width: 600
Flags: HW
LayerCount: 2
Back
Fore
SplineSet
100 0 m 29
 100 500 l 25
 550 500 l 25
 550 401 l 25
 200 400 l 25
 200 0 l 25
 100 0 l 29
EndSplineSet
Validated: 1
EndChar

StartChar: uni0434
Encoding: 1076 1076 147
Width: 600
Flags: HW
LayerCount: 2
Back
Fore
SplineSet
250 400 m 29
 250 100 l 25
 350 100 l 25
 350 400 l 25
 250 400 l 29
200 500 m 25
 450 500 l 25
 450 100 l 25
 550 100 l 25
 550 -100 l 25
 450 -100 l 25
 450 0 l 25
 149 -1 l 25
 150 -100 l 25
 50 -100 l 25
 50 100 l 25
 150 100 l 25
 150 400 l 25
 200 400 l 25
 200 500 l 25
EndSplineSet
Validated: 1
EndChar

StartChar: uni0435
Encoding: 1077 1077 148
Width: 600
Flags: HW
LayerCount: 2
Back
Fore
SplineSet
200 400 m 1
 200 300 l 1
 450 300 l 1
 450 400 l 1
 200 400 l 1
150 400 m 1
 150 500 l 1
 499 500 l 1
 500 400 l 25
 550 400 l 25
 550 200 l 1
 200 200 l 1
 200 100 l 1
 500 100 l 1
 500 0 l 1
 150 0 l 1
 150 100 l 1
 100 100 l 1
 100 400 l 5
 150 400 l 1
EndSplineSet
Validated: 1
EndChar

StartChar: uni0436
Encoding: 1078 1078 149
Width: 600
Flags: HW
LayerCount: 2
Back
Fore
SplineSet
50 500 m 29
 150 500 l 25
 150 400 l 25
 200 400 l 25
 200 300 l 25
 250 300 l 25
 250 500 l 25
 350 500 l 25
 350 300 l 25
 400 300 l 25
 400 400 l 25
 450 400 l 25
 450 500 l 25
 550 500 l 25
 550 400 l 25
 500 400 l 25
 500 300 l 25
 450 300 l 25
 450 200 l 25
 500 200 l 25
 500 100 l 25
 550 100 l 25
 550 0 l 25
 450 0 l 25
 450 100 l 25
 400 100 l 25
 400 200 l 25
 350 200 l 25
 350 0 l 25
 250 0 l 25
 250 200 l 25
 200 200 l 25
 200 100 l 25
 150 100 l 25
 150 0 l 25
 50 0 l 25
 50 100 l 25
 100 100 l 25
 100 200 l 25
 150 200 l 25
 150 300 l 25
 100 300 l 25
 100 400 l 25
 50 400 l 25
 50 500 l 29
EndSplineSet
Validated: 1
EndChar

StartChar: uni0437
Encoding: 1079 1079 150
Width: 600
Flags: HW
LayerCount: 2
Back
Fore
SplineSet
100 400 m 29
 150 400 l 1
 150 500 l 25
 500 500 l 25
 500 400 l 25
 550 400 l 25
 550 300 l 25
 500 300 l 25
 500 200 l 25
 550 200 l 25
 550 100 l 25
 500 100 l 25
 500 0 l 25
 150 0 l 25
 150 100 l 25
 100 100 l 25
 100 200 l 25
 200 200 l 25
 200 100 l 25
 450 100 l 25
 450 200 l 25
 300 200 l 25
 300 300 l 25
 450 300 l 25
 450 400 l 25
 200 400 l 25
 200 300 l 25
 100 300 l 1
 100 400 l 29
EndSplineSet
Validated: 1
EndChar

StartChar: uni0438
Encoding: 1080 1080 151
Width: 600
Flags: HW
LayerCount: 2
Back
Fore
SplineSet
100 0 m 29
 100 500 l 5
 200 500 l 29
 200 100 l 29
 250 100 l 29
 250 200 l 29
 300 200 l 29
 300 300 l 29
 350 300 l 29
 350 400 l 29
 400 400 l 29
 400 500 l 29
 550 500 l 29
 550 0 l 29
 450 0 l 29
 450 400 l 29
 400 400 l 29
 400 300 l 29
 350 300 l 29
 350 200 l 29
 300 200 l 29
 300 100 l 29
 250 100 l 29
 250 0 l 5
 100 0 l 29
EndSplineSet
Validated: 5
EndChar

StartChar: uni0439
Encoding: 1081 1081 152
Width: 600
Flags: HW
LayerCount: 2
Back
Fore
SplineSet
150 800 m 29
 250 800 l 29
 250 700 l 29
 400 700 l 29
 400 800 l 29
 500 800 l 29
 500 700 l 29
 450 700 l 29
 450 600 l 29
 200 600 l 29
 200 700 l 29
 150 700 l 29
 150 800 l 29
100 0 m 25
 100 500 l 1
 200 500 l 25
 200 100 l 25
 250 100 l 25
 250 200 l 25
 300 200 l 25
 300 300 l 25
 350 300 l 25
 350 400 l 25
 400 400 l 25
 400 500 l 25
 550 500 l 25
 550 0 l 25
 450 0 l 25
 450 400 l 25
 400 400 l 25
 400 300 l 25
 350 300 l 25
 350 200 l 25
 300 200 l 25
 300 100 l 25
 250 100 l 25
 250 0 l 1
 100 0 l 25
EndSplineSet
Validated: 5
EndChar

StartChar: uni043A
Encoding: 1082 1082 153
Width: 600
Flags: HW
LayerCount: 2
Back
Fore
SplineSet
100 500 m 29
 200 500 l 25
 200 300 l 25
 350 300 l 25
 350 400 l 25
 400 400 l 25
 400 500 l 25
 550 500 l 25
 550 400 l 25
 450 400 l 25
 450 300 l 25
 400 300 l 25
 400 200 l 25
 450 200 l 25
 450 100 l 25
 550 100 l 25
 550 0 l 25
 400 0 l 25
 400 100 l 25
 350 100 l 25
 350 200 l 25
 200 200 l 25
 200 0 l 25
 100 0 l 25
 100 500 l 29
EndSplineSet
Validated: 1
EndChar

StartChar: uni043B
Encoding: 1083 1083 154
Width: 600
Flags: HW
LayerCount: 2
Back
Fore
SplineSet
100 100 m 29
 150 100 l 25
 150 400 l 25
 200 400 l 25
 200 500 l 25
 550 500 l 25
 550 0 l 25
 450 0 l 25
 450 400 l 25
 250 400 l 25
 250 100 l 25
 200 100 l 25
 200 0 l 25
 100 0 l 25
 100 100 l 29
EndSplineSet
Validated: 1
EndChar

StartChar: uni043C
Encoding: 1084 1084 155
Width: 600
Flags: HW
LayerCount: 2
Back
Fore
SplineSet
100 0 m 29
 100 500 l 25
 250 500 l 25
 250 400 l 25
 300 400 l 25
 300 300 l 25
 350 300 l 25
 350 400 l 25
 400 400 l 25
 400 500 l 25
 550 500 l 25
 550 0 l 25
 450 0 l 25
 450 300 l 25
 400 300 l 25
 400 200 l 25
 350 200 l 25
 350 100 l 25
 300 100 l 25
 300 200 l 25
 250 200 l 25
 250 300 l 25
 200 300 l 25
 200 0 l 25
 100 0 l 29
EndSplineSet
Validated: 1
EndChar

StartChar: uni043D
Encoding: 1085 1085 156
Width: 600
Flags: HW
LayerCount: 2
Back
Fore
SplineSet
100 500 m 25
 200 500 l 25
 200 300 l 1
 400 300 l 1
 400 500 l 5
 500 500 l 1
 500 0 l 1
 400 0 l 1
 400 200 l 1
 200 200 l 1
 200 0 l 25
 100 0 l 25
 100 500 l 25
EndSplineSet
Validated: 1
EndChar

StartChar: uni043E
Encoding: 1086 1086 157
Width: 600
Flags: HW
LayerCount: 2
Back
Fore
SplineSet
200 400 m 29
 200 100 l 25
 450 100 l 25
 450 400 l 25
 200 400 l 29
150 500 m 25
 500 500 l 25
 500 400 l 25
 550 400 l 25
 550 100 l 25
 500 100 l 25
 500 0 l 25
 150 0 l 25
 150 100 l 25
 100 100 l 25
 100 400 l 25
 150 400 l 25
 150 500 l 25
EndSplineSet
Validated: 1
EndChar

StartChar: uni043F
Encoding: 1087 1087 158
Width: 600
Flags: HW
LayerCount: 2
Back
Fore
SplineSet
100 0 m 29
 100 500 l 25
 550 500 l 25
 550 0 l 25
 450 0 l 25
 450 400 l 25
 200 400 l 25
 200 0 l 25
 100 0 l 29
EndSplineSet
Validated: 1
EndChar

StartChar: uni0440
Encoding: 1088 1088 159
Width: 600
Flags: HW
LayerCount: 2
Back
Fore
SplineSet
250 300 m 29
 200 300 l 25
 200 200 l 25
 250 200 l 25
 250 100 l 25
 450 100 l 25
 450 400 l 25
 250 400 l 25
 250 300 l 29
100 500 m 25
 200 500 l 25
 200 400 l 25
 250 400 l 25
 250 500 l 25
 500 500 l 25
 500 400 l 25
 550 400 l 25
 550 100 l 25
 500 100 l 25
 500 0 l 25
 250 0 l 25
 250 100 l 25
 200 100 l 25
 200 -200 l 25
 100 -200 l 25
 100 500 l 25
EndSplineSet
Validated: 5
EndChar

StartChar: uni0441
Encoding: 1089 1089 160
Width: 600
Flags: HW
LayerCount: 2
Back
Fore
SplineSet
200 500 m 29
 550 500 l 25
 550 400 l 25
 250 400 l 25
 250 300 l 25
 200 300 l 25
 200 200 l 25
 250 200 l 25
 250 100 l 25
 550 100 l 25
 550 0 l 25
 200 0 l 25
 200 100 l 25
 150 100 l 25
 150 200 l 25
 100 200 l 25
 100 300 l 25
 150 300 l 25
 150 400 l 25
 200 400 l 25
 200 500 l 29
EndSplineSet
Validated: 1
EndChar

StartChar: uni0442
Encoding: 1090 1090 161
Width: 600
Flags: HW
LayerCount: 2
Back
Fore
SplineSet
50 500 m 1
 550 500 l 1
 550 400 l 5
 350 400 l 1
 350 0 l 25
 250 0 l 25
 250 400 l 1
 50 400 l 1
 50 500 l 1
EndSplineSet
Validated: 1
EndChar

StartChar: uni0443
Encoding: 1091 1091 162
Width: 600
Flags: HW
LayerCount: 2
Back
Fore
SplineSet
100 500 m 29
 200 500 l 25
 200 400 l 25
 250 400 l 25
 250 300 l 25
 300 300 l 25
 300 200 l 25
 350 200 l 25
 350 300 l 25
 400 300 l 25
 400 400 l 25
 450 400 l 25
 450 500 l 25
 550 500 l 25
 550 400 l 25
 500 400 l 25
 500 300 l 25
 450 300 l 25
 450 200 l 25
 400 200 l 25
 400 100 l 25
 350 100 l 25
 350 0 l 25
 300 0 l 25
 300 -100 l 25
 250 -100 l 25
 250 -200 l 25
 100 -200 l 25
 100 -100 l 25
 200 -100 l 25
 200 0 l 25
 250 0 l 25
 250 200 l 25
 200 200 l 25
 200 300 l 25
 150 300 l 25
 150 400 l 25
 100 400 l 25
 100 500 l 29
EndSplineSet
Validated: 1
EndChar

StartChar: uni0444
Encoding: 1092 1092 163
Width: 600
Flags: HW
LayerCount: 2
Back
Fore
SplineSet
250 400 m 29
 150 400 l 25
 150 100 l 25
 250 100 l 25
 250 400 l 29
350 400 m 25
 350 100 l 25
 450 100 l 25
 450 400 l 25
 350 400 l 25
250 700 m 25
 350 700 l 25
 350 500 l 25
 500 500 l 25
 500 400 l 25
 550 400 l 25
 550 100 l 25
 500 100 l 25
 500 0 l 25
 350 0 l 25
 350 -200 l 25
 250 -200 l 25
 250 0 l 25
 100 0 l 25
 100 100 l 25
 50 100 l 25
 50 400 l 25
 100 400 l 25
 100 500 l 25
 250 500 l 25
 250 700 l 25
EndSplineSet
Validated: 1
EndChar

StartChar: uni0445
Encoding: 1093 1093 164
Width: 600
Flags: HW
LayerCount: 2
Back
Fore
SplineSet
50 500 m 29
 200 500 l 25
 200 400 l 25
 250 400 l 25
 250 300 l 25
 350 300 l 25
 350 400 l 25
 400 400 l 25
 400 500 l 25
 550 500 l 25
 550 400 l 25
 450 400 l 25
 450 300 l 25
 400 300 l 25
 400 200 l 25
 450 200 l 25
 450 100 l 25
 550 100 l 25
 550 0 l 25
 400 0 l 25
 400 100 l 25
 350 100 l 25
 350 200 l 25
 250 200 l 25
 250 100 l 25
 200 100 l 25
 200 0 l 25
 50 0 l 25
 50 100 l 25
 150 100 l 25
 150 200 l 25
 200 200 l 25
 200 300 l 25
 150 300 l 25
 150 400 l 25
 50 400 l 25
 50 500 l 29
EndSplineSet
Validated: 1
EndChar

StartChar: uni0446
Encoding: 1094 1094 165
Width: 600
Flags: HW
LayerCount: 2
Back
Fore
SplineSet
100 500 m 29
 200 500 l 25
 200 100 l 25
 350 100 l 25
 350 500 l 25
 450 500 l 25
 450 100 l 25
 550 100 l 25
 550 -100 l 25
 450 -100 l 25
 450 0 l 25
 100 0 l 25
 100 500 l 29
EndSplineSet
Validated: 1
EndChar

StartChar: uni0447
Encoding: 1095 1095 166
Width: 600
Flags: HW
LayerCount: 2
Back
Fore
SplineSet
100 500 m 29
 200 500 l 25
 200 300 l 25
 450 300 l 25
 450 500 l 25
 550 500 l 25
 550 0 l 25
 450 0 l 25
 450 200 l 25
 150 200 l 25
 150 300 l 25
 100 300 l 25
 100 500 l 29
EndSplineSet
Validated: 1
EndChar

StartChar: uni0448
Encoding: 1096 1096 167
Width: 600
Flags: HW
LayerCount: 2
Back
Fore
SplineSet
50 500 m 29
 150 500 l 25
 150 100 l 25
 250 100 l 25
 250 500 l 25
 350 500 l 25
 350 100 l 25
 450 100 l 25
 450 500 l 25
 550 500 l 25
 550 0 l 25
 50 0 l 25
 50 500 l 29
EndSplineSet
Validated: 1
EndChar

StartChar: uni0449
Encoding: 1097 1097 168
Width: 600
Flags: HW
LayerCount: 2
Back
Fore
SplineSet
50 500 m 29
 150 500 l 25
 150 100 l 25
 250 100 l 25
 250 500 l 25
 350 500 l 25
 350 100 l 25
 450 100 l 25
 450 500 l 25
 550 500 l 25
 550 100 l 25
 600 100 l 25
 600 -100 l 25
 500 -100 l 25
 500 0 l 25
 50 0 l 25
 50 500 l 29
EndSplineSet
Validated: 1
EndChar

StartChar: uni044A
Encoding: 1098 1098 169
Width: 600
Flags: HW
LayerCount: 2
Back
Fore
SplineSet
250 200 m 29
 250 100 l 25
 450 100 l 25
 450 200 l 25
 250 200 l 29
50 500 m 25
 250 500 l 25
 250 300 l 25
 500 300 l 25
 500 200 l 25
 550 200 l 25
 550 100 l 25
 500 100 l 25
 500 0 l 25
 150 0 l 25
 150 400 l 25
 50 400 l 25
 50 500 l 25
EndSplineSet
Validated: 1
EndChar

StartChar: uni044B
Encoding: 1099 1099 170
Width: 600
Flags: HW
LayerCount: 2
Back
Fore
SplineSet
450 0 m 29
 450 500 l 25
 550 500 l 25
 550 0 l 25
 450 0 l 29
150 200 m 25
 150 100 l 25
 300 100 l 25
 300 200 l 25
 150 200 l 25
50 500 m 25
 150 500 l 25
 150 300 l 25
 350 300 l 25
 350 200 l 25
 400 200 l 25
 400 100 l 25
 350 100 l 25
 350 0 l 25
 50 0 l 25
 50 500 l 25
EndSplineSet
Validated: 1
EndChar

StartChar: uni044C
Encoding: 1100 1100 171
Width: 600
Flags: HW
LayerCount: 2
Back
Fore
SplineSet
200 100 m 1
 450 100 l 1
 450 200 l 1
 200 200 l 1
 200 100 l 1
100 500 m 1
 200 500 l 1
 200 300 l 5
 500 300 l 1
 500 200 l 25
 550 200 l 25
 550 100 l 25
 500 100 l 25
 500 0 l 1
 100 0 l 1
 100 500 l 1
EndSplineSet
Validated: 1
EndChar

StartChar: uni044D
Encoding: 1101 1101 172
Width: 600
Flags: HW
LayerCount: 2
Back
Fore
SplineSet
100 300 m 29
 100 400 l 25
 150 400 l 25
 150 500 l 25
 500 500 l 25
 500 400 l 25
 550 400 l 25
 550 100 l 25
 500 100 l 25
 500 0 l 25
 150 0 l 25
 150 100 l 25
 100 100 l 25
 100 200 l 25
 200 200 l 25
 200 100 l 25
 450 100 l 25
 450 200 l 25
 300 200 l 25
 300 300 l 25
 450 300 l 25
 450 400 l 25
 200 400 l 25
 200 300 l 25
 100 300 l 29
EndSplineSet
Validated: 1
EndChar

StartChar: uni044E
Encoding: 1102 1102 173
Width: 600
Flags: HW
LayerCount: 2
Back
Fore
SplineSet
350 100 m 29
 450 100 l 25
 450 400 l 25
 350 400 l 25
 350 100 l 29
100 0 m 25
 100 500 l 25
 200 500 l 25
 200 300 l 25
 250 300 l 25
 250 400 l 25
 300 400 l 25
 300 500 l 25
 500 500 l 25
 500 400 l 25
 550 400 l 25
 550 100 l 25
 500 100 l 25
 500 0 l 25
 300 0 l 25
 300 100 l 25
 250 100 l 25
 250 200 l 25
 200 200 l 25
 200 0 l 25
 100 0 l 25
EndSplineSet
Validated: 1
EndChar

StartChar: uni044F
Encoding: 1103 1103 174
Width: 600
Flags: HW
LayerCount: 2
Back
Fore
SplineSet
150 400 m 29
 150 300 l 25
 400 300 l 25
 400 400 l 25
 150 400 l 29
50 400 m 25
 100 400 l 25
 100 500 l 25
 500 500 l 25
 500 0 l 25
 400 0 l 25
 400 200 l 25
 350 200 l 25
 350 100 l 25
 250 100 l 25
 250 0 l 25
 100 0 l 25
 100 100 l 25
 200 100 l 25
 200 200 l 25
 100 200 l 25
 100 300 l 25
 50 300 l 25
 50 400 l 25
EndSplineSet
Validated: 1
EndChar

StartChar: uni2116
Encoding: 8470 8470 175
Width: 600
Flags: HW
LayerCount: 2
Back
Fore
SplineSet
350 300 m 29
 600 300 l 25
 600 200 l 25
 350 200 l 25
 350 300 l 29
450 600 m 25
 450 500 l 25
 500 500 l 25
 500 600 l 25
 450 600 l 25
400 600 m 25
 400 700 l 25
 550 700 l 25
 550 600 l 25
 600 600 l 25
 600 500 l 25
 550 500 l 25
 550 400 l 25
 400 400 l 25
 400 500 l 25
 350 500 l 25
 350 600 l 25
 400 600 l 25
0 0 m 25
 0 700 l 25
 100 700 l 25
 100 600 l 25
 150 600 l 25
 150 400 l 25
 200 400 l 25
 200 700 l 25
 300 700 l 25
 300 0 l 25
 200 0 l 25
 200 100 l 25
 150 100 l 25
 150 250 l 25
 100 250 l 25
 100 0 l 25
 0 0 l 25
EndSplineSet
Validated: 1
EndChar

StartChar: asciitilde
Encoding: 126 126 176
Width: 600
Flags: HW
LayerCount: 2
Back
Fore
SplineSet
100 600 m 29
 150 600 l 25
 150 700 l 25
 350 700 l 25
 350 600 l 25
 450 600 l 25
 450 700 l 25
 550 700 l 25
 550 600 l 25
 500 600 l 25
 500 500 l 25
 300 500 l 25
 300 600 l 25
 200 600 l 25
 200 500 l 25
 100 501 l 25
 100 600 l 29
EndSplineSet
Validated: 1
EndChar

StartChar: section
Encoding: 167 167 177
Width: 600
Flags: HW
LayerCount: 2
Back
Fore
SplineSet
350 400 m 29
 250 400 l 25
 250 300 l 25
 350 300 l 25
 350 400 l 29
450 500 m 25
 450 600 l 25
 300 600 l 25
 300 500 l 25
 400 500 l 25
 400 400 l 25
 450 400 l 25
 450 300 l 25
 400 300 l 25
 400 100 l 25
 350 100 l 25
 350 0 l 25
 100 0 l 25
 100 100 l 25
 50 100 l 25
 50 200 l 25
 150 200 l 25
 150 100 l 25
 300 100 l 25
 300 200 l 25
 200 200 l 25
 200 300 l 25
 150 300 l 25
 150 400 l 25
 200 400 l 25
 200 600 l 25
 250 600 l 25
 250 700 l 25
 500 700 l 25
 500 600 l 25
 550 600 l 25
 550 500 l 25
 450 500 l 25
EndSplineSet
Validated: 1
EndChar

StartChar: parenleft
Encoding: 40 40 178
Width: 600
Flags: HW
LayerCount: 2
Back
Fore
SplineSet
250 600 m 29
 250 700 l 25
 400 700 l 25
 400 600 l 25
 300 600 l 25
 300 500 l 25
 250 500 l 25
 250 200 l 25
 300 200 l 25
 300 100 l 25
 400 100 l 25
 400 0 l 25
 250 0 l 25
 250 100 l 25
 200 100 l 25
 200 200 l 25
 150 200 l 25
 150 500 l 25
 200 500 l 25
 200 600 l 25
 250 600 l 29
EndSplineSet
Validated: 1
EndChar

StartChar: quotedbl
Encoding: 34 34 179
Width: 600
Flags: HW
LayerCount: 2
Back
Fore
SplineSet
350 400 m 29
 350 500 l 25
 400 500 l 25
 400 600 l 25
 350 600 l 25
 350 700 l 25
 500 700 l 25
 500 500 l 25
 450 500 l 25
 450 400 l 25
 350 400 l 29
100 600 m 25
 100 700 l 25
 250 700 l 25
 250 500 l 25
 200 500 l 25
 200 400 l 25
 100 400 l 25
 100 500 l 25
 150 500 l 25
 150 600 l 25
 100 600 l 25
EndSplineSet
Validated: 1
EndChar

StartChar: numbersign
Encoding: 35 35 180
Width: 600
Flags: HW
LayerCount: 2
Back
Fore
SplineSet
250 300 m 29
 350 300 l 25
 350 400 l 25
 250 400 l 25
 250 300 l 29
150 700 m 25
 250 700 l 25
 250 500 l 25
 350 500 l 25
 350 700 l 25
 450 700 l 25
 450 500 l 25
 550 500 l 25
 550 400 l 25
 450 400 l 25
 450 300 l 25
 550 300 l 25
 550 200 l 25
 450 200 l 25
 450 0 l 25
 350 0 l 25
 350 200 l 25
 250 200 l 25
 250 0 l 25
 150 0 l 25
 150 200 l 25
 50 200 l 25
 50 300 l 25
 150 300 l 25
 150 400 l 25
 50 400 l 25
 50 500 l 25
 150 500 l 25
 150 700 l 25
EndSplineSet
Validated: 1
EndChar

StartChar: dollar
Encoding: 36 36 181
Width: 600
Flags: HW
LayerCount: 2
Back
Fore
SplineSet
450 100 m 29
 450 300 l 25
 350 300 l 25
 350 100 l 25
 450 100 l 29
250 600 m 25
 150 600 l 25
 150 400 l 25
 250 400 l 25
 250 600 l 25
350 800 m 25
 350 700 l 1
 500 700 l 25
 500 600 l 25
 550 600 l 25
 550 500 l 25
 450 500 l 25
 450 600 l 25
 350 600 l 25
 350 400 l 25
 500 400 l 25
 500 300 l 25
 550 300 l 25
 550 100 l 25
 500 100 l 25
 500 0 l 25
 350 0 l 25
 350 -100 l 25
 250 -100 l 25
 250 0 l 25
 100 0 l 25
 100 100 l 25
 50 100 l 25
 50 200 l 25
 150 200 l 25
 150 100 l 25
 250 100 l 25
 250 300 l 25
 100 300 l 25
 100 400 l 25
 50 400 l 25
 50 600 l 25
 100 600 l 25
 100 700 l 25
 250 700 l 25
 250 800 l 1
 350 800 l 25
EndSplineSet
Validated: 1
EndChar

StartChar: percent
Encoding: 37 37 182
Width: 600
Flags: HW
LayerCount: 2
Back
Fore
SplineSet
400 700 m 29
 500 700 l 25
 500 600 l 25
 450 600 l 25
 450 500 l 25
 400 500 l 25
 400 400 l 25
 350 400 l 25
 350 300 l 25
 300 300 l 25
 300 200 l 25
 250 200 l 25
 250 100 l 25
 200 100 l 25
 200 0 l 25
 100 0 l 25
 100 100 l 25
 150 100 l 25
 150 200 l 25
 200 200 l 25
 200 300 l 25
 250 300 l 25
 250 400 l 25
 300 400 l 25
 300 500 l 25
 350 500 l 25
 350 600 l 25
 400 600 l 25
 400 700 l 29
450 100 m 25
 500 100 l 25
 500 200 l 25
 450 200 l 25
 450 100 l 25
400 300 m 25
 550 300 l 25
 550 200 l 25
 600 200 l 25
 600 100 l 25
 550 100 l 25
 550 0 l 25
 400 0 l 25
 400 100 l 25
 350 100 l 25
 350 200 l 25
 400 200 l 25
 400 300 l 25
100 600 m 25
 100 500 l 25
 150 500 l 25
 150 600 l 25
 100 600 l 25
0 600 m 25
 50 600 l 25
 50 700 l 25
 200 700 l 25
 200 600 l 25
 250 600 l 25
 250 500 l 25
 200 500 l 25
 200 400 l 25
 50 400 l 25
 50 500 l 25
 0 500 l 25
 0 600 l 25
EndSplineSet
Validated: 1
EndChar

StartChar: ampersand
Encoding: 38 38 183
Width: 600
Flags: HW
LayerCount: 2
Back
Fore
SplineSet
200 300 m 29
 200 200 l 25
 150 200 l 25
 150 100 l 25
 350 100 l 25
 350 200 l 25
 300 200 l 25
 300 300 l 25
 200 300 l 29
200 600 m 25
 200 400 l 25
 300 400 l 25
 300 600 l 25
 200 600 l 25
150 700 m 25
 350 700 l 25
 350 600 l 25
 400 600 l 25
 400 400 l 25
 350 400 l 25
 350 300 l 25
 400 300 l 25
 400 200 l 25
 450 200 l 25
 450 300 l 25
 550 300 l 25
 550 200 l 25
 500 200 l 25
 500 100 l 25
 600 100 l 25
 600 0 l 25
 450 0 l 25
 450 100 l 25
 400 100 l 25
 400 0 l 25
 100 0 l 25
 100 100 l 25
 50 100 l 25
 50 200 l 25
 100 200 l 25
 100 300 l 25
 150 300 l 25
 150 400 l 25
 100 400 l 25
 100 600 l 25
 150 600 l 25
 150 700 l 25
EndSplineSet
Validated: 1
EndChar

StartChar: quotesingle
Encoding: 39 39 184
Width: 600
Flags: HW
LayerCount: 2
Back
Fore
SplineSet
250 600 m 29
 250 700 l 25
 400 700 l 25
 400 500 l 25
 350 500 l 25
 350 400 l 25
 250 400 l 25
 250 500 l 25
 300 500 l 25
 300 600 l 25
 250 600 l 29
EndSplineSet
Validated: 1
EndChar

StartChar: parenright
Encoding: 41 41 185
Width: 600
Flags: HW
LayerCount: 2
Back
Fore
SplineSet
200 700 m 29
 350 700 l 25
 350 600 l 25
 400 600 l 25
 400 500 l 25
 450 500 l 25
 450 200 l 25
 400 200 l 25
 400 100 l 25
 350 100 l 25
 350 0 l 25
 200 0 l 25
 200 100 l 25
 300 100 l 25
 300 200 l 25
 350 200 l 25
 350 500 l 25
 300 500 l 25
 300 600 l 25
 200 600 l 25
 200 700 l 29
EndSplineSet
Validated: 1
EndChar

StartChar: braceleft
Encoding: 123 123 186
Width: 600
Flags: HW
LayerCount: 2
Back
Fore
SplineSet
450 700 m 29
 450 600 l 1
 350 600 l 25
 350 400 l 25
 300 400 l 25
 300 300 l 25
 350 300 l 25
 350 100 l 25
 450 100 l 25
 450 0 l 25
 300 0 l 25
 300 100 l 25
 250 100 l 25
 250 300 l 25
 150 300 l 25
 150 400 l 25
 250 400 l 25
 250 600 l 25
 300 600 l 25
 300 700 l 1
 450 700 l 29
EndSplineSet
Validated: 1
EndChar

StartChar: bar
Encoding: 124 124 187
Width: 600
Flags: HW
LayerCount: 2
Back
Fore
SplineSet
250 700 m 29
 350 700 l 25
 350 0 l 25
 250 0 l 25
 250 700 l 29
EndSplineSet
Validated: 1
EndChar

StartChar: braceright
Encoding: 125 125 188
Width: 600
Flags: HW
LayerCount: 2
Back
Fore
SplineSet
150 700 m 29
 300 700 l 25
 300 600 l 25
 350 600 l 25
 350 400 l 25
 450 400 l 25
 450 300 l 25
 350 300 l 25
 350 100 l 25
 300 100 l 25
 300 0 l 25
 150 0 l 25
 150 100 l 25
 250 100 l 25
 250 300 l 25
 300 300 l 25
 300 400 l 25
 250 400 l 25
 250 600 l 25
 150 600 l 25
 150 700 l 29
EndSplineSet
Validated: 1
EndChar

StartChar: uni0451
Encoding: 1105 1105 189
Width: 600
Flags: HW
LayerCount: 2
Back
Fore
SplineSet
400 700 m 25
 500 700 l 25
 500 600 l 25
 400 600 l 25
 400 700 l 25
150 700 m 25
 250 700 l 25
 250 600 l 25
 150 600 l 25
 150 700 l 25
200 400 m 1
 200 300 l 1
 450 300 l 1
 450 400 l 1
 200 400 l 1
150 400 m 1
 151 500 l 1
 499 500 l 1
 500 400 l 25
 550 400 l 25
 550 200 l 1
 200 200 l 1
 200 100 l 1
 500 100 l 1
 500 0 l 1
 150 0 l 1
 150 100 l 1
 100 100 l 1
 100 400 l 5
 150 400 l 1
EndSplineSet
Validated: 1
EndChar

StartChar: underscore
Encoding: 95 95 190
Width: 600
Flags: HW
LayerCount: 2
Back
Fore
SplineSet
50 -100 m 29
 50 0 l 1
 550 0 l 25
 550 -100 l 1
 50 -100 l 29
EndSplineSet
Validated: 1
EndChar

StartChar: asciicircum
Encoding: 94 94 191
Width: 600
Flags: HW
LayerCount: 2
Back
Fore
SplineSet
150 400 m 29
 150 500 l 25
 200 500 l 25
 200 600 l 25
 250 600 l 25
 250 700 l 25
 400 700 l 25
 400 600 l 25
 450 600 l 25
 450 500 l 25
 500 500 l 25
 500 400 l 25
 400 400 l 25
 400 500 l 25
 350 500 l 25
 350 600 l 25
 300 600 l 25
 300 500 l 25
 250 500 l 25
 250 400 l 25
 150 400 l 29
EndSplineSet
Validated: 1
EndChar

StartChar: grave
Encoding: 96 96 192
Width: 600
Flags: HW
LayerCount: 2
Back
Fore
SplineSet
150 700 m 29
 250 700 l 25
 250 600 l 25
 300 600 l 25
 300 500 l 25
 350 500 l 25
 350 400 l 25
 250 400 l 25
 250 500 l 25
 200 500 l 25
 200 600 l 25
 150 600 l 25
 150 700 l 29
EndSplineSet
Validated: 1
EndChar

StartChar: bracketleft
Encoding: 91 91 193
Width: 600
Flags: HW
LayerCount: 2
Back
Fore
SplineSet
400 600 m 29
 300 600 l 25
 300 100 l 25
 400 100 l 25
 400 0 l 25
 200 0 l 25
 200 700 l 25
 400 700 l 25
 400 600 l 29
EndSplineSet
Validated: 1
EndChar

StartChar: bracketright
Encoding: 93 93 194
Width: 600
Flags: HW
LayerCount: 2
Back
Fore
SplineSet
200 700 m 29
 399 700 l 1
 400 0 l 25
 200 0 l 25
 200 100 l 25
 300 100 l 25
 300 600 l 25
 200 600 l 1
 200 700 l 29
EndSplineSet
Validated: 1
EndChar

StartChar: backslash
Encoding: 92 92 195
Width: 600
Flags: HW
LayerCount: 2
Back
Fore
SplineSet
100 600 m 29
 100 700 l 25
 200 700 l 25
 200 600 l 25
 250 600 l 25
 250 500 l 25
 300 500 l 25
 300 400 l 25
 350 400 l 25
 350 300 l 25
 400 300 l 25
 400 200 l 25
 450 200 l 25
 450 100 l 25
 500 100 l 25
 500 0 l 25
 400 0 l 25
 400 100 l 25
 350 100 l 25
 350 200 l 25
 300 200 l 25
 300 300 l 25
 250 300 l 25
 250 400 l 25
 200 400 l 25
 200 500 l 25
 150 500 l 25
 150 600 l 25
 100 600 l 29
EndSplineSet
Validated: 1
EndChar

StartChar: Odieresis
Encoding: 214 214 196
Width: 600
Flags: MW
LayerCount: 2
Back
Fore
SplineSet
200 500 m 29
 200 400 l 25
 150 400 l 25
 150 200 l 25
 200 200 l 25
 200 100 l 25
 400 100 l 25
 400 200 l 25
 450 200 l 25
 450 400 l 25
 400 400 l 25
 400 500 l 25
 200 500 l 29
150 600 m 25
 450 600 l 25
 450 500 l 25
 500 500 l 25
 500 400 l 25
 550 400 l 25
 550 200 l 25
 500 200 l 25
 500 100 l 25
 450 100 l 25
 450 0 l 25
 150 0 l 25
 150 100 l 25
 100 100 l 25
 100 200 l 25
 50 200 l 25
 50 400 l 25
 100 400 l 25
 100 500 l 25
 150 500 l 25
 150 600 l 25
350 700 m 25
 350 800 l 25
 450 800 l 25
 450 700 l 25
 350 700 l 25
150 700 m 25
 150 800 l 25
 250 800 l 25
 250 700 l 25
 150 700 l 25
EndSplineSet
Validated: 1
EndChar

StartChar: acute
Encoding: 180 180 197
Width: 600
Flags: HW
LayerCount: 2
Back
Fore
SplineSet
250 600 m 29
 250 700 l 25
 350 700 l 25
 350 600 l 25
 300 600 l 25
 300 500 l 25
 250 500 l 25
 250 400 l 25
 150 400 l 25
 150 500 l 25
 200 500 l 25
 200 600 l 25
 250 600 l 29
EndSplineSet
Validated: 1
EndChar

StartChar: plusminus
Encoding: 177 177 198
Width: 600
Flags: HW
LayerCount: 2
Back
Fore
SplineSet
100 200 m 29
 500 200 l 25
 500 101 l 25
 100 100 l 25
 100 200 l 29
100 550 m 25
 250 550 l 25
 250 700 l 25
 350 700 l 25
 350 550 l 25
 500 551 l 25
 500 450 l 25
 350 450 l 25
 350 300 l 25
 250 300 l 25
 250 451 l 25
 100 451 l 25
 100 550 l 25
EndSplineSet
Validated: 1
EndChar

StartChar: uni20BD
Encoding: 8381 8381 199
Width: 600
Flags: HW
LayerCount: 2
Back
Fore
SplineSet
200 400 m 25
 450 400 l 25
 450 600 l 25
 200 600 l 25
 200 400 l 25
100 700 m 25
 500 700 l 25
 500 650 l 25
 550 650 l 25
 550 400 l 25
 500 400 l 25
 500 300 l 25
 200 300 l 25
 200 250 l 1
 400 250 l 5
 400 150 l 1
 200 150 l 1
 200 0 l 25
 100 0 l 25
 100 150 l 25
 0 150 l 25
 0 250 l 25
 100 250 l 25
 100 300 l 25
 0 300 l 25
 0 400 l 25
 100 400 l 25
 100 700 l 25
EndSplineSet
Validated: 1
EndChar

StartChar: Udieresis
Encoding: 220 220 200
Width: 600
Flags: HW
LayerCount: 2
Back
Fore
SplineSet
400 800 m 29
 500 800 l 25
 500 700 l 25
 400 700 l 25
 400 800 l 29
150 700 m 25
 150 800 l 25
 250 800 l 25
 250 700 l 25
 150 700 l 25
100 600 m 1
 200 600 l 1
 200 100 l 1
 450 100 l 1
 450 600 l 1
 550 600 l 1
 550 100 l 1
 500 100 l 25
 500 0 l 25
 150 0 l 25
 150 100 l 25
 100 100 l 1
 100 600 l 1
EndSplineSet
Validated: 1
EndChar

StartChar: Adieresis
Encoding: 196 196 201
Width: 600
Flags: HW
LayerCount: 2
Back
Fore
SplineSet
350 700 m 25
 350 800 l 25
 450 800 l 25
 450 700 l 25
 350 700 l 25
150 700 m 25
 150 800 l 25
 250 800 l 25
 250 700 l 25
 150 700 l 25
150 300 m 25
 450 300 l 25
 450 400 l 25
 400 400 l 1
 400 500 l 25
 200 500 l 1
 200 400 l 29
 150 400 l 1
 150 300 l 25
50 0 m 25
 50 400 l 1
 100 400 l 25
 100 500 l 25
 150 500 l 25
 150 600 l 25
 450 600 l 25
 450 500 l 25
 500 500 l 25
 500 400 l 25
 550 400 l 25
 550 0 l 25
 450 0 l 25
 450 200 l 25
 150 200 l 25
 150 0 l 1
 50 0 l 25
EndSplineSet
Validated: 1
EndChar

StartChar: adieresis
Encoding: 228 228 202
Width: 600
Flags: HW
LayerCount: 2
Back
Fore
SplineSet
350 600 m 29
 350 700 l 29
 450 700 l 29
 450 600 l 29
 350 600 l 29
150 600 m 29
 150 700 l 29
 250 700 l 29
 250 600 l 29
 150 600 l 29
150 200 m 25
 150 100 l 25
 400 100 l 25
 400 200 l 25
 150 200 l 25
100 500 m 25
 450 500 l 25
 450 400 l 25
 500 400 l 25
 500 100 l 25
 549 100 l 25
 550 0 l 25
 100 0 l 25
 100 100 l 25
 50 100 l 25
 50 200 l 25
 100 200 l 25
 100 300 l 25
 400 300 l 25
 400 400 l 25
 100 400 l 25
 100 500 l 25
EndSplineSet
Validated: 1
EndChar

StartChar: odieresis
Encoding: 246 246 203
Width: 600
Flags: HW
LayerCount: 2
Back
Fore
SplineSet
400 600 m 29
 400 700 l 29
 500 700 l 29
 500 600 l 29
 400 600 l 29
150 600 m 25
 150 700 l 25
 250 700 l 25
 250 600 l 25
 150 600 l 25
200 400 m 25
 200 100 l 25
 450 100 l 25
 450 400 l 25
 200 400 l 25
150 500 m 25
 500 500 l 25
 500 400 l 25
 550 400 l 25
 550 100 l 25
 500 100 l 25
 500 0 l 25
 150 0 l 25
 150 100 l 25
 100 100 l 25
 100 400 l 25
 150 400 l 25
 150 500 l 25
EndSplineSet
Validated: 1
EndChar

StartChar: germandbls
Encoding: 223 223 204
Width: 600
Flags: HW
LayerCount: 2
Back
Fore
SplineSet
200 600 m 25
 200 700 l 1
 450 700 l 25
 450 600 l 25
 500 600 l 25
 500 400 l 25
 450 400 l 25
 450 300 l 25
 550 300 l 25
 550 100 l 25
 500 100 l 25
 500 0 l 25
 250 0 l 25
 250 100 l 25
 450 100 l 25
 450 300 l 25
 300 300 l 25
 300 400 l 25
 400 400 l 25
 400 600 l 25
 250 600 l 25
 250 500 l 25
 200 500 l 25
 200 0 l 25
 100 0 l 25
 100 500 l 25
 150 500 l 25
 150 600 l 1
 200 600 l 25
EndSplineSet
Validated: 5
EndChar

StartChar: uniFFFD
Encoding: 65533 65533 205
Width: 600
Flags: HW
LayerCount: 2
Back
Fore
SplineSet
250 200 m 29
 400 200 l 25
 400 300 l 25
 450 300 l 25
 450 500 l 25
 400 500 l 25
 400 600 l 25
 200 600 l 25
 200 500 l 25
 150 500 l 25
 150 400 l 25
 250 400 l 25
 250 500 l 25
 350 500 l 25
 350 300 l 25
 250 300 l 25
 250 200 l 29
250 0 m 25
 350 0 l 25
 350 100 l 25
 250 100 l 25
 250 0 l 25
0 200 m 25
 0 400 l 25
 50 400 l 25
 50 500 l 25
 100 500 l 25
 100 600 l 25
 150 600 l 25
 150 700 l 25
 200 700 l 25
 200 800 l 25
 400 800 l 25
 400 700 l 25
 450 700 l 25
 450 600 l 25
 500 600 l 25
 500 500 l 25
 550 500 l 25
 550 400 l 25
 600 400 l 25
 600 200 l 25
 550 200 l 25
 550 100 l 25
 500 100 l 25
 500 0 l 25
 450 0 l 25
 450 -100 l 25
 400 -100 l 25
 400 -200 l 25
 200 -200 l 25
 200 -100 l 25
 150 -100 l 25
 150 0 l 25
 100 0 l 25
 100 100 l 25
 50 100 l 25
 50 200 l 25
 0 200 l 25
EndSplineSet
Validated: 1
EndChar

StartChar: Oslash
Encoding: 216 216 206
Width: 600
Flags: W
HStem: 0 100<200 400> 600 100<200 400>
VStem: 50 100<200 500> 100 100<100 200 500 600> 150 300<0 100 600 700> 400 100<100 200 500 600> 450 100<200 500>
LayerCount: 2
Back
Fore
SplineSet
400 100 m 29xd4
 400 200 l 25xd4
 450 200 l 25
 450 500 l 25xc2
 400 500 l 25
 400 600 l 25
 200 600 l 25
 200 500 l 25xd4
 150 500 l 25
 150 200 l 25xe0
 200 200 l 25
 200 100 l 25
 400 100 l 29xd4
450 0 m 25xc8
 150 0 l 25
 150 100 l 25xc8
 100 100 l 25
 100 200 l 25xd0
 50 200 l 25
 50 500 l 25xe0
 100 500 l 25
 100 600 l 25xd0
 150 600 l 25
 150 700 l 25
 450 700 l 25
 450 600 l 25xc8
 500 600 l 25
 500 500 l 25xc4
 550 500 l 25
 550 200 l 25xc2
 500 200 l 25
 500 100 l 25xc4
 450 100 l 25
 450 0 l 25xc8
EndSplineSet
Validated: 1
EndChar

StartChar: multiply
Encoding: 215 215 207
Width: 600
Flags: HMW
LayerCount: 2
Back
Fore
SplineSet
150 200 m 29
 150 300 l 25
 250 300 l 25
 250 400 l 25
 150 400 l 25
 150 500 l 25
 250 500 l 25
 250 400 l 25
 350 400 l 25
 350 500 l 25
 450 500 l 25
 450 400 l 25
 350 400 l 25
 350 300 l 25
 450 300 l 25
 450 200 l 25
 350 200 l 25
 350 300 l 25
 250 300 l 25
 250 200 l 25
 150 200 l 29
EndSplineSet
Validated: 5
EndChar

StartChar: divide
Encoding: 247 247 208
Width: 600
Flags: HMW
LayerCount: 2
Back
Fore
SplineSet
250 100 m 29
 250 200 l 25
 350 200 l 25
 350 100 l 25
 250 100 l 29
100 300 m 25
 100 400 l 25
 500 400 l 25
 500 300 l 25
 100 300 l 25
250 500 m 25
 250 600 l 25
 350 600 l 25
 350 500 l 25
 250 500 l 25
EndSplineSet
Validated: 1
EndChar

StartChar: brokenbar
Encoding: 166 166 209
Width: 600
Flags: HW
LayerCount: 2
Back
Fore
SplineSet
250 700 m 29
 350 700 l 25
 350 0 l 25
 250 0 l 25
 250 700 l 29
EndSplineSet
Validated: 1
EndChar

StartChar: degree
Encoding: 176 176 210
Width: 600
Flags: HMW
LayerCount: 2
Back
Fore
SplineSet
250 600 m 29
 250 500 l 25
 350 500 l 25
 350 600 l 25
 250 600 l 29
200 600 m 25
 200 700 l 25
 400 700 l 25
 400 600 l 25
 450 600 l 25
 450 500 l 25
 400 500 l 25
 400 400 l 25
 200 400 l 25
 200 500 l 25
 150 500 l 25
 150 600 l 25
 200 600 l 25
EndSplineSet
Validated: 1
EndChar

StartChar: arrowright
Encoding: 8594 8594 211
Width: 600
Flags: HW
LayerCount: 2
Back
Fore
SplineSet
250 500 m 29
 250 600 l 25
 350 600 l 25
 350 500 l 25
 450 500 l 25
 450 400 l 25
 550 400 l 25
 550 300 l 25
 450 300 l 25
 450 200 l 25
 350 200 l 25
 350 100 l 25
 250 100 l 25
 250 200 l 25
 300 200 l 25
 300 300 l 25
 0 300 l 25
 0 400 l 25
 300 400 l 25
 300 500 l 25
 250 500 l 29
EndSplineSet
Validated: 1
EndChar

StartChar: arrowleft
Encoding: 8592 8592 212
Width: 600
Flags: HW
LayerCount: 2
Back
Fore
SplineSet
300 500 m 29
 300 600 l 25
 400 600 l 25
 400 500 l 25
 350 500 l 25
 350 400 l 25
 600 400 l 25
 600 300 l 25
 350 300 l 25
 350 200 l 25
 400 200 l 25
 400 100 l 25
 300 100 l 25
 300 200 l 25
 200 200 l 25
 200 300 l 25
 100 300 l 25
 100 400 l 25
 200 400 l 25
 200 500 l 25
 300 500 l 29
EndSplineSet
Validated: 1
EndChar

StartChar: arrowup
Encoding: 8593 8593 213
Width: 600
Flags: HW
LayerCount: 2
Back
Fore
SplineSet
200 300 m 29
 100 300 l 25
 100 400 l 25
 150 400 l 25
 150 500 l 25
 200 500 l 25
 200 600 l 25
 250 600 l 25
 250 700 l 25
 350 700 l 25
 350 600 l 25
 400 600 l 25
 400 500 l 25
 450 500 l 25
 450 400 l 25
 500 400 l 25
 500 300 l 25
 400 300 l 25
 400 400 l 25
 350 400 l 25
 350 0 l 25
 250 0 l 25
 250 400 l 25
 200 400 l 25
 200 300 l 29
EndSplineSet
Validated: 1
EndChar

StartChar: arrowdown
Encoding: 8595 8595 214
Width: 600
Flags: HW
LayerCount: 2
Back
Fore
SplineSet
250 300 m 29
 250 700 l 1
 350 700 l 25
 350 300 l 25
 400 300 l 25
 400 400 l 25
 500 400 l 25
 500 300 l 25
 450 300 l 25
 450 200 l 25
 400 200 l 25
 400 100 l 25
 350 100 l 25
 350 0 l 25
 250 0 l 25
 250 100 l 25
 200 100 l 25
 200 200 l 25
 150 200 l 25
 150 300 l 25
 100 300 l 25
 100 400 l 25
 200 400 l 25
 200 300 l 1
 250 300 l 29
EndSplineSet
Validated: 1
EndChar

StartChar: arrowboth
Encoding: 8596 8596 215
Width: 1200
Flags: HW
LayerCount: 2
Back
Fore
SplineSet
200 300 m 29
 200 400 l 25
 300 400 l 25
 300 500 l 25
 400 500 l 25
 400 600 l 25
 500 600 l 25
 500 500 l 25
 400 500 l 25
 400 400 l 25
 800 400 l 25
 800 500 l 25
 700 500 l 25
 700 600 l 25
 800 600 l 25
 800 500 l 25
 900 500 l 25
 900 400 l 25
 1000 400 l 25
 1000 300 l 25
 900 300 l 25
 900 200 l 25
 800 200 l 25
 800 100 l 25
 700 100 l 25
 700 200 l 25
 800 200 l 25
 800 300 l 25
 400 300 l 25
 400 200 l 25
 500 200 l 25
 500 100 l 25
 400 100 l 25
 400 200 l 25
 300 200 l 25
 300 300 l 25
 200 300 l 29
EndSplineSet
Validated: 5
EndChar

StartChar: arrowupdn
Encoding: 8597 8597 216
Width: 600
Flags: HW
LayerCount: 2
Back
Fore
SplineSet
100 200 m 29
 100 300 l 25
 200 300 l 25
 200 200 l 25
 250 200 l 25
 250 500 l 25
 200 500 l 25
 200 400 l 25
 100 400 l 25
 100 500 l 25
 150 500 l 25
 150 600 l 25
 200 600 l 25
 200 700 l 25
 400 700 l 25
 400 600 l 25
 450 600 l 25
 450 500 l 25
 500 500 l 25
 500 400 l 25
 400 400 l 25
 400 500 l 25
 350 500 l 25
 350 200 l 25
 400 200 l 25
 400 300 l 25
 500 300 l 25
 500 200 l 25
 450 200 l 25
 450 100 l 25
 400 100 l 25
 400 0 l 25
 200 0 l 25
 200 100 l 25
 150 100 l 25
 150 200 l 25
 100 200 l 29
EndSplineSet
Validated: 1
EndChar

StartChar: uni2600
Encoding: 9728 9728 217
Width: 1200
Flags: HW
LayerCount: 2
Back
Fore
SplineSet
850 600 m 25
 850 700 l 25
 950 700 l 25
 950 600 l 25
 850 600 l 25
550 700 m 25
 550 800 l 25
 650 800 l 25
 650 700 l 25
 550 700 l 25
250 600 m 25
 250 700 l 25
 350 700 l 25
 350 600 l 25
 250 600 l 25
950 300 m 1
 950 400 l 25
 1100 400 l 1
 1100 300 l 25
 950 300 l 1
100 300 m 1
 100 400 l 25
 250 400 l 1
 250 300 l 25
 100 300 l 1
800 0 m 25
 800 100 l 25
 900 100 l 25
 900 0 l 25
 800 0 l 25
550 -100 m 25
 550 0 l 25
 650 0 l 25
 650 -100 l 25
 550 -100 l 25
300 0 m 25
 300 100 l 25
 400 100 l 25
 400 0 l 25
 300 0 l 25
350 300 m 25
 350 400 l 1
 450 400 l 25
 450 500 l 1
 550 500 l 1
 550 600 l 1
 650 600 l 1
 650 500 l 25
 750 500 l 25
 750 400 l 25
 850 400 l 25
 850 300 l 25
 750 300 l 25
 750 200 l 25
 650 200 l 25
 650 100 l 25
 550 100 l 25
 550 200 l 25
 450 200 l 25
 450 300 l 1
 350 300 l 25
EndSplineSet
Validated: 1
EndChar

StartChar: uni2601
Encoding: 9729 9729 218
Width: 600
Flags: HW
LayerCount: 2
Back
Fore
SplineSet
0 200 m 29
 0 300 l 25
 100 300 l 25
 100 400 l 25
 200 400 l 25
 200 500 l 25
 350 500 l 25
 350 400 l 25
 500 400 l 25
 500 300 l 25
 600 300 l 25
 600 200 l 25
 550 200 l 25
 550 100 l 25
 100 100 l 25
 100 200 l 25
 0 200 l 29
EndSplineSet
Validated: 1
EndChar

StartChar: uni2602
Encoding: 9730 9730 219
Width: 600
Flags: HW
LayerCount: 2
Back
Fore
SplineSet
0 400 m 29
 0 500 l 25
 100 500 l 25
 100 600 l 25
 200 600 l 25
 200 700 l 25
 400 700 l 25
 400 600 l 25
 500 600 l 25
 500 500 l 25
 600 500 l 25
 600 400 l 25
 350 400 l 25
 350 0 l 25
 300 0 l 25
 300 -100 l 25
 150 -100 l 25
 150 0 l 25
 250 0 l 25
 250 400 l 25
 0 400 l 29
EndSplineSet
Validated: 1
EndChar

StartChar: uni2603
Encoding: 9731 9731 220
Width: 600
Flags: HW
LayerCount: 2
Back
Fore
SplineSet
250 500 m 29
 300 500 l 29
 300 400 l 29
 250 400 l 29
 250 300 l 29
 300 300 l 29
 300 200 l 29
 200 200 l 29
 200 100 l 29
 450 100 l 29
 450 200 l 29
 350 200 l 29
 350 300 l 29
 400 300 l 29
 400 400 l 29
 350 400 l 29
 350 500 l 29
 400 500 l 29
 400 600 l 29
 250 600 l 29
 250 500 l 29
50 -100 m 29
 50 0 l 29
 150 0 l 29
 150 100 l 29
 100 100 l 29
 100 200 l 29
 150 200 l 29
 150 400 l 29
 200 400 l 29
 200 500 l 29
 150 500 l 29
 150 600 l 29
 200 600 l 29
 200 700 l 29
 250 700 l 29
 250 800 l 29
 400 800 l 29
 400 700 l 29
 450 700 l 29
 450 600 l 29
 500 600 l 29
 500 500 l 29
 450 500 l 29
 450 400 l 29
 500 400 l 29
 500 200 l 29
 550 200 l 29
 550 100 l 29
 500 100 l 29
 500 0 l 29
 600 0 l 29
 600 -100 l 29
 450 -100 l 29
 450 0 l 29
 200 0 l 29
 200 -100 l 29
 50 -100 l 29
100 500 m 29
 150 500 l 29
 150 400 l 29
 100 400 l 29
 100 500 l 29
50 600 m 29
 100 600 l 29
 100 500 l 29
 50 500 l 29
 50 600 l 29
0 50 m 29
 0 100 l 5
 50 100 l 29
 50 50 l 5
 0 50 l 29
0 150 m 29
 0 200 l 5
 50 200 l 29
 50 150 l 5
 0 150 l 29
50 250 m 29
 50 300 l 5
 100 300 l 29
 100 250 l 5
 50 250 l 29
0 350 m 29
 0 400 l 5
 50 400 l 29
 50 350 l 5
 0 350 l 29
250 -100 m 29
 250 -50 l 29
 300 -50 l 29
 300 -100 l 29
 250 -100 l 29
350 -100 m 29
 350 -50 l 29
 400 -50 l 29
 400 -100 l 29
 350 -100 l 29
550 50 m 29
 550 100 l 29
 600 100 l 29
 600 50 l 29
 550 50 l 29
550 250 m 29
 550 300 l 29
 600 300 l 29
 600 250 l 29
 550 250 l 29
550 350 m 29
 550 400 l 29
 600 400 l 29
 600 350 l 29
 550 350 l 29
500 400 m 29
 500 500 l 29
 550 500 l 29
 550 400 l 29
 500 400 l 29
550 500 m 29
 550 600 l 29
 600 600 l 29
 600 500 l 29
 550 500 l 29
500 650 m 29
 500 700 l 29
 550 700 l 29
 550 650 l 29
 500 650 l 29
550 750 m 29
 550 800 l 29
 600 800 l 29
 600 750 l 29
 550 750 l 29
450 750 m 29
 450 800 l 29
 500 800 l 29
 500 750 l 29
 450 750 l 29
150 750 m 29
 150 800 l 5
 200 800 l 29
 200 750 l 5
 150 750 l 29
0 750 m 29
 0 800 l 5
 50 800 l 29
 50 750 l 5
 0 750 l 29
50 650 m 29
 50 700 l 5
 100 700 l 29
 100 650 l 5
 50 650 l 29
EndSplineSet
Validated: 5
EndChar

StartChar: uni26C4
Encoding: 9924 9924 221
Width: 600
Flags: HW
LayerCount: 2
Back
Fore
SplineSet
250 500 m 29
 300 500 l 29
 300 400 l 29
 250 400 l 29
 250 300 l 29
 300 300 l 29
 300 200 l 29
 200 200 l 29
 200 100 l 29
 450 100 l 29
 450 200 l 29
 350 200 l 29
 350 300 l 29
 400 300 l 29
 400 400 l 29
 350 400 l 29
 350 500 l 29
 400 500 l 29
 400 600 l 29
 250 600 l 29
 250 500 l 29
50 -100 m 29
 50 0 l 29
 150 0 l 29
 150 100 l 29
 100 100 l 29
 100 200 l 29
 150 200 l 29
 150 400 l 29
 200 400 l 29
 200 500 l 29
 150 500 l 29
 150 600 l 29
 200 600 l 29
 200 700 l 29
 250 700 l 29
 250 800 l 29
 400 800 l 29
 400 700 l 29
 450 700 l 29
 450 600 l 29
 500 600 l 29
 500 500 l 29
 450 500 l 29
 450 400 l 29
 500 400 l 29
 500 200 l 29
 550 200 l 5
 550 100 l 29
 500 100 l 5
 500 0 l 29
 600 0 l 29
 600 -100 l 29
 450 -100 l 29
 450 0 l 29
 200 0 l 29
 200 -100 l 29
 50 -100 l 29
100 500 m 29
 150 500 l 29
 150 400 l 29
 100 400 l 29
 100 500 l 29
50 600 m 29
 100 600 l 29
 100 500 l 29
 50 500 l 29
 50 600 l 29
500 400 m 29
 500 500 l 29
 550 500 l 29
 550 400 l 29
 500 400 l 29
550 500 m 29
 550 600 l 29
 600 600 l 29
 600 500 l 29
 550 500 l 29
EndSplineSet
Validated: 5
EndChar

StartChar: uni2614
Encoding: 9748 9748 222
Width: 600
Flags: HW
LayerCount: 2
Back
Fore
SplineSet
150 -100 m 29
 150 0 l 25
 250 0 l 25
 250 400 l 25
 0 400 l 25
 0 500 l 25
 100 500 l 25
 100 600 l 25
 200 600 l 25
 200 700 l 25
 400 700 l 25
 400 600 l 25
 500 600 l 25
 500 500 l 25
 600 500 l 25
 600 400 l 25
 350 400 l 25
 350 0 l 25
 300 0 l 25
 300 -100 l 25
 150 -100 l 29
50 0 m 1
 50 100 l 1
 100 100 l 1
 100 0 l 1
 50 0 l 1
500 0 m 1
 500 100 l 1
 550 100 l 1
 550 0 l 1
 500 0 l 1
0 150 m 1
 0 250 l 1
 50 250 l 1
 50 150 l 1
 0 150 l 1
100 250 m 1
 100 350 l 1
 150 350 l 1
 150 250 l 1
 100 250 l 1
550 150 m 1
 550 250 l 1
 600 250 l 1
 600 150 l 1
 550 150 l 1
450 250 m 1
 450 350 l 1
 500 350 l 1
 500 250 l 1
 450 250 l 1
550 600 m 1
 550 700 l 1
 600 700 l 1
 600 600 l 1
 550 600 l 1
0 600 m 1
 0 700 l 1
 50 700 l 1
 50 600 l 1
 0 600 l 1
450 700 m 1
 450 800 l 1
 500 800 l 1
 500 700 l 1
 450 700 l 1
100 700 m 1
 100 800 l 1
 150 800 l 1
 150 700 l 1
 100 700 l 1
EndSplineSet
Validated: 1
EndChar

StartChar: uni2669
Encoding: 9833 9833 223
Width: 600
Flags: HW
LayerCount: 2
Back
Fore
SplineSet
150 100 m 29
 100 100 l 25
 100 200 l 25
 150 200 l 25
 150 300 l 25
 350 300 l 25
 350 800 l 25
 450 800 l 25
 450 100 l 25
 400 100 l 25
 400 0 l 25
 150 0 l 25
 150 100 l 29
EndSplineSet
Validated: 1
EndChar

StartChar: uni2757
Encoding: 10071 10071 225
Width: 600
Flags: HW
LayerCount: 2
Back
Fore
SplineSet
250 700 m 29
 350 700 l 25
 350 200 l 25
 250 200 l 25
 250 700 l 29
350 0 m 25
 250 0 l 1
 250 100 l 25
 350 100 l 1
 350 0 l 25
EndSplineSet
Validated: 1
EndChar

StartChar: uni2753
Encoding: 10067 10067 226
Width: 600
Flags: HW
LayerCount: 2
Back
Fore
SplineSet
300 300 m 1
 400 300 l 1
 400 200 l 1
 300 200 l 1
 300 300 l 1
400 0 m 25
 300 0 l 1
 300 100 l 25
 400 100 l 1
 400 0 l 25
100 600 m 25
 150 600 l 25
 150 700 l 25
 500 700 l 25
 500 600 l 25
 550 600 l 25
 550 400 l 25
 499 400 l 25
 500 300 l 25
 400 300 l 25
 400 400 l 25
 450 400 l 25
 450 600 l 25
 200 600 l 25
 200 400 l 25
 100 400 l 25
 100 600 l 25
EndSplineSet
Validated: 5
EndChar

StartChar: uni2795
Encoding: 10133 10133 227
Width: 600
Flags: HW
LayerCount: 2
Back
Fore
SplineSet
250 550 m 29
 350 550 l 25
 350 350 l 25
 500 350 l 25
 500 250 l 25
 350 250 l 25
 350 50 l 25
 250 50 l 25
 250 250 l 25
 100 250 l 25
 100 350 l 25
 250 350 l 25
 250 550 l 29
EndSplineSet
Validated: 1
EndChar

StartChar: uni2796
Encoding: 10134 10134 228
Width: 600
Flags: HW
LayerCount: 2
Back
Fore
SplineSet
100 250 m 29
 100 350 l 25
 500 350 l 25
 500 250 l 25
 100 250 l 29
EndSplineSet
Validated: 1
EndChar

StartChar: uni231A
Encoding: 8986 8986 229
Width: 1200
Flags: HW
LayerCount: 2
Back
Fore
SplineSet
550 500 m 29
 650 500 l 25
 650 400 l 25
 750 400 l 25
 750 300 l 25
 550 300 l 25
 550 500 l 29
400 600 m 25
 400 500 l 25
 350 500 l 25
 350 200 l 25
 400 200 l 25
 400 100 l 25
 800 100 l 25
 800 200 l 25
 850 200 l 25
 850 500 l 25
 800 500 l 25
 800 600 l 25
 400 600 l 25
450 700 m 25
 450 800 l 25
 750 800 l 25
 750 700 l 25
 850 700 l 25
 850 600 l 25
 900 600 l 25
 900 500 l 25
 950 500 l 25
 950 200 l 25
 900 200 l 25
 900 100 l 25
 850 100 l 25
 850 0 l 25
 750 0 l 25
 750 -100 l 25
 450 -100 l 25
 450 0 l 25
 350 0 l 25
 350 100 l 25
 300 100 l 25
 300 200 l 25
 250 200 l 25
 250 500 l 25
 300 500 l 25
 300 600 l 25
 350 600 l 25
 350 700 l 25
 450 700 l 25
EndSplineSet
Validated: 1
EndChar

StartChar: uni2797
Encoding: 10135 10135 230
Width: 600
Flags: HW
LayerCount: 2
Back
Fore
SplineSet
250 100 m 29
 250 200 l 25
 350 200 l 25
 350 100 l 25
 250 100 l 29
100 300 m 25
 100 400 l 25
 500 400 l 25
 500 300 l 25
 100 300 l 25
250 500 m 25
 250 600 l 25
 350 600 l 25
 350 500 l 25
 250 500 l 25
EndSplineSet
Validated: 1
EndChar

StartChar: uni25B6
Encoding: 9654 9654 231
Width: 600
Flags: HMW
LayerCount: 2
Back
Fore
SplineSet
100 0 m 29
 100 700 l 25
 250 700 l 25
 250 600 l 25
 350 600 l 25
 350 500 l 25
 450 500 l 25
 450 400 l 25
 550 400 l 25
 550 300 l 25
 450 300 l 25
 450 200 l 25
 350 200 l 25
 350 100 l 25
 250 100 l 25
 250 0 l 25
 100 0 l 29
EndSplineSet
Validated: 1
EndChar

StartChar: uni25C0
Encoding: 9664 9664 232
Width: 600
Flags: HMW
LayerCount: 2
Back
Fore
SplineSet
400 0 m 29
 400 100 l 25
 300 100 l 25
 300 200 l 25
 200 200 l 25
 200 300 l 25
 100 300 l 25
 100 400 l 25
 200 400 l 25
 200 500 l 25
 300 500 l 25
 300 600 l 25
 400 600 l 25
 400 700 l 25
 550 700 l 25
 550 0 l 25
 400 0 l 29
EndSplineSet
Validated: 1
EndChar

StartChar: H18543
Encoding: 9642 9642 233
Width: 600
Flags: HMW
LayerCount: 2
Back
Fore
SplineSet
150 100 m 29
 150 400 l 25
 400 400 l 25
 400 100 l 25
 150 100 l 29
EndSplineSet
Validated: 1
EndChar

StartChar: triagup
Encoding: 9650 9650 234
Width: 600
Flags: HMW
LayerCount: 2
Back
Fore
SplineSet
50 100 m 29
 50 200 l 29
 100 200 l 29
 100 300 l 29
 150 300 l 29
 150 400 l 29
 200 400 l 29
 200 500 l 29
 250 500 l 29
 250 600 l 29
 350 600 l 29
 350 500 l 29
 400 500 l 29
 400 400 l 29
 450 400 l 29
 450 300 l 29
 500 300 l 29
 500 200 l 29
 550 200 l 29
 550 100 l 29
 50 100 l 29
EndSplineSet
Validated: 1
EndChar

StartChar: triagdn
Encoding: 9660 9660 235
Width: 600
Flags: HMW
LayerCount: 2
Back
Fore
SplineSet
50 500 m 29
 50 600 l 25
 550 600 l 25
 550 500 l 25
 500 500 l 25
 500 400 l 25
 450 400 l 25
 450 300 l 25
 400 300 l 25
 400 200 l 25
 350 200 l 25
 350 100 l 25
 250 100 l 25
 250 200 l 25
 200 200 l 25
 200 300 l 25
 150 300 l 25
 150 400 l 25
 100 400 l 25
 100 500 l 25
 50 500 l 29
EndSplineSet
Validated: 1
EndChar

StartChar: H18551
Encoding: 9643 9643 236
Width: 600
Flags: HW
LayerCount: 2
Back
Fore
SplineSet
200 200 m 29
 350 200 l 25
 350 300 l 25
 200 300 l 25
 200 200 l 29
150 100 m 25
 150 400 l 25
 400 400 l 25
 400 100 l 25
 150 100 l 25
EndSplineSet
Validated: 1
EndChar

StartChar: uni231B
Encoding: 8987 8987 237
Width: 1200
Flags: HW
LayerCount: 2
Back
Fore
SplineSet
700 100 m 29
 800 100 l 25
 800 200 l 25
 700 200 l 25
 700 100 l 29
550 300 m 25
 550 200 l 25
 700 200 l 25
 700 300 l 25
 550 300 l 25
450 100 m 25
 550 100 l 25
 550 200 l 25
 450 200 l 25
 450 100 l 25
600 400 m 25
 650 400 l 25
 650 500 l 25
 800 500 l 25
 800 600 l 25
 450 600 l 25
 450 500 l 25
 600 500 l 25
 600 400 l 25
300 -100 m 25
 300 0 l 25
 350 0 l 25
 350 200 l 25
 400 200 l 25
 400 300 l 25
 500 300 l 25
 500 400 l 25
 400 400 l 25
 400 500 l 25
 350 500 l 25
 350 700 l 25
 300 700 l 25
 300 800 l 25
 950 800 l 25
 950 700 l 25
 900 700 l 25
 900 500 l 25
 850 500 l 25
 850 400 l 25
 750 400 l 25
 750 300 l 25
 850 300 l 25
 850 200 l 25
 900 200 l 25
 900 0 l 25
 950 0 l 25
 950 -100 l 25
 300 -100 l 25
EndSplineSet
Validated: 5
EndChar

StartChar: uni23F3
Encoding: 9203 9203 238
Width: 1200
Flags: HW
LayerCount: 2
Back
Fore
SplineSet
700 500 m 29
 800 500 l 25
 800 600 l 25
 700 600 l 25
 700 500 l 29
550 400 m 25
 700 400 l 25
 700 500 l 25
 550 500 l 25
 550 400 l 25
450 500 m 25
 550 500 l 25
 550 600 l 25
 450 600 l 25
 450 500 l 25
300 -100 m 25
 300 0 l 25
 350 0 l 25
 350 200 l 25
 400 200 l 25
 400 300 l 25
 500 300 l 25
 500 400 l 25
 400 400 l 25
 400 500 l 25
 350 500 l 25
 350 700 l 25
 300 700 l 25
 300 800 l 25
 950 800 l 25
 950 700 l 25
 900 700 l 25
 900 500 l 25
 850 500 l 25
 850 400 l 25
 750 400 l 25
 750 300 l 25
 850 300 l 25
 850 200 l 25
 900 200 l 25
 900 0 l 25
 950 0 l 25
 950 -100 l 25
 300 -100 l 25
EndSplineSet
Validated: 5
EndChar

StartChar: uni26D4
Encoding: 9940 9940 239
Width: 1200
Flags: HW
LayerCount: 2
Back
Fore
SplineSet
350 300 m 29
 850 300 l 25
 850 400 l 25
 350 400 l 25
 350 300 l 29
400 -100 m 25
 400 0 l 25
 300 0 l 25
 300 100 l 25
 250 100 l 25
 250 200 l 25
 200 200 l 25
 200 500 l 25
 250 500 l 25
 250 600 l 25
 300 600 l 25
 300 700 l 25
 400 700 l 25
 400 800 l 25
 800 800 l 25
 800 700 l 25
 900 700 l 25
 900 600 l 25
 950 600 l 25
 950 500 l 25
 1000 500 l 25
 1000 200 l 25
 950 200 l 25
 950 100 l 25
 900 100 l 25
 900 0 l 25
 800 0 l 25
 800 -100 l 25
 400 -100 l 25
EndSplineSet
Validated: 1
EndChar

StartChar: uni26C5
Encoding: 9925 9925 240
Width: 600
Flags: HW
LayerCount: 2
Back
Fore
SplineSet
150 300 m 29
 150 400 l 25
 200 400 l 25
 200 500 l 25
 100 500 l 25
 100 300 l 25
 150 300 l 29
0 300 m 25
 0 500 l 25
 50 500 l 25
 50 600 l 25
 250 600 l 25
 250 500 l 25
 300 500 l 25
 300 400 l 25
 350 400 l 25
 350 300 l 25
 500 300 l 25
 500 200 l 25
 600 200 l 25
 600 100 l 25
 550 100 l 25
 550 0 l 25
 100 0 l 25
 100 100 l 25
 0 100 l 25
 0 200 l 25
 50 200 l 25
 50 300 l 25
 0 300 l 25
EndSplineSet
Validated: 1
EndChar

StartChar: musicalnote
Encoding: 9834 9834 241
Width: 600
Flags: HW
LayerCount: 2
Back
Fore
SplineSet
50 0 m 29
 50 100 l 25
 0 100 l 25
 0 200 l 25
 50 200 l 25
 50 300 l 25
 250 300 l 25
 250 800 l 25
 450 800 l 25
 450 700 l 25
 500 700 l 25
 500 600 l 25
 550 600 l 25
 550 400 l 25
 450 400 l 25
 450 600 l 25
 400 600 l 25
 400 700 l 25
 350 700 l 25
 350 100 l 25
 300 100 l 25
 300 0 l 25
 50 0 l 29
EndSplineSet
Validated: 1
EndChar

StartChar: musicalnotedbl
Encoding: 9835 9835 242
Width: 1200
Flags: HW
LayerCount: 2
Back
Fore
SplineSet
200 100 m 29
 200 200 l 5
 250 200 l 29
 250 300 l 29
 400 300 l 29
 400 800 l 29
 950 800 l 29
 950 100 l 29
 900 100 l 29
 900 0 l 29
 700 0 l 29
 700 100 l 29
 650 100 l 29
 650 200 l 29
 700 200 l 29
 700 300 l 29
 850 300 l 29
 850 700 l 29
 500 700 l 29
 500 100 l 29
 450 100 l 29
 450 0 l 29
 250 0 l 29
 250 100 l 5
 200 100 l 29
EndSplineSet
Validated: 1
EndChar

StartChar: uni266C
Encoding: 9836 9836 243
Width: 1200
Flags: HW
LayerCount: 2
Back
Fore
SplineSet
500 600 m 1
 850 600 l 29
 850 700 l 1
 500 700 l 25
 500 600 l 1
200 100 m 25
 200 200 l 1
 250 200 l 25
 250 300 l 25
 400 300 l 25
 400 800 l 25
 950 800 l 25
 950 100 l 25
 900 100 l 25
 900 0 l 25
 700 0 l 25
 700 100 l 25
 650 100 l 25
 650 200 l 25
 700 200 l 25
 700 300 l 25
 850 300 l 1
 850 500 l 1
 500 500 l 1
 500 100 l 1
 450 100 l 25
 450 0 l 25
 250 0 l 25
 250 100 l 1
 200 100 l 25
EndSplineSet
Validated: 1
EndChar

StartChar: Idieresis
Encoding: 207 207 244
Width: 600
Flags: W
HStem: 0 100<100 250 350 500> 600 100<100 250 350 500>
VStem: 250 100<100 600>
LayerCount: 2
Back
Fore
SplineSet
100 700 m 29
 500 700 l 25
 500 600 l 25
 350 600 l 25
 350 100 l 25
 500 100 l 25
 500 0 l 25
 100 0 l 25
 100 100 l 25
 250 100 l 25
 250 600 l 25
 100 600 l 25
 100 700 l 29
EndSplineSet
Validated: 1
EndChar

StartChar: idieresis
Encoding: 239 239 245
Width: 600
Flags: HW
LayerCount: 2
Back
Fore
SplineSet
200 500 m 1
 350 500 l 25
 349 100 l 25
 450 100 l 25
 450 0 l 25
 150 0 l 25
 150 100 l 25
 250 100 l 25
 250 400 l 1
 200 400 l 29
 200 500 l 1
200 700 m 25
 350 700 l 25
 350 600 l 25
 200 600 l 25
 200 700 l 25
EndSplineSet
Validated: 1
EndChar

StartChar: onequarter
Encoding: 188 188 246
Width: 600
Flags: HW
LayerCount: 2
Back
Fore
SplineSet
350 200 m 29
 350 300 l 29
 450 300 l 29
 450 200 l 29
 400 200 l 29
 400 100 l 29
 350 100 l 29
 350 0 l 29
 450 0 l 29
 450 100 l 29
 550 100 l 29
 550 -200 l 29
 450 -200 l 29
 450 -100 l 29
 250 -100 l 29
 250 100 l 29
 300 100 l 29
 300 200 l 29
 350 200 l 29
100 600 m 25
 100 700 l 25
 200 700 l 25
 200 200 l 25
 100 200 l 25
 100 500 l 25
 50 500 l 25
 50 600 l 25
 100 600 l 25
EndSplineSet
Validated: 1
EndChar

StartChar: onehalf
Encoding: 189 189 247
Width: 600
Flags: HW
LayerCount: 2
Back
Fore
SplineSet
250 100 m 29
 250 200 l 25
 300 200 l 25
 300 300 l 25
 500 300 l 25
 500 200 l 25
 550 200 l 25
 550 100 l 25
 500 100 l 25
 500 0 l 25
 400 0 l 25
 400 -100 l 25
 550 -100 l 25
 550 -200 l 25
 250 -200 l 25
 250 -100 l 25
 300 -100 l 25
 300 0 l 25
 400 0 l 25
 400 100 l 25
 450 100 l 25
 450 200 l 25
 350 200 l 25
 350 100 l 25
 250 100 l 29
100 600 m 25
 100 700 l 25
 200 700 l 25
 200 200 l 25
 100 200 l 25
 100 500 l 25
 50 500 l 25
 50 600 l 25
 100 600 l 25
EndSplineSet
Validated: 5
EndChar

StartChar: threequarters
Encoding: 190 190 248
Width: 600
Flags: HW
LayerCount: 2
Back
Fore
SplineSet
400 200 m 25
 400 300 l 25
 500 300 l 25
 500 200 l 25
 450 200 l 25
 450 100 l 25
 400 100 l 25
 400 0 l 25
 500 0 l 25
 500 100 l 25
 600 100 l 25
 600 -200 l 25
 500 -200 l 25
 500 -100 l 25
 300 -100 l 25
 300 100 l 25
 350 100 l 25
 350 200 l 25
 400 200 l 25
50 600 m 1
 50 700 l 1
 300 700 l 1
 300 500 l 25
 250 500 l 25
 250 400 l 25
 300 400 l 25
 300 300 l 25
 250 300 l 25
 250 200 l 1
 50 200 l 1
 50 300 l 1
 200 300 l 1
 200 400 l 25
 100 400 l 25
 100 500 l 25
 200 500 l 25
 200 600 l 1
 50 600 l 1
EndSplineSet
Validated: 1
EndChar

StartChar: udieresis
Encoding: 252 252 249
Width: 600
Flags: HW
LayerCount: 2
Back
Fore
SplineSet
100 500 m 29
 200 500 l 25
 200 100 l 25
 400 100 l 25
 400 200 l 25
 450 200 l 25
 450 500 l 25
 550 500 l 25
 550 0 l 25
 450 0 l 25
 450 100 l 25
 400 100 l 25
 400 0 l 25
 150 0 l 25
 150 100 l 25
 100 100 l 25
 100 500 l 29
EndSplineSet
Validated: 5
EndChar

StartChar: oslash
Encoding: 248 248 250
Width: 600
Flags: W
HStem: 0 100<200 450> 400 100<200 450>
VStem: 100 100<100 400> 450 100<100 400>
LayerCount: 2
Back
Fore
SplineSet
200 400 m 29
 200 100 l 25
 450 100 l 25
 450 400 l 25
 200 400 l 29
150 500 m 25
 500 500 l 25
 500 400 l 25
 550 400 l 25
 550 100 l 25
 500 100 l 25
 500 0 l 25
 150 0 l 25
 150 100 l 25
 100 100 l 25
 100 400 l 25
 150 400 l 25
 150 500 l 25
EndSplineSet
Validated: 1
EndChar

StartChar: copyright
Encoding: 169 169 251
Width: 600
Flags: HW
LayerCount: 2
Back
Fore
SplineSet
200 400 m 29
 200 500 l 1
 400 500 l 25
 400 400 l 25
 250 400 l 25
 250 300 l 25
 400 300 l 25
 400 200 l 25
 200 200 l 25
 200 300 l 25
 150 300 l 25
 150 400 l 1
 200 400 l 29
150 500 m 25
 100 500 l 25
 100 200 l 25
 150 200 l 25
 150 100 l 25
 450 100 l 25
 450 200 l 25
 500 200 l 25
 500 500 l 25
 450 500 l 25
 450 600 l 25
 150 600 l 25
 150 500 l 25
100 600 m 25
 100 700 l 25
 500 700 l 25
 500 600 l 25
 550 600 l 25
 550 500 l 25
 600 500 l 25
 600 200 l 25
 550 200 l 25
 550 100 l 25
 500 100 l 25
 500 0 l 25
 100 0 l 25
 100 100 l 25
 50 100 l 25
 50 200 l 25
 0 200 l 25
 0 500 l 25
 50 500 l 25
 50 600 l 25
 100 600 l 25
EndSplineSet
Validated: 1
EndChar

StartChar: registered
Encoding: 174 174 252
Width: 600
Flags: HW
LayerCount: 2
Back
Fore
SplineSet
200 200 m 29
 200 500 l 25
 400 500 l 25
 400 400 l 25
 350 400 l 25
 350 300 l 25
 450 300 l 25
 450 200 l 25
 350 200 l 25
 350 300 l 25
 300 300 l 25
 300 200 l 25
 200 200 l 29
150 500 m 25
 100 500 l 25
 100 200 l 25
 150 200 l 25
 150 100 l 25
 450 100 l 25
 450 200 l 25
 500 200 l 25
 500 500 l 25
 450 500 l 25
 450 600 l 25
 150 600 l 25
 150 500 l 25
100 600 m 25
 100 700 l 25
 500 700 l 25
 500 600 l 25
 550 600 l 25
 550 500 l 25
 600 500 l 25
 600 200 l 25
 550 200 l 25
 550 100 l 25
 500 100 l 25
 500 0 l 25
 100 0 l 25
 100 100 l 25
 50 100 l 25
 50 200 l 25
 0 200 l 25
 0 500 l 25
 50 500 l 25
 50 600 l 25
 100 600 l 25
EndSplineSet
Validated: 5
EndChar

StartChar: uni00B2
Encoding: 178 178 253
Width: 600
Flags: HW
LayerCount: 2
Back
Fore
SplineSet
200 700 m 29
 200 800 l 25
 400 800 l 25
 400 700 l 25
 450 700 l 25
 450 600 l 25
 400 600 l 25
 400 500 l 25
 300 500 l 25
 300 400 l 25
 450 400 l 25
 450 300 l 25
 150 300 l 25
 150 400 l 25
 200 400 l 25
 200 500 l 25
 300 500 l 25
 300 600 l 25
 350 600 l 25
 350 700 l 25
 250 700 l 25
 250 600 l 25
 150 600 l 25
 150 700 l 25
 200 700 l 29
EndSplineSet
Validated: 5
EndChar

StartChar: uni00B3
Encoding: 179 179 254
Width: 600
Flags: HW
LayerCount: 2
Back
Fore
SplineSet
150 700 m 29
 150 800 l 29
 450 800 l 29
 450 600 l 29
 400 600 l 29
 400 500 l 29
 450 500 l 29
 450 400 l 29
 400 400 l 29
 400 300 l 29
 150 300 l 29
 150 400 l 29
 350 400 l 29
 350 500 l 29
 250 500 l 29
 250 600 l 29
 350 600 l 29
 350 700 l 29
 150 700 l 29
EndSplineSet
Validated: 1
EndChar

StartChar: uni00B9
Encoding: 185 185 255
Width: 600
Flags: HW
LayerCount: 2
Back
Fore
SplineSet
300 700 m 29
 300 800 l 25
 400 800 l 25
 400 400 l 25
 300 400 l 25
 300 600 l 25
 250 600 l 25
 250 700 l 25
 300 700 l 29
EndSplineSet
Validated: 1
EndChar

StartChar: Euro
Encoding: 8364 8364 256
Width: 600
Flags: HW
LayerCount: 2
Back
Fore
SplineSet
250 500 m 29
 400 500 l 25
 400 400 l 25
 200 400 l 25
 200 300 l 25
 400 300 l 25
 400 200 l 25
 250 200 l 25
 250 100 l 25
 450 100 l 25
 450 200 l 25
 550 200 l 25
 550 100 l 25
 500 100 l 25
 500 0 l 25
 200 0 l 25
 200 100 l 25
 150 100 l 25
 150 200 l 25
 50 200 l 25
 50 300 l 25
 100 300 l 25
 100 400 l 25
 50 400 l 25
 50 500 l 25
 150 500 l 25
 150 600 l 25
 200 600 l 25
 200 700 l 25
 500 700 l 25
 500 600 l 25
 550 600 l 25
 550 500 l 25
 450 500 l 25
 450 600 l 25
 250 600 l 25
 250 500 l 29
EndSplineSet
Validated: 1
EndChar

StartChar: uni20B4
Encoding: 8372 8372 257
Width: 600
Flags: HW
LayerCount: 2
Back
Fore
SplineSet
100 500 m 29
 100 600 l 25
 150 600 l 25
 150 700 l 25
 500 700 l 25
 500 600 l 25
 550 600 l 25
 550 400 l 25
 500 400 l 25
 500 300 l 25
 200 300 l 25
 200 100 l 25
 450 100 l 25
 450 200 l 25
 550 200 l 25
 550 100 l 25
 500 100 l 25
 500 0 l 25
 150 0 l 25
 150 100 l 25
 100 100 l 25
 100 300 l 25
 150 300 l 25
 150 400 l 25
 450 400 l 25
 450 600 l 25
 200 600 l 25
 200 500 l 25
 100 500 l 29
EndSplineSet
Validated: 1
EndChar

StartChar: radical
Encoding: 8730 8730 258
Width: 600
Flags: HW
LayerCount: 2
Back
Fore
SplineSet
0 200 m 29
 0 400 l 25
 100 400 l 25
 100 200 l 25
 150 200 l 25
 150 100 l 25
 200 100 l 25
 200 300 l 25
 250 300 l 25
 250 600 l 25
 300 600 l 25
 300 700 l 25
 600 700 l 25
 600 600 l 25
 350 600 l 25
 350 300 l 25
 300 300 l 25
 300 100 l 25
 250 100 l 25
 250 0 l 25
 100 0 l 25
 100 100 l 25
 50 100 l 25
 50 200 l 25
 0 200 l 29
EndSplineSet
Validated: 1
EndChar

StartChar: infinity
Encoding: 8734 8734 259
Width: 1200
Flags: HW
LayerCount: 2
Back
Fore
SplineSet
700 300 m 29
 750 300 l 25
 750 200 l 25
 900 200 l 25
 900 500 l 25
 750 500 l 25
 750 400 l 25
 700 400 l 25
 700 300 l 29
350 200 m 25
 500 200 l 25
 500 300 l 25
 550 300 l 25
 550 400 l 25
 500 400 l 25
 500 500 l 25
 350 500 l 25
 350 200 l 25
250 200 m 25
 250 500 l 25
 300 500 l 25
 300 600 l 25
 550 600 l 25
 550 500 l 25
 600 500 l 25
 600 400 l 25
 650 400 l 25
 650 500 l 25
 700 500 l 25
 700 600 l 25
 950 600 l 25
 950 500 l 25
 1000 500 l 25
 1000 200 l 25
 950 200 l 25
 950 100 l 25
 700 100 l 25
 700 200 l 25
 650 200 l 25
 650 300 l 25
 600 300 l 25
 600 200 l 25
 550 200 l 25
 550 100 l 25
 300 100 l 25
 300 200 l 25
 250 200 l 25
EndSplineSet
Validated: 1
EndChar

StartChar: uni2B50
Encoding: 11088 11088 260
Width: 600
Flags: HW
LayerCount: 2
Back
Fore
SplineSet
50 0 m 29
 50 100 l 25
 100 100 l 25
 100 200 l 25
 150 200 l 25
 150 300 l 25
 200 300 l 25
 200 400 l 25
 100 400 l 25
 100 500 l 25
 0 500 l 25
 0 600 l 25
 200 600 l 25
 200 700 l 25
 250 700 l 25
 250 800 l 25
 350 800 l 25
 350 700 l 25
 400 700 l 25
 400 600 l 25
 600 600 l 25
 600 500 l 25
 500 500 l 25
 500 400 l 25
 400 400 l 25
 400 300 l 25
 450 300 l 25
 450 200 l 25
 500 200 l 25
 500 100 l 25
 550 100 l 25
 550 0 l 25
 450 0 l 25
 450 100 l 25
 350 100 l 25
 350 200 l 25
 250 200 l 25
 250 100 l 25
 150 100 l 25
 150 0 l 25
 50 0 l 29
EndSplineSet
Validated: 1
EndChar

StartChar: uni274C
Encoding: 10060 10060 261
Width: 600
Flags: HW
LayerCount: 2
Back
Fore
SplineSet
150 400 m 29
 150 500 l 25
 250 500 l 25
 250 400 l 25
 350 400 l 25
 350 500 l 25
 450 500 l 25
 450 600 l 25
 550 600 l 25
 550 500 l 25
 450 500 l 25
 450 400 l 25
 400 400 l 25
 400 300 l 25
 450 300 l 25
 450 200 l 25
 550 200 l 25
 550 100 l 25
 450 100 l 25
 450 200 l 25
 350 200 l 25
 350 300 l 25
 250 300 l 25
 250 200 l 25
 150 200 l 25
 150 100 l 25
 50 100 l 25
 50 200 l 25
 150 200 l 25
 150 300 l 25
 200 300 l 25
 200 400 l 25
 150 400 l 29
50 500 m 25
 50 600 l 25
 150 600 l 25
 150 500 l 25
 50 500 l 25
EndSplineSet
Validated: 5
EndChar

StartChar: uni2713
Encoding: 10003 10003 262
Width: 600
Flags: HW
LayerCount: 2
Back
Fore
SplineSet
50 200 m 29
 50 300 l 1
 150 300 l 25
 150 200 l 25
 200 200 l 25
 200 100 l 25
 250 100 l 25
 250 200 l 25
 300 200 l 25
 300 300 l 25
 350 300 l 25
 350 400 l 25
 400 400 l 25
 400 500 l 25
 450 500 l 25
 450 600 l 25
 500 600 l 25
 500 700 l 25
 600 700 l 25
 600 600 l 25
 550 600 l 25
 550 500 l 25
 500 500 l 25
 500 400 l 25
 450 400 l 25
 450 300 l 25
 400 300 l 25
 400 200 l 25
 350 200 l 25
 350 100 l 25
 300 100 l 25
 300 0 l 25
 150 0 l 25
 150 100 l 25
 100 100 l 25
 100 200 l 1
 50 200 l 29
EndSplineSet
Validated: 1
EndChar

StartChar: uni2699
Encoding: 9881 9881 263
Width: 1200
Flags: HW
LayerCount: 2
Back
Fore
SplineSet
500 300 m 29
 550 300 l 25
 550 200 l 25
 650 200 l 25
 650 300 l 25
 700 300 l 25
 700 400 l 25
 650 400 l 25
 650 500 l 25
 550 500 l 25
 550 400 l 25
 500 400 l 25
 500 300 l 29
250 300 m 25
 250 400 l 25
 400 400 l 25
 400 601 l 25
 350 600 l 25
 350 700 l 25
 450 700 l 25
 450 600 l 25
 550 600 l 25
 550 800 l 25
 650 800 l 25
 650 600 l 25
 750 600 l 25
 750 700 l 25
 850 700 l 25
 850 600 l 25
 800 600 l 25
 800 400 l 25
 950 400 l 25
 950 300 l 25
 800 300 l 25
 800 100 l 25
 850 100 l 25
 850 0 l 25
 750 0 l 25
 750 100 l 25
 650 100 l 25
 650 -100 l 25
 550 -100 l 25
 550 100 l 25
 450 100 l 25
 450 0 l 25
 350 0 l 25
 350 100 l 25
 400 100 l 25
 400 300 l 25
 250 300 l 25
EndSplineSet
Validated: 1
EndChar

StartChar: uni2139
Encoding: 8505 8505 264
Width: 1200
Flags: HW
LayerCount: 2
Back
Fore
SplineSet
600 500 m 29
 600 600 l 25
 700 600 l 25
 700 500 l 25
 600 500 l 29
600 400 m 25
 700 400 l 25
 700 100 l 25
 600 100 l 25
 600 400 l 25
350 600 m 25
 300 600 l 25
 300 100 l 25
 350 100 l 25
 350 0 l 25
 950 0 l 25
 950 100 l 25
 1000 100 l 25
 1000 600 l 25
 950 600 l 25
 950 700 l 25
 350 700 l 25
 350 600 l 25
250 600 m 25
 250 700 l 25
 300 700 l 25
 300 800 l 25
 1000 800 l 25
 1000 700 l 25
 1050 700 l 25
 1050 600 l 25
 1100 600 l 25
 1100 100 l 25
 1050 100 l 25
 1050 0 l 25
 1000 0 l 25
 1000 -100 l 25
 300 -100 l 25
 300 0 l 25
 250 0 l 25
 250 100 l 25
 200 100 l 25
 200 600 l 25
 250 600 l 25
EndSplineSet
Validated: 1
EndChar

StartChar: uni2605
Encoding: 9733 9733 265
Width: 600
Flags: HW
LayerCount: 2
Back
Fore
SplineSet
50 0 m 29
 50 100 l 25
 100 100 l 25
 100 200 l 25
 150 200 l 25
 150 300 l 25
 200 300 l 25
 200 400 l 25
 100 400 l 25
 100 500 l 25
 0 500 l 25
 0 600 l 25
 200 600 l 25
 200 700 l 25
 250 700 l 25
 250 800 l 25
 350 800 l 25
 350 700 l 25
 400 700 l 25
 400 600 l 25
 600 600 l 25
 600 500 l 25
 500 500 l 25
 500 400 l 25
 400 400 l 25
 400 300 l 25
 450 300 l 25
 450 200 l 25
 500 200 l 25
 500 100 l 25
 550 100 l 25
 550 0 l 25
 450 0 l 25
 450 100 l 25
 350 100 l 25
 350 200 l 25
 250 200 l 25
 250 100 l 25
 150 100 l 25
 150 0 l 25
 50 0 l 29
EndSplineSet
Validated: 1
EndChar

StartChar: uni23CF
Encoding: 9167 9167 266
Width: 600
Flags: HW
LayerCount: 2
Back
Fore
SplineSet
50 0 m 25
 50 100 l 25
 550 100 l 25
 550 0 l 25
 50 0 l 25
50 200 m 29
 50 300 l 29
 100 300 l 29
 100 400 l 29
 150 400 l 29
 150 500 l 29
 200 500 l 29
 200 600 l 29
 250 600 l 29
 250 700 l 29
 350 700 l 29
 350 600 l 29
 400 600 l 29
 400 500 l 29
 450 500 l 29
 450 400 l 29
 500 400 l 29
 500 300 l 29
 550 300 l 29
 550 200 l 29
 50 200 l 29
EndSplineSet
Validated: 1
EndChar

StartChar: uni23E9
Encoding: 9193 9193 267
Width: 1200
Flags: HW
LayerCount: 2
Back
Fore
SplineSet
200 700 m 29
 300 700 l 29
 300 600 l 29
 400 600 l 29
 400 500 l 29
 500 500 l 29
 500 400 l 29
 600 400 l 29
 600 300 l 29
 500 300 l 29
 500 200 l 29
 400 200 l 29
 400 100 l 29
 300 100 l 29
 300 0 l 29
 200 0 l 29
 200 700 l 29
650 700 m 25
 750 700 l 25
 750 600 l 25
 850 600 l 25
 850 500 l 25
 950 500 l 25
 950 400 l 25
 1050 400 l 25
 1050 300 l 25
 950 300 l 25
 950 200 l 25
 850 200 l 25
 850 100 l 25
 750 100 l 25
 750 0 l 25
 650 0 l 25
 650 700 l 25
EndSplineSet
Validated: 1
EndChar

StartChar: uni23EA
Encoding: 9194 9194 268
Width: 1200
Flags: HW
LayerCount: 2
Back
Fore
SplineSet
1050 700 m 25
 1050 0 l 25
 950 0 l 25
 950 100 l 25
 850 100 l 25
 850 200 l 25
 750 200 l 25
 750 300 l 25
 650 300 l 25
 650 400 l 25
 750 400 l 25
 750 500 l 25
 850 500 l 25
 850 600 l 25
 950 600 l 25
 950 700 l 25
 1050 700 l 25
600 700 m 29
 600 0 l 29
 500 0 l 29
 500 100 l 29
 400 100 l 29
 400 200 l 29
 300 200 l 29
 300 300 l 29
 200 300 l 29
 200 400 l 29
 300 400 l 29
 300 500 l 29
 400 500 l 29
 400 600 l 29
 500 600 l 29
 500 700 l 29
 600 700 l 29
EndSplineSet
Validated: 1
EndChar

StartChar: uni23ED
Encoding: 9197 9197 269
Width: 1200
Flags: HW
LayerCount: 2
Back
Fore
SplineSet
1000 700 m 29
 1150 700 l 29
 1150 0 l 29
 1000 0 l 29
 1000 700 l 29
550 700 m 25
 650 700 l 25
 650 600 l 25
 750 600 l 25
 750 500 l 25
 850 500 l 25
 850 400 l 25
 950 400 l 25
 950 300 l 25
 850 300 l 25
 850 200 l 25
 750 200 l 25
 750 100 l 25
 650 100 l 25
 650 0 l 25
 550 0 l 25
 550 700 l 25
100 700 m 25
 200 700 l 25
 200 600 l 25
 300 600 l 25
 300 500 l 25
 400 500 l 25
 400 400 l 25
 500 400 l 25
 500 300 l 25
 400 300 l 25
 400 200 l 25
 300 200 l 25
 300 100 l 25
 200 100 l 25
 200 0 l 25
 100 0 l 25
 100 700 l 25
EndSplineSet
Validated: 1
EndChar

StartChar: uni23EE
Encoding: 9198 9198 270
Width: 1200
Flags: HW
LayerCount: 2
Back
Fore
SplineSet
100 700 m 29
 250 700 l 29
 250 0 l 29
 100 0 l 29
 100 700 l 29
1150 700 m 25
 1150 0 l 25
 1050 0 l 25
 1050 100 l 25
 950 100 l 25
 950 200 l 25
 850 200 l 25
 850 300 l 25
 750 300 l 25
 750 400 l 25
 850 400 l 25
 850 500 l 25
 950 500 l 25
 950 600 l 25
 1050 600 l 25
 1050 700 l 25
 1150 700 l 25
700 700 m 25
 700 0 l 25
 600 0 l 25
 600 100 l 25
 500 100 l 25
 500 200 l 25
 400 200 l 25
 400 300 l 25
 300 300 l 25
 300 400 l 25
 400 400 l 25
 400 500 l 25
 500 500 l 25
 500 600 l 25
 600 600 l 25
 600 700 l 25
 700 700 l 25
EndSplineSet
Validated: 1
EndChar

StartChar: uni23EF
Encoding: 9199 9199 271
Width: 1200
Flags: HW
LayerCount: 2
Back
Fore
SplineSet
150 700 m 25
 250 700 l 25
 250 600 l 25
 350 600 l 25
 350 500 l 25
 450 500 l 25
 450 400 l 25
 550 400 l 25
 550 300 l 25
 450 300 l 25
 450 200 l 25
 350 200 l 25
 350 100 l 25
 250 100 l 25
 250 0 l 25
 150 0 l 25
 150 700 l 25
650 700 m 29
 800 700 l 29
 800 0 l 29
 650 0 l 29
 650 700 l 29
950 700 m 29
 1100 700 l 29
 1100 0 l 29
 950 0 l 29
 950 700 l 29
EndSplineSet
Validated: 1
EndChar

StartChar: uni23F8
Encoding: 9208 9208 273
Width: 600
Flags: HW
LayerCount: 2
Back
Fore
SplineSet
100 700 m 29
 250 700 l 29
 250 0 l 29
 100 0 l 29
 100 700 l 29
400 700 m 29
 550 700 l 29
 550 0 l 29
 400 0 l 29
 400 700 l 29
EndSplineSet
Validated: 1
EndChar

StartChar: uni23F9
Encoding: 9209 9209 274
Width: 600
Flags: HW
LayerCount: 2
Back
Fore
SplineSet
50 700 m 29
 600 700 l 25
 600 0 l 25
 50 0 l 25
 50 700 l 29
EndSplineSet
Validated: 1
EndChar

StartChar: uni23FA
Encoding: 9210 9210 275
Width: 600
Flags: HW
LayerCount: 2
Back
Fore
SplineSet
0 500 m 29
 50 500 l 25
 50 600 l 25
 150 600 l 25
 150 700 l 25
 450 700 l 25
 450 600 l 25
 550 600 l 25
 550 500 l 25
 600 500 l 25
 600 200 l 25
 550 200 l 25
 550 100 l 25
 450 100 l 25
 450 0 l 25
 150 0 l 25
 150 100 l 25
 50 100 l 25
 50 200 l 25
 0 200 l 25
 0 500 l 29
EndSplineSet
Validated: 1
EndChar

StartChar: uni23FD
Encoding: 9213 9213 276
Width: 1200
Flags: HW
LayerCount: 2
Back
Fore
SplineSet
600 300 m 29
 600 800 l 1
 700 800 l 25
 700 300 l 1
 600 300 l 29
400 500 m 25
 400 600 l 25
 500 600 l 25
 500 500 l 25
 450 500 l 25
 450 400 l 25
 400 400 l 25
 400 100 l 25
 450 100 l 25
 450 0 l 25
 850 0 l 25
 850 100 l 25
 900 100 l 25
 900 400 l 25
 850 400 l 25
 850 500 l 25
 800 500 l 25
 800 600 l 25
 900 600 l 25
 900 500 l 25
 950 500 l 25
 950 400 l 25
 1000 400 l 25
 1000 100 l 25
 950 100 l 25
 950 0 l 25
 900 0 l 25
 900 -100 l 25
 400 -100 l 25
 400 0 l 25
 350 0 l 25
 350 100 l 25
 300 100 l 25
 300 400 l 25
 350 400 l 25
 350 500 l 25
 400 500 l 25
EndSplineSet
Validated: 1
EndChar

StartChar: uni2B58
Encoding: 11096 11096 277
Width: 1200
Flags: HW
LayerCount: 2
Back
Fore
SplineSet
600 200 m 29
 600 600 l 25
 700 600 l 25
 700 200 l 25
 600 200 l 29
450 200 m 25
 550 200 l 25
 550 100 l 25
 750 100 l 25
 750 200 l 25
 850 200 l 25
 850 300 l 25
 900 300 l 25
 900 500 l 25
 850 500 l 25
 850 600 l 25
 750 600 l 25
 750 700 l 25
 550 700 l 25
 550 600 l 25
 450 600 l 25
 450 500 l 25
 400 500 l 25
 400 300 l 25
 450 300 l 25
 450 200 l 25
400 600 m 25
 400 700 l 1
 500 700 l 25
 500 800 l 25
 800 800 l 25
 800 700 l 25
 900 700 l 25
 900 600 l 25
 950 600 l 25
 950 500 l 25
 1000 500 l 25
 1000 300 l 25
 950 300 l 25
 950 200 l 25
 900 200 l 25
 900 100 l 25
 800 100 l 25
 800 0 l 25
 500 0 l 25
 500 100 l 25
 400 100 l 25
 400 200 l 25
 350 200 l 25
 350 300 l 25
 300 300 l 25
 300 500 l 25
 350 500 l 25
 350 600 l 1
 400 600 l 25
EndSplineSet
Validated: 1
EndChar

StartChar: trademark
Encoding: 8482 8482 278
Width: 1200
Flags: HW
LayerCount: 2
Back
Fore
SplineSet
600 400 m 29
 600 700 l 25
 750 700 l 25
 750 600 l 25
 850 600 l 25
 850 700 l 25
 1000 700 l 25
 1000 400 l 25
 900 400 l 25
 900 600 l 25
 850 600 l 25
 850 500 l 25
 750 500 l 25
 750 600 l 25
 700 600 l 25
 700 400 l 25
 600 400 l 29
250 600 m 25
 250 701 l 25
 550 700 l 25
 550 600 l 1
 450 600 l 25
 450 400 l 1
 350 400 l 25
 350 600 l 25
 250 600 l 25
EndSplineSet
Validated: 5
EndChar

StartChar: uni25FC
Encoding: 9724 9724 279
Width: 600
Flags: HW
LayerCount: 2
Back
Fore
SplineSet
250 700 m 29
 350 700 l 25
 350 200 l 25
 250 200 l 25
 250 700 l 29
350 0 m 25
 250 0 l 1
 250 100 l 25
 350 100 l 1
 350 0 l 25
EndSplineSet
Validated: 1
EndChar

StartChar: filledbox
Encoding: 9632 9632 280
Width: 600
Flags: HW
LayerCount: 2
Back
Fore
SplineSet
0 0 m 29
 0 800 l 25
 600 800 l 25
 600 0 l 25
 0 0 l 29
EndSplineSet
Validated: 1
EndChar

StartChar: uni26C7
Encoding: 9927 9927 281
Width: 600
Flags: HW
LayerCount: 2
Back
Fore
SplineSet
350 500 m 29
 400 500 l 29
 400 600 l 29
 350 600 l 29
 350 500 l 29
250 500 m 25
 300 500 l 25
 300 600 l 25
 250 600 l 25
 250 500 l 25
50 -100 m 25
 50 0 l 25
 150 0 l 25
 150 100 l 1
 200 100 l 1
 200 200 l 1
 150 200 l 1
 150 400 l 25
 200 400 l 25
 200 500 l 25
 150 500 l 25
 150 600 l 25
 200 600 l 25
 200 700 l 25
 250 700 l 25
 250 800 l 25
 400 800 l 25
 400 700 l 25
 450 700 l 25
 450 600 l 25
 500 600 l 25
 500 500 l 25
 450 500 l 25
 450 400 l 25
 500 400 l 25
 500 200 l 1
 450 200 l 1
 450 100 l 1
 500 100 l 1
 500 0 l 25
 600 0 l 25
 600 -100 l 25
 450 -100 l 25
 450 0 l 25
 200 0 l 25
 200 -100 l 25
 50 -100 l 25
100 500 m 25
 150 500 l 25
 150 400 l 25
 100 400 l 25
 100 500 l 25
50 600 m 25
 100 600 l 25
 100 500 l 25
 50 500 l 25
 50 600 l 25
500 400 m 25
 500 500 l 25
 550 500 l 25
 550 400 l 25
 500 400 l 25
550 500 m 25
 550 600 l 25
 600 600 l 25
 600 500 l 25
 550 500 l 25
EndSplineSet
Validated: 5
EndChar

StartChar: uni2744
Encoding: 10052 10052 282
Width: 1200
Flags: HMW
LayerCount: 2
Back
Fore
SplineSet
650 500 m 29
 700 500 l 25
 700 600 l 25
 650 600 l 25
 650 500 l 29
500 500 m 25
 550 500 l 25
 550 600 l 25
 500 600 l 25
 500 500 l 25
550 400 m 25
 550 300 l 25
 650 300 l 25
 650 400 l 25
 550 400 l 25
150 -100 m 25
 150 100 l 1
 250 100 l 25
 250 0 l 25
 300 0 l 25
 300 100 l 25
 350 100 l 25
 350 200 l 25
 450 200 l 25
 450 300 l 25
 300 300 l 25
 300 200 l 25
 200 200 l 25
 200 300 l 25
 150 300 l 25
 150 400 l 25
 200 400 l 25
 200 500 l 25
 300 500 l 25
 300 400 l 25
 450 400 l 25
 450 500 l 25
 350 500 l 25
 350 600 l 25
 300 600 l 25
 300 700 l 25
 250 700 l 25
 250 600 l 25
 150 600 l 25
 150 800 l 25
 300 800 l 25
 300 700 l 25
 400 700 l 25
 400 600 l 25
 500 600 l 25
 500 700 l 25
 550 700 l 25
 550 800 l 25
 650 800 l 25
 650 700 l 25
 700 700 l 25
 700 600 l 25
 800 600 l 25
 800 700 l 25
 900 700 l 25
 900 800 l 25
 1050 800 l 25
 1050 600 l 25
 950 600 l 25
 950 700 l 25
 900 700 l 25
 900 600 l 25
 850 600 l 25
 850 500 l 25
 750 500 l 25
 750 400 l 25
 900 400 l 25
 900 500 l 25
 1000 500 l 25
 1000 400 l 25
 1050 400 l 25
 1050 300 l 25
 1000 300 l 25
 1000 200 l 25
 900 200 l 25
 900 300 l 25
 750 300 l 25
 750 200 l 25
 850 200 l 25
 850 100 l 25
 900 100 l 25
 900 0 l 25
 950 0 l 25
 950 100 l 25
 1050 100 l 25
 1050 -100 l 25
 900 -100 l 25
 900 0 l 25
 800 0 l 25
 800 100 l 25
 700 100 l 25
 700 200 l 25
 650 200 l 25
 650 100 l 25
 700 100 l 25
 700 0 l 25
 650 0 l 25
 650 -100 l 25
 550 -100 l 25
 550 0 l 25
 500 0 l 25
 500 100 l 25
 550 100 l 25
 550 200 l 25
 500 200 l 25
 500 100 l 25
 400 100 l 25
 400 0 l 25
 300 0 l 25
 300 -100 l 1
 150 -100 l 25
EndSplineSet
EndChar

StartChar: uni26A0
Encoding: 9888 9888 283
Width: 1200
Flags: HW
LayerCount: 2
Back
Fore
SplineSet
550 100 m 29
 550 200 l 25
 650 200 l 25
 650 100 l 25
 550 100 l 29
550 300 m 25
 550 500 l 25
 650 500 l 25
 650 300 l 25
 550 300 l 25
550 600 m 25
 500 600 l 25
 500 500 l 25
 450 500 l 25
 450 400 l 25
 400 400 l 25
 400 300 l 25
 350 300 l 25
 350 200 l 25
 300 200 l 25
 300 100 l 25
 250 100 l 25
 250 0 l 25
 950 0 l 25
 950 100 l 25
 900 100 l 25
 900 200 l 25
 850 200 l 25
 850 300 l 25
 800 300 l 25
 800 400 l 25
 750 400 l 25
 750 500 l 25
 700 500 l 25
 700 600 l 25
 650 600 l 25
 650 700 l 25
 550 700 l 25
 550 600 l 25
150 -100 m 25
 150 100 l 1
 200 100 l 25
 200 200 l 25
 250 200 l 25
 250 300 l 25
 300 300 l 25
 300 400 l 25
 350 400 l 25
 350 500 l 25
 400 500 l 25
 400 600 l 25
 450 600 l 25
 450 700 l 25
 500 700 l 25
 500 800 l 25
 700 800 l 25
 700 700 l 25
 750 700 l 25
 750 600 l 25
 800 600 l 25
 800 500 l 25
 850 500 l 25
 850 400 l 25
 900 400 l 25
 900 300 l 25
 950 300 l 25
 950 200 l 25
 1000 200 l 25
 1000 100 l 25
 1050 100 l 25
 1050 -100 l 1
 150 -100 l 25
EndSplineSet
Validated: 1
EndChar

StartChar: u1F642
Encoding: 128578 128578 284
Width: 1200
Flags: HW
LayerCount: 2
Back
Fore
SplineSet
750 500 m 25
 750 600 l 25
 850 600 l 25
 850 500 l 25
 750 500 l 25
450 500 m 25
 450 600 l 25
 550 600 l 25
 550 500 l 25
 450 500 l 25
400 200 m 25
 400 300 l 1
 500 300 l 25
 500 200 l 25
 800 200 l 25
 800 300 l 25
 900 300 l 25
 900 200 l 25
 850 200 l 25
 850 100 l 25
 450 100 l 25
 450 200 l 1
 400 200 l 25
400 0 m 25
 900 0 l 25
 900 100 l 25
 950 100 l 25
 950 600 l 25
 900 600 l 25
 900 700 l 25
 400 700 l 25
 400 600 l 25
 350 600 l 25
 350 100 l 25
 400 100 l 25
 400 0 l 25
250 100 m 25
 250 600 l 25
 300 600 l 25
 300 700 l 25
 350 700 l 25
 350 800 l 25
 950 800 l 25
 950 700 l 25
 1000 700 l 25
 1000 600 l 25
 1050 600 l 25
 1050 100 l 25
 1000 100 l 25
 1000 0 l 25
 950 0 l 25
 950 -100 l 25
 350 -100 l 25
 350 0 l 25
 300 0 l 25
 300 100 l 25
 250 100 l 25
EndSplineSet
Validated: 1
EndChar

StartChar: u1F643
Encoding: 128579 128579 285
Width: 1200
Flags: HW
LayerCount: 2
Back
Fore
SplineSet
400 400 m 29
 400 500 l 25
 450 500 l 25
 450 600 l 25
 850 600 l 25
 850 500 l 25
 900 500 l 25
 900 400 l 25
 800 400 l 25
 800 500 l 25
 500 500 l 25
 500 400 l 25
 400 400 l 29
750 100 m 25
 750 200 l 25
 850 200 l 25
 850 100 l 25
 750 100 l 25
450 100 m 25
 450 200 l 25
 550 200 l 25
 550 100 l 25
 450 100 l 25
400 0 m 25
 900 0 l 25
 900 100 l 25
 950 100 l 25
 950 600 l 25
 900 600 l 25
 900 700 l 25
 400 700 l 25
 400 600 l 25
 350 600 l 25
 350 100 l 25
 400 100 l 25
 400 0 l 25
250 100 m 25
 250 600 l 25
 300 600 l 25
 300 700 l 25
 350 700 l 25
 350 800 l 25
 950 800 l 25
 950 700 l 25
 1000 700 l 25
 1000 600 l 25
 1050 600 l 25
 1050 100 l 25
 1000 100 l 25
 1000 0 l 25
 950 0 l 25
 950 -100 l 25
 350 -100 l 25
 350 0 l 25
 300 0 l 25
 300 100 l 25
 250 100 l 25
EndSplineSet
Validated: 1
EndChar

StartChar: u1F604
Encoding: 128516 128516 286
Width: 1200
Flags: HW
LayerCount: 2
Back
Fore
SplineSet
450 100 m 29
 450 200 l 29
 400 200 l 29
 400 300 l 29
 900 300 l 29
 900 200 l 29
 850 200 l 29
 850 100 l 29
 450 100 l 29
700 400 m 25
 700 500 l 25
 750 500 l 25
 750 600 l 25
 850 600 l 25
 850 500 l 25
 900 500 l 25
 900 400 l 25
 850 400 l 25
 850 500 l 25
 750 500 l 25
 750 400 l 25
 700 400 l 25
400 400 m 25
 400 500 l 25
 450 500 l 25
 450 600 l 25
 550 600 l 25
 550 500 l 25
 600 500 l 25
 600 400 l 25
 550 400 l 25
 550 500 l 25
 450 500 l 25
 450 400 l 25
 400 400 l 25
400 0 m 25
 900 0 l 25
 900 100 l 25
 950 100 l 29
 950 600 l 25
 900 600 l 25
 900 700 l 25
 400 700 l 25
 400 600 l 25
 350 600 l 25
 350 100 l 25
 400 100 l 25
 400 0 l 25
250 100 m 25
 250 600 l 25
 300 600 l 25
 300 700 l 25
 350 700 l 25
 350 800 l 25
 950 800 l 25
 950 700 l 25
 1000 700 l 25
 1000 600 l 25
 1050 600 l 25
 1050 100 l 25
 1000 100 l 25
 1000 0 l 25
 950 0 l 25
 950 -100 l 25
 350 -100 l 25
 350 0 l 25
 300 0 l 25
 300 100 l 25
 250 100 l 25
EndSplineSet
Validated: 5
EndChar

StartChar: u1F606
Encoding: 128518 128518 287
Width: 1200
Flags: HW
LayerCount: 2
Back
Fore
SplineSet
400 600 m 29
 500 600 l 25
 500 500 l 25
 650 500 l 25
 650 600 l 25
 850 600 l 25
 850 500 l 25
 900 500 l 25
 900 400 l 25
 800 400 l 25
 800 500 l 25
 650 500 l 25
 650 400 l 25
 450 400 l 25
 450 500 l 25
 400 500 l 25
 400 600 l 29
450 100 m 25
 450 200 l 25
 400 200 l 25
 400 300 l 25
 900 300 l 25
 900 200 l 25
 850 200 l 25
 850 100 l 25
 450 100 l 25
950 100 m 1049
400 0 m 25
 900 0 l 25
 900 100 l 25
 950 100 l 25
 950 600 l 25
 900 600 l 25
 900 700 l 25
 400 700 l 25
 400 600 l 25
 350 600 l 25
 350 100 l 25
 400 100 l 25
 400 0 l 25
250 100 m 25
 250 600 l 25
 300 600 l 25
 300 700 l 25
 350 700 l 25
 350 800 l 25
 950 800 l 25
 950 700 l 25
 1000 700 l 25
 1000 600 l 25
 1050 600 l 25
 1050 100 l 25
 1000 100 l 25
 1000 0 l 25
 950 0 l 25
 950 -100 l 25
 350 -100 l 25
 350 0 l 25
 300 0 l 25
 300 100 l 25
 250 100 l 25
EndSplineSet
Validated: 5
EndChar

StartChar: u1F60E
Encoding: 128526 128526 288
Width: 1200
Flags: HW
LayerCount: 2
Back
Fore
SplineSet
400 200 m 29
 400 300 l 5
 500 300 l 29
 500 200 l 29
 800 200 l 29
 800 300 l 29
 900 300 l 29
 900 200 l 29
 850 200 l 29
 850 100 l 29
 450 100 l 29
 450 200 l 5
 400 200 l 29
400 400 m 1
 400 500 l 25
 450 500 l 25
 450 600 l 25
 850 600 l 25
 850 500 l 25
 900 500 l 25
 900 400 l 25
 700 400 l 25
 700 500 l 25
 600 500 l 1
 600 400 l 25
 400 400 l 1
400 0 m 25
 900 0 l 25
 900 100 l 25
 950 100 l 1
 950 500 l 1
 900 500 l 1
 900 700 l 1
 400 700 l 1
 400 500 l 1
 350 500 l 1
 350 100 l 1
 400 100 l 25
 400 0 l 25
250 100 m 25
 250 600 l 25
 300 600 l 25
 300 700 l 25
 350 700 l 25
 350 800 l 25
 950 800 l 25
 950 700 l 25
 1000 700 l 25
 1000 600 l 25
 1050 600 l 25
 1050 100 l 25
 1000 100 l 25
 1000 0 l 25
 950 0 l 25
 950 -100 l 25
 350 -100 l 25
 350 0 l 25
 300 0 l 25
 300 100 l 25
 250 100 l 25
EndSplineSet
Validated: 5
EndChar

StartChar: u1F621
Encoding: 128545 128545 289
Width: 1200
Flags: HW
LayerCount: 2
Back
Fore
SplineSet
450 100 m 25
 450 200 l 25
 500 200 l 25
 500 300 l 25
 800 300 l 25
 800 200 l 25
 850 200 l 25
 850 101 l 25
 750 100 l 25
 750 200 l 25
 550 200 l 25
 550 100 l 25
 450 100 l 25
700 400 m 5
 700 500 l 29
 750 500 l 29
 750 600 l 5
 900 600 l 1
 900 500 l 5
 800 500 l 5
 800 400 l 29
 700 400 l 5
500 400 m 29
 500 500 l 5
 400 500 l 5
 400 600 l 1
 550 600 l 5
 550 500 l 29
 600 500 l 29
 600 400 l 29
 500 400 l 29
400 0 m 25
 900 0 l 25
 900 100 l 25
 950 100 l 25
 950 600 l 25
 900 600 l 29
 900 700 l 25
 400 700 l 25
 400 600 l 29
 350 600 l 25
 350 100 l 25
 400 100 l 25
 400 0 l 25
250 100 m 25
 250 600 l 25
 300 600 l 25
 300 700 l 25
 350 700 l 25
 350 800 l 25
 950 800 l 25
 950 700 l 25
 1000 700 l 25
 1000 600 l 25
 1050 600 l 25
 1050 100 l 25
 1000 100 l 25
 1000 0 l 25
 950 0 l 25
 950 -100 l 25
 350 -100 l 25
 350 0 l 25
 300 0 l 25
 300 100 l 25
 250 100 l 25
EndSplineSet
Validated: 5
EndChar

StartChar: u1F620
Encoding: 128544 128544 290
Width: 1200
Flags: HW
LayerCount: 2
Back
Fore
SplineSet
700 400 m 1
 700 500 l 25
 750 500 l 25
 750 600 l 25
 850 600 l 25
 850 500 l 25
 800 500 l 1
 800 400 l 25
 700 400 l 1
500 400 m 25
 500 500 l 25
 450 500 l 25
 450 600 l 25
 550 600 l 25
 550 500 l 25
 600 500 l 25
 600 400 l 25
 500 400 l 25
450 100 m 29
 450 200 l 29
 500 200 l 29
 500 300 l 29
 800 300 l 29
 800 200 l 29
 850 200 l 29
 850 101 l 29
 750 100 l 29
 750 200 l 29
 550 200 l 29
 550 100 l 29
 450 100 l 29
400 0 m 25
 900 0 l 25
 900 100 l 25
 950 100 l 25
 950 600 l 25
 900 600 l 25
 900 700 l 25
 400 700 l 25
 400 600 l 25
 350 600 l 25
 350 100 l 25
 400 100 l 25
 400 0 l 25
250 100 m 25
 250 600 l 25
 300 600 l 25
 300 700 l 25
 350 700 l 25
 350 800 l 25
 950 800 l 25
 950 700 l 25
 1000 700 l 25
 1000 600 l 25
 1050 600 l 25
 1050 100 l 25
 1000 100 l 25
 1000 0 l 25
 950 0 l 25
 950 -100 l 25
 350 -100 l 25
 350 0 l 25
 300 0 l 25
 300 100 l 25
 250 100 l 25
EndSplineSet
Validated: 1
EndChar

StartChar: u1F62D
Encoding: 128557 128557 291
Width: 1200
Flags: HW
LayerCount: 2
Back
Fore
SplineSet
500 100 m 29
 500 300 l 25
 800 300 l 25
 800 100 l 25
 500 100 l 29
800 300 m 25
 800 500 l 25
 850 500 l 25
 850 400 l 25
 900 400 l 25
 900 300 l 25
 800 300 l 25
400 300 m 25
 400 400 l 25
 450 400 l 25
 450 500 l 25
 500 500 l 25
 500 300 l 25
 400 300 l 25
700 500 m 25
 700 600 l 25
 800 600 l 25
 800 500 l 25
 700 500 l 25
500 500 m 25
 500 600 l 25
 600 600 l 25
 600 500 l 25
 500 500 l 25
400 0 m 25
 900 0 l 25
 900 100 l 25
 950 100 l 25
 950 600 l 25
 900 600 l 25
 900 700 l 25
 400 700 l 25
 400 600 l 25
 350 600 l 25
 350 100 l 25
 400 100 l 25
 400 0 l 25
250 100 m 25
 250 600 l 25
 300 600 l 25
 300 700 l 25
 350 700 l 25
 350 800 l 25
 950 800 l 25
 950 700 l 25
 1000 700 l 25
 1000 600 l 25
 1050 600 l 25
 1050 100 l 25
 1000 100 l 25
 1000 0 l 25
 950 0 l 25
 950 -100 l 25
 350 -100 l 25
 350 0 l 25
 300 0 l 25
 300 100 l 25
 250 100 l 25
EndSplineSet
Validated: 5
EndChar

StartChar: u1F50C
Encoding: 128268 128268 292
Width: 600
Flags: HW
LayerCount: 2
Back
Fore
SplineSet
100 400 m 29
 100 600 l 25
 150 600 l 25
 150 800 l 25
 250 800 l 25
 250 600 l 25
 400 600 l 25
 400 800 l 25
 500 800 l 25
 500 600 l 25
 550 600 l 25
 550 400 l 25
 450 400 l 25
 450 300 l 25
 400 300 l 25
 400 150 l 25
 350 150 l 25
 350 -100 l 25
 300 -100 l 25
 300 150 l 25
 250 150 l 25
 250 300 l 25
 200 300 l 25
 200 400 l 25
 100 400 l 29
EndSplineSet
Validated: 1
EndChar

StartChar: u1F4FA
Encoding: 128250 128250 293
Width: 1200
Flags: HW
LayerCount: 2
Back
Fore
SplineSet
350 100 m 29
 850 100 l 25
 850 500 l 25
 350 500 l 25
 350 100 l 29
250 -100 m 25
 250 600 l 25
 500 600 l 25
 500 700 l 25
 400 700 l 25
 400 800 l 25
 500 800 l 25
 500 700 l 25
 700 700 l 25
 700 800 l 25
 800 800 l 25
 800 700 l 25
 700 700 l 25
 700 600 l 25
 950 600 l 25
 950 -100 l 25
 250 -100 l 25
EndSplineSet
Validated: 5
EndChar

StartChar: u1F4FB
Encoding: 128251 128251 294
Width: 1200
Flags: HW
LayerCount: 2
Back
Fore
SplineSet
650 150 m 29
 650 250 l 25
 700 250 l 25
 700 150 l 25
 650 150 l 29
400 50 m 25
 400 250 l 25
 500 250 l 25
 500 50 l 25
 400 50 l 25
350 0 m 25
 850 0 l 25
 850 200 l 25
 750 200 l 25
 750 300 l 25
 350 300 l 25
 350 0 l 25
250 -100 m 25
 250 300 l 25
 300 300 l 25
 300 400 l 25
 800 400 l 25
 800 300 l 25
 850 300 l 25
 850 800 l 25
 950 800 l 25
 950 700 l 25
 900 700 l 25
 900 500 l 25
 950 500 l 25
 950 -100 l 25
 250 -100 l 25
EndSplineSet
Validated: 1
EndChar

StartChar: u1F4FC
Encoding: 128252 128252 295
Width: 1200
Flags: HW
LayerCount: 2
Back
Fore
SplineSet
450 250 m 29
 550 250 l 25
 550 350 l 25
 450 350 l 25
 450 250 l 29
650 250 m 25
 750 250 l 25
 750 350 l 25
 650 350 l 25
 650 250 l 25
400 150 m 25
 400 250 l 25
 350 250 l 25
 350 350 l 25
 400 350 l 25
 400 450 l 25
 800 450 l 25
 800 350 l 25
 850 350 l 25
 850 250 l 25
 800 250 l 25
 800 150 l 25
 400 150 l 25
300 100 m 25
 900 100 l 25
 900 500 l 25
 300 500 l 25
 300 100 l 25
200 0 m 25
 200 600 l 25
 1000 600 l 25
 1000 0 l 25
 200 0 l 25
EndSplineSet
Validated: 1
EndChar

StartChar: u1F508
Encoding: 128264 128264 296
Width: 600
Flags: HW
LayerCount: 2
Back
Fore
SplineSet
250 200 m 29
 350 200 l 29
 350 100 l 29
 450 100 l 29
 450 0 l 29
 500 0 l 29
 500 700 l 29
 450 700 l 29
 450 600 l 29
 350 600 l 29
 350 500 l 29
 250 500 l 29
 250 200 l 29
100 300 m 29
 150 300 l 29
 150 400 l 29
 100 400 l 29
 100 300 l 29
0 200 m 29
 0 500 l 29
 200 500 l 29
 200 600 l 29
 300 600 l 29
 300 700 l 29
 400 700 l 29
 400 800 l 29
 600 800 l 29
 600 -100 l 29
 400 -100 l 29
 400 0 l 29
 300 0 l 29
 300 100 l 29
 200 100 l 29
 200 200 l 29
 0 200 l 29
EndSplineSet
Validated: 1
EndChar

StartChar: u1F507
Encoding: 128263 128263 297
Width: 600
Flags: HW
LayerCount: 2
Back
Fore
SplineSet
300 600 m 29
 300 700 l 25
 400 700 l 25
 400 800 l 25
 600 800 l 25
 600 -100 l 25
 400 -100 l 25
 400 0 l 25
 300 0 l 25
 300 100 l 25
 450 100 l 25
 450 0 l 25
 500 0 l 25
 500 700 l 25
 450 700 l 25
 450 600 l 25
 300 600 l 29
200 200 m 25
 200 300 l 25
 250 300 l 25
 250 400 l 25
 200 400 l 25
 200 500 l 25
 300 500 l 25
 300 400 l 25
 350 400 l 25
 350 500 l 25
 450 500 l 25
 450 400 l 25
 400 400 l 25
 400 300 l 25
 450 300 l 25
 450 200 l 25
 350 200 l 25
 350 300 l 25
 300 300 l 25
 300 200 l 25
 200 200 l 25
0 200 m 25
 0 500 l 25
 150 500 l 25
 150 400 l 25
 100 400 l 25
 100 300 l 25
 150 300 l 25
 150 200 l 25
 0 200 l 25
EndSplineSet
Validated: 1
EndChar

StartChar: u1F509
Encoding: 128265 128265 298
Width: 1200
Flags: HW
LayerCount: 2
Back
Fore
SplineSet
700 550 m 29
 800 550 l 29
 800 450 l 29
 850 450 l 29
 850 250 l 29
 800 250 l 29
 800 150 l 29
 700 150 l 29
 700 250 l 29
 750 250 l 29
 750 450 l 29
 700 450 l 29
 700 550 l 29
300 200 m 25
 400 200 l 25
 400 100 l 25
 500 100 l 25
 500 0 l 25
 550 0 l 25
 550 700 l 25
 500 700 l 25
 500 600 l 25
 400 600 l 25
 400 500 l 25
 300 500 l 25
 300 200 l 25
150 300 m 25
 200 300 l 25
 200 400 l 25
 150 400 l 25
 150 300 l 25
50 200 m 25
 50 500 l 25
 250 500 l 25
 250 600 l 25
 350 600 l 25
 350 700 l 25
 450 700 l 25
 450 800 l 25
 650 800 l 25
 650 -100 l 25
 450 -100 l 25
 450 0 l 25
 350 0 l 25
 350 100 l 25
 250 100 l 25
 250 200 l 25
 50 200 l 25
EndSplineSet
Validated: 1
EndChar

StartChar: u1F50A
Encoding: 128266 128266 299
Width: 1200
Flags: HW
LayerCount: 2
Back
Fore
SplineSet
900 550 m 29
 900 650 l 25
 1000 650 l 25
 1000 550 l 25
 1050 550 l 25
 1050 450 l 25
 1100 450 l 25
 1100 250 l 25
 1050 250 l 25
 1050 150 l 25
 1000 150 l 25
 1000 50 l 25
 900 50 l 25
 900 150 l 25
 950 150 l 25
 950 250 l 25
 1000 250 l 25
 1000 450 l 25
 950 450 l 25
 950 550 l 25
 900 550 l 29
750 550 m 25
 850 550 l 25
 850 450 l 25
 900 450 l 25
 900 250 l 25
 850 250 l 25
 850 150 l 25
 750 150 l 25
 750 250 l 25
 800 250 l 25
 800 450 l 25
 750 450 l 25
 750 550 l 25
350 200 m 25
 450 200 l 25
 450 100 l 25
 550 100 l 25
 550 0 l 25
 600 0 l 25
 600 700 l 25
 550 700 l 25
 550 600 l 25
 450 600 l 25
 450 500 l 25
 350 500 l 25
 350 200 l 25
200 300 m 25
 250 300 l 25
 250 400 l 25
 200 400 l 25
 200 300 l 25
100 200 m 25
 100 500 l 25
 300 500 l 25
 300 600 l 25
 400 600 l 25
 400 700 l 25
 500 700 l 25
 500 800 l 25
 700 800 l 25
 700 -100 l 25
 500 -100 l 25
 500 0 l 25
 400 0 l 25
 400 100 l 25
 300 100 l 25
 300 200 l 25
 100 200 l 25
EndSplineSet
Validated: 1
EndChar

StartChar: u1F50B
Encoding: 128267 128267 300
Width: 600
Flags: HW
LayerCount: 2
Back
Fore
SplineSet
250 300 m 25
 350 300 l 25
 350 400 l 25
 450 400 l 25
 450 500 l 25
 350 500 l 25
 350 600 l 25
 250 600 l 25
 250 500 l 25
 150 500 l 25
 150 400 l 25
 250 400 l 25
 250 300 l 25
150 0 m 1
 450 0 l 25
 450 100 l 1
 150 100 l 29
 150 0 l 1
50 -100 m 25
 50 700 l 25
 200 700 l 25
 200 800 l 25
 400 800 l 25
 400 700 l 25
 550 700 l 25
 550 -100 l 25
 50 -100 l 25
EndSplineSet
Validated: 1
EndChar

StartChar: u1F50D
Encoding: 128269 128269 301
Width: 600
Flags: HW
LayerCount: 2
Back
Fore
SplineSet
200 300 m 29
 400 300 l 25
 400 400 l 25
 450 400 l 25
 450 600 l 25
 400 600 l 25
 400 700 l 25
 200 700 l 25
 200 600 l 25
 150 600 l 25
 150 400 l 25
 200 400 l 25
 200 300 l 29
50 400 m 25
 50 600 l 25
 100 600 l 25
 100 700 l 25
 150 700 l 25
 150 800 l 25
 450 800 l 25
 450 700 l 25
 500 700 l 25
 500 600 l 25
 550 600 l 25
 550 400 l 25
 500 400 l 25
 500 200 l 25
 550 200 l 25
 550 100 l 25
 600 100 l 25
 600 -100 l 25
 500 -100 l 25
 500 0 l 25
 450 0 l 25
 450 100 l 25
 400 100 l 25
 400 200 l 25
 150 200 l 25
 150 300 l 25
 100 300 l 25
 100 400 l 25
 50 400 l 25
EndSplineSet
Validated: 1
EndChar

StartChar: u1F50E
Encoding: 128270 128270 302
Width: 600
Flags: HW
LayerCount: 2
Back
Fore
SplineSet
250 300 m 29
 450 300 l 25
 450 400 l 25
 500 400 l 25
 500 600 l 25
 450 600 l 25
 450 700 l 25
 250 700 l 25
 250 600 l 25
 200 600 l 25
 200 400 l 25
 250 400 l 25
 250 300 l 29
100 400 m 25
 100 600 l 25
 150 600 l 25
 150 700 l 25
 200 700 l 25
 200 800 l 25
 500 800 l 25
 500 700 l 25
 550 700 l 25
 550 600 l 25
 600 600 l 25
 600 400 l 25
 550 400 l 25
 550 300 l 25
 500 300 l 25
 500 200 l 25
 300 200 l 25
 300 100 l 25
 250 100 l 25
 250 0 l 25
 200 0 l 25
 200 -100 l 25
 100 -100 l 25
 100 100 l 25
 150 100 l 25
 150 200 l 25
 200 200 l 25
 200 300 l 25
 150 300 l 25
 150 400 l 25
 100 400 l 25
EndSplineSet
Validated: 1
EndChar

StartChar: u1F512
Encoding: 128274 128274 303
Width: 600
Flags: HW
LayerCount: 2
Back
Fore
SplineSet
500 500 m 25
 500 600 l 25
 450 600 l 25
 450 700 l 25
 250 700 l 25
 250 600 l 25
 200 600 l 25
 200 500 l 25
 500 500 l 25
300 100 m 29
 400 100 l 29
 400 300 l 29
 450 300 l 29
 450 400 l 29
 250 400 l 29
 250 300 l 29
 300 300 l 29
 300 100 l 29
100 0 m 25
 100 600 l 25
 150 600 l 25
 150 700 l 25
 200 700 l 25
 200 800 l 25
 500 800 l 25
 500 700 l 25
 550 700 l 25
 550 600 l 25
 600 600 l 25
 600 0 l 25
 100 0 l 25
EndSplineSet
Validated: 1
EndChar

StartChar: u1F513
Encoding: 128275 128275 304
Width: 600
Flags: HW
LayerCount: 2
Back
Fore
SplineSet
300 100 m 29
 400 100 l 29
 400 300 l 29
 450 300 l 29
 450 400 l 29
 250 400 l 29
 250 300 l 29
 300 300 l 29
 300 100 l 29
450 600 m 25
 450 700 l 25
 250 700 l 25
 250 600 l 25
 200 600 l 25
 200 500 l 25
 600 500 l 25
 600 0 l 25
 100 0 l 25
 100 600 l 25
 150 600 l 25
 150 700 l 25
 200 700 l 25
 200 800 l 25
 500 800 l 25
 500 700 l 25
 550 700 l 25
 550 600 l 25
 450 600 l 25
EndSplineSet
Validated: 1
EndChar

StartChar: u1F514
Encoding: 128276 128276 305
Width: 1200
Flags: HW
LayerCount: 2
Back
Fore
SplineSet
600 0 m 29
 650 0 l 25
 650 100 l 25
 600 100 l 25
 600 0 l 29
300 100 m 25
 300 300 l 25
 350 300 l 25
 350 500 l 25
 400 500 l 25
 400 600 l 25
 450 600 l 25
 450 700 l 25
 550 700 l 25
 550 800 l 25
 700 800 l 25
 700 700 l 25
 800 700 l 25
 800 600 l 25
 850 600 l 25
 850 500 l 25
 900 500 l 25
 900 300 l 25
 950 300 l 25
 950 100 l 25
 750 100 l 25
 750 0 l 25
 700 0 l 25
 700 -100 l 25
 550 -100 l 25
 550 0 l 25
 500 0 l 25
 500 100 l 25
 300 100 l 25
EndSplineSet
Validated: 1
EndChar

StartChar: u1F515
Encoding: 128277 128277 306
Width: 1200
Flags: HW
LayerCount: 2
Back
Fore
SplineSet
500 0 m 29
 500 100 l 25
 550 100 l 25
 550 200 l 25
 500 200 l 25
 500 300 l 25
 600 300 l 25
 600 200 l 25
 650 200 l 25
 650 300 l 25
 750 300 l 25
 750 200 l 25
 700 200 l 25
 700 100 l 25
 750 100 l 25
 750 0 l 25
 650 0 l 25
 650 100 l 25
 600 100 l 25
 600 0 l 25
 500 0 l 29
550 700 m 25
 550 800 l 25
 700 800 l 25
 700 700 l 25
 800 700 l 25
 800 600 l 25
 850 600 l 25
 850 500 l 25
 900 500 l 25
 900 300 l 25
 950 300 l 25
 950 100 l 25
 800 100 l 25
 800 200 l 25
 850 200 l 25
 850 300 l 25
 800 300 l 25
 800 500 l 25
 750 500 l 25
 750 600 l 25
 500 600 l 25
 500 500 l 25
 450 500 l 25
 450 300 l 25
 400 300 l 25
 400 200 l 25
 450 200 l 25
 450 100 l 25
 300 100 l 25
 300 300 l 25
 350 300 l 25
 350 500 l 25
 400 500 l 25
 400 600 l 25
 450 600 l 25
 450 700 l 25
 550 700 l 25
EndSplineSet
Validated: 1
EndChar

StartChar: u1F517
Encoding: 128279 128279 307
Width: 1200
Flags: HW
LayerCount: 2
Back
Fore
SplineSet
800 400 m 29
 800 300 l 25
 750 300 l 25
 750 200 l 25
 600 200 l 25
 600 0 l 25
 950 0 l 25
 950 400 l 25
 800 400 l 29
350 700 m 25
 350 300 l 25
 500 300 l 25
 500 400 l 25
 550 400 l 25
 550 500 l 25
 700 500 l 25
 700 700 l 25
 350 700 l 25
300 700 m 25
 300 800 l 25
 750 800 l 25
 750 700 l 25
 800 700 l 25
 800 500 l 25
 1000 500 l 25
 1000 400 l 25
 1050 400 l 25
 1050 0 l 25
 1000 0 l 25
 1000 -100 l 25
 550 -100 l 25
 550 0 l 25
 500 0 l 25
 500 200 l 25
 300 200 l 25
 300 300 l 25
 250 300 l 25
 250 700 l 25
 300 700 l 25
EndSplineSet
Validated: 1
EndChar

StartChar: u1F51E
Encoding: 128286 128286 308
Width: 600
Flags: HW
LayerCount: 2
Back
Fore
SplineSet
500 100 m 29
 500 200 l 25
 450 200 l 25
 450 300 l 25
 500 300 l 25
 500 400 l 25
 550 400 l 25
 550 300 l 25
 600 300 l 25
 600 200 l 25
 550 200 l 25
 550 100 l 25
 500 100 l 29
250 300 m 25
 300 300 l 25
 300 400 l 25
 250 400 l 25
 250 300 l 25
250 100 m 25
 300 100 l 25
 300 200 l 25
 250 200 l 25
 250 100 l 25
200 0 m 25
 200 100 l 25
 150 100 l 25
 150 200 l 25
 200 200 l 25
 200 300 l 25
 150 300 l 25
 150 400 l 25
 200 400 l 25
 200 500 l 25
 350 500 l 25
 350 400 l 25
 400 400 l 25
 400 300 l 25
 350 300 l 25
 350 200 l 25
 400 200 l 25
 400 100 l 25
 350 100 l 25
 350 0 l 25
 200 0 l 25
0 0 m 25
 0 400 l 25
 50 400 l 25
 50 500 l 25
 100 500 l 25
 100 0 l 25
 0 0 l 25
EndSplineSet
Validated: 1
EndChar

StartChar: u1F520
Encoding: 128288 128288 309
Width: 600
Flags: HW
LayerCount: 2
Back
Fore
SplineSet
400 0 m 29
 450 0 l 25
 450 200 l 25
 400 200 l 25
 400 0 l 29
300 -100 m 25
 300 300 l 25
 500 300 l 25
 500 200 l 25
 550 200 l 25
 550 0 l 25
 500 0 l 25
 500 -100 l 25
 300 -100 l 25
250 300 m 25
 250 200 l 25
 100 200 l 25
 100 0 l 25
 250 0 l 25
 250 -100 l 25
 50 -100 l 25
 50 0 l 25
 0 0 l 25
 0 200 l 25
 50 200 l 25
 50 300 l 25
 250 300 l 25
300 400 m 25
 300 800 l 25
 450 800 l 25
 450 700 l 25
 550 700 l 25
 550 600 l 25
 500 600 l 25
 500 500 l 25
 550 500 l 25
 550 400 l 25
 300 400 l 25
0 400 m 25
 0 700 l 25
 50 700 l 25
 50 800 l 25
 200 800 l 25
 200 700 l 25
 250 700 l 25
 250 400 l 25
 150 400 l 25
 150 500 l 25
 100 500 l 25
 100 400 l 25
 0 400 l 25
EndSplineSet
Validated: 1
EndChar

StartChar: u1F521
Encoding: 128289 128289 310
Width: 600
Flags: HW
LayerCount: 2
Back
Fore
SplineSet
400 0 m 29
 450 0 l 25
 450 100 l 25
 400 100 l 25
 400 0 l 29
300 0 m 25
 300 100 l 25
 350 100 l 25
 350 200 l 25
 450 200 l 25
 450 300 l 25
 550 300 l 25
 550 0 l 25
 600 0 l 25
 600 -100 l 25
 350 -100 l 25
 350 0 l 25
 300 0 l 25
100 100 m 25
 100 0 l 25
 250 0 l 25
 250 -100 l 25
 50 -100 l 25
 50 0 l 25
 0 0 l 25
 0 100 l 25
 50 100 l 25
 50 200 l 25
 250 200 l 25
 250 100 l 25
 100 100 l 25
450 500 m 25
 500 500 l 25
 500 600 l 25
 450 600 l 25
 450 500 l 25
350 400 m 25
 350 800 l 25
 450 800 l 25
 450 700 l 25
 550 700 l 25
 550 600 l 25
 600 600 l 25
 600 500 l 25
 550 500 l 25
 550 400 l 25
 350 400 l 25
100 500 m 25
 150 500 l 25
 150 600 l 25
 100 600 l 25
 100 500 l 25
0 500 m 25
 0 600 l 25
 50 600 l 25
 50 700 l 25
 250 700 l 25
 250 500 l 25
 300 500 l 25
 300 400 l 25
 50 400 l 25
 50 500 l 25
 0 500 l 25
EndSplineSet
Validated: 1
EndChar

StartChar: u1F522
Encoding: 128290 128290 311
Width: 600
Flags: HW
LayerCount: 2
Back
Fore
SplineSet
450 300 m 29
 450 200 l 25
 400 200 l 25
 400 100 l 25
 500 100 l 25
 500 200 l 25
 600 200 l 25
 600 -100 l 25
 500 -100 l 25
 500 0 l 25
 300 0 l 25
 300 200 l 25
 350 200 l 25
 350 300 l 25
 450 300 l 29
0 200 m 25
 0 300 l 25
 250 300 l 25
 250 0 l 25
 200 0 l 25
 200 -100 l 25
 0 -100 l 25
 0 0 l 25
 100 0 l 25
 100 100 l 25
 150 100 l 25
 150 200 l 25
 0 200 l 25
350 400 m 25
 350 500 l 25
 400 500 l 25
 400 600 l 25
 500 600 l 25
 500 700 l 25
 350 700 l 25
 350 800 l 25
 550 800 l 25
 550 700 l 25
 600 700 l 25
 600 600 l 25
 500 600 l 25
 500 500 l 25
 600 500 l 25
 600 400 l 25
 350 400 l 25
100 400 m 25
 100 600 l 25
 50 600 l 25
 50 700 l 25
 100 700 l 25
 100 800 l 25
 200 800 l 25
 200 400 l 25
 100 400 l 25
EndSplineSet
Validated: 5
EndChar

StartChar: u1F523
Encoding: 128291 128291 312
Width: 600
Flags: HW
LayerCount: 2
Back
Fore
SplineSet
250 500 m 29
 250 600 l 25
 300 600 l 25
 300 700 l 25
 350 700 l 25
 350 800 l 25
 500 800 l 25
 500 700 l 25
 550 700 l 25
 550 600 l 25
 600 600 l 25
 600 500 l 25
 500 500 l 25
 500 600 l 25
 450 600 l 25
 450 700 l 25
 400 700 l 25
 400 600 l 25
 350 600 l 25
 350 500 l 25
 250 500 l 29
0 400 m 25
 0 500 l 25
 100 500 l 25
 100 400 l 25
 0 400 l 25
0 600 m 25
 0 800 l 25
 100 800 l 25
 100 600 l 25
 0 600 l 25
EndSplineSet
Validated: 1
EndChar

StartChar: u1F524
Encoding: 128292 128292 313
Width: 1200
Flags: HW
LayerCount: 2
Back
Fore
SplineSet
950 0 m 29
 950 100 l 25
 900 100 l 25
 900 400 l 25
 950 400 l 25
 950 500 l 25
 1150 500 l 25
 1150 400 l 25
 1000 400 l 25
 1000 100 l 25
 1150 100 l 25
 1150 0 l 25
 950 0 l 29
550 100 m 25
 700 100 l 25
 700 400 l 25
 600 400 l 25
 600 300 l 25
 550 300 l 25
 550 100 l 25
450 0 m 25
 450 650 l 25
 550 650 l 25
 550 400 l 25
 600 400 l 25
 600 500 l 25
 750 500 l 25
 750 400 l 25
 800 400 l 25
 800 100 l 25
 750 100 l 25
 750 0 l 25
 450 0 l 25
150 100 m 25
 250 100 l 25
 250 200 l 25
 150 200 l 25
 150 100 l 25
50 100 m 25
 50 200 l 25
 100 200 l 25
 100 300 l 25
 250 300 l 25
 250 400 l 25
 100 400 l 25
 100 500 l 25
 300 500 l 25
 300 400 l 25
 350 400 l 25
 350 0 l 25
 100 0 l 25
 100 100 l 25
 50 100 l 25
EndSplineSet
Validated: 5
EndChar

StartChar: u1F4BE
Encoding: 128190 128190 314
Width: 1200
Flags: HW
LayerCount: 2
Back
Fore
SplineSet
500 150 m 29
 700 150 l 25
 700 350 l 25
 500 350 l 25
 500 150 l 29
600 600 m 25
 600 800 l 25
 800 800 l 25
 800 600 l 25
 600 600 l 25
250 0 m 25
 250 800 l 25
 350 800 l 25
 350 500 l 25
 850 500 l 25
 850 800 l 25
 900 800 l 25
 900 700 l 25
 950 700 l 25
 950 0 l 25
 250 0 l 25
EndSplineSet
Validated: 1
EndChar

StartChar: u1F4BF
Encoding: 128191 128191 315
Width: 1200
Flags: HW
LayerCount: 2
Back
Fore
SplineSet
550 300 m 29
 600 300 l 25
 600 400 l 25
 550 400 l 25
 550 300 l 29
450 300 m 25
 450 400 l 25
 500 400 l 25
 500 500 l 25
 650 500 l 25
 650 400 l 25
 700 400 l 25
 700 300 l 25
 650 300 l 25
 650 200 l 25
 500 200 l 25
 500 300 l 25
 450 300 l 25
350 500 m 25
 300 500 l 25
 300 200 l 25
 350 200 l 25
 350 100 l 25
 450 100 l 25
 450 0 l 25
 700 0 l 25
 700 100 l 25
 800 100 l 25
 800 200 l 25
 850 200 l 25
 850 500 l 25
 800 500 l 25
 800 600 l 25
 700 600 l 25
 700 700 l 25
 450 700 l 25
 450 600 l 25
 350 600 l 25
 350 500 l 25
200 200 m 25
 200 500 l 25
 250 500 l 25
 250 600 l 25
 300 600 l 25
 300 700 l 25
 400 700 l 25
 400 800 l 25
 750 800 l 25
 750 700 l 25
 850 700 l 25
 850 600 l 25
 900 600 l 25
 900 500 l 25
 950 500 l 25
 950 200 l 25
 900 200 l 25
 900 100 l 25
 850 100 l 25
 850 0 l 25
 750 0 l 25
 750 -100 l 25
 400 -100 l 25
 400 0 l 25
 300 0 l 25
 300 100 l 25
 250 100 l 25
 250 200 l 25
 200 200 l 25
EndSplineSet
Validated: 1
EndChar

StartChar: u1F4C0
Encoding: 128192 128192 316
Width: 1200
Flags: HW
LayerCount: 2
Back
Fore
SplineSet
1000 300 m 29
 1050 300 l 25
 1050 400 l 25
 1000 400 l 25
 1000 300 l 29
900 200 m 25
 900 500 l 25
 1100 500 l 25
 1100 400 l 25
 1150 400 l 25
 1150 300 l 25
 1100 300 l 25
 1100 200 l 25
 900 200 l 25
600 300 m 25
 600 500 l 25
 700 500 l 25
 700 300 l 25
 750 300 l 25
 750 500 l 25
 850 500 l 25
 850 300 l 25
 800 300 l 25
 800 200 l 25
 650 200 l 25
 650 300 l 25
 600 300 l 25
400 300 m 25
 450 300 l 25
 450 400 l 25
 400 400 l 25
 400 300 l 25
300 200 m 25
 300 500 l 25
 500 500 l 25
 500 400 l 25
 550 400 l 25
 550 300 l 25
 500 300 l 25
 500 200 l 25
 300 200 l 25
50 200 m 25
 50 500 l 25
 100 500 l 25
 100 600 l 25
 150 600 l 25
 150 700 l 25
 250 700 l 25
 250 800 l 25
 600 800 l 25
 600 700 l 25
 700 700 l 25
 700 600 l 25
 550 600 l 25
 550 700 l 25
 300 700 l 25
 300 600 l 25
 200 600 l 25
 200 500 l 25
 150 500 l 25
 150 200 l 25
 200 200 l 25
 200 100 l 25
 300 100 l 25
 300 0 l 25
 550 0 l 25
 550 100 l 25
 700 100 l 25
 700 0 l 25
 600 0 l 25
 600 -100 l 25
 250 -100 l 25
 250 0 l 25
 150 0 l 25
 150 100 l 25
 100 100 l 25
 100 200 l 25
 50 200 l 25
EndSplineSet
Validated: 1
EndChar

StartChar: u1F4C1
Encoding: 128193 128193 317
Width: 1200
Flags: HW
LayerCount: 2
Back
Fore
SplineSet
250 600 m 29
 400 600 l 25
 400 700 l 25
 250 700 l 25
 250 600 l 29
250 100 m 25
 850 100 l 25
 850 600 l 25
 500 600 l 25
 500 500 l 25
 250 500 l 25
 250 100 l 25
150 0 m 25
 150 700 l 25
 200 700 l 25
 200 800 l 25
 450 800 l 25
 450 700 l 25
 900 700 l 25
 900 600 l 25
 950 600 l 25
 950 0 l 25
 150 0 l 25
EndSplineSet
Validated: 1
EndChar

StartChar: u1F4C2
Encoding: 128194 128194 318
Width: 1200
Flags: HW
LayerCount: 2
Back
Fore
SplineSet
250 300 m 29
 300 300 l 25
 300 400 l 25
 350 400 l 25
 350 500 l 25
 850 500 l 25
 850 600 l 25
 400 600 l 25
 400 700 l 25
 250 700 l 25
 250 300 l 29
300 100 m 25
 900 100 l 25
 900 200 l 25
 950 200 l 25
 950 300 l 25
 1000 300 l 25
 1000 400 l 25
 400 400 l 25
 400 300 l 25
 350 300 l 25
 350 200 l 25
 300 200 l 25
 300 100 l 25
150 0 m 25
 150 700 l 25
 200 700 l 25
 200 800 l 25
 449 800 l 25
 450 700 l 25
 900 700 l 25
 900 600 l 25
 950 600 l 25
 950 500 l 25
 1050 500 l 25
 1050 400 l 25
 1100 400 l 25
 1100 300 l 25
 1050 300 l 25
 1050 200 l 25
 1000 200 l 25
 1000 100 l 25
 950 100 l 25
 950 0 l 25
 150 0 l 25
EndSplineSet
Validated: 1
EndChar

StartChar: u1F4C4
Encoding: 128196 128196 319
Width: 600
Flags: HW
LayerCount: 2
Back
Fore
SplineSet
400 500 m 29
 450 500 l 25
 450 600 l 25
 400 600 l 25
 400 500 l 29
100 700 m 25
 100 100 l 25
 500 100 l 25
 500 400 l 25
 300 400 l 25
 300 700 l 25
 100 700 l 25
0 0 m 25
 0 800 l 1
 450 800 l 25
 450 700 l 25
 500 700 l 25
 500 600 l 25
 550 600 l 25
 550 500 l 25
 600 500 l 25
 600 0 l 1
 0 0 l 25
EndSplineSet
Validated: 1
EndChar

StartChar: u1F600
Encoding: 128512 128512 320
Width: 1200
Flags: HW
LayerCount: 2
Back
Fore
SplineSet
400 300 m 25
 400 400 l 25
 499 400 l 25
 500 300 l 25
 800 300 l 25
 800 400 l 25
 900 400 l 25
 900 300 l 25
 850 300 l 25
 850 200 l 25
 800 200 l 25
 800 100 l 25
 500 100 l 25
 500 200 l 25
 450 200 l 25
 450 300 l 25
 400 300 l 25
750 500 m 29
 750 600 l 29
 850 600 l 29
 850 500 l 29
 750 500 l 29
450 500 m 29
 450 600 l 29
 550 600 l 29
 550 500 l 29
 450 500 l 29
400 0 m 25
 900 0 l 25
 900 100 l 25
 950 100 l 25
 950 600 l 25
 900 600 l 25
 900 700 l 25
 400 700 l 25
 400 600 l 25
 350 600 l 25
 350 100 l 25
 400 100 l 25
 400 0 l 25
250 100 m 25
 250 600 l 25
 300 600 l 25
 300 700 l 25
 350 700 l 25
 350 800 l 25
 950 800 l 25
 950 700 l 25
 1000 700 l 25
 1000 600 l 25
 1050 600 l 25
 1050 100 l 25
 1000 100 l 25
 1000 0 l 25
 950 0 l 25
 950 -100 l 25
 350 -100 l 25
 350 0 l 25
 300 0 l 25
 300 100 l 25
 250 100 l 25
EndSplineSet
Validated: 1
EndChar

StartChar: u1F609
Encoding: 128521 128521 321
Width: 1200
Flags: HW
LayerCount: 2
Back
Fore
SplineSet
700 500 m 29
 700 600 l 25
 850 600 l 25
 850 500 l 25
 700 500 l 29
450 500 m 25
 450 600 l 25
 500 600 l 25
 500 500 l 25
 450 500 l 25
450 200 m 25
 450 300 l 25
 550 300 l 25
 550 200 l 25
 750 200 l 25
 750 300 l 25
 850 300 l 25
 850 200 l 25
 800 200 l 25
 800 100 l 25
 500 100 l 25
 500 200 l 25
 450 200 l 25
400 0 m 25
 900 0 l 25
 900 100 l 25
 950 100 l 25
 950 600 l 25
 900 600 l 25
 900 700 l 25
 400 700 l 25
 400 600 l 25
 350 600 l 25
 350 100 l 25
 400 100 l 25
 400 0 l 25
250 100 m 25
 250 600 l 25
 300 600 l 25
 300 700 l 25
 350 700 l 25
 350 800 l 25
 950 800 l 25
 950 700 l 25
 1000 700 l 25
 1000 600 l 25
 1050 600 l 25
 1050 100 l 25
 1000 100 l 25
 1000 0 l 25
 950 0 l 25
 950 -100 l 25
 350 -100 l 25
 350 0 l 25
 300 0 l 25
 300 100 l 25
 250 100 l 25
EndSplineSet
Validated: 1
EndChar

StartChar: u1F4F2
Encoding: 128242 128242 322
Width: 600
Flags: HW
LayerCount: 2
Back
Fore
SplineSet
500 100 m 29
 500 500 l 25
 550 500 l 25
 550 400 l 25
 600 400 l 25
 600 200 l 25
 550 200 l 25
 550 100 l 25
 500 100 l 29
100 500 m 25
 100 100 l 25
 50 100 l 25
 50 200 l 25
 0 200 l 25
 0 400 l 25
 50 400 l 25
 50 500 l 25
 100 500 l 25
200 300 m 25
 400 300 l 25
 400 400 l 25
 200 400 l 25
 200 300 l 25
150 100 m 25
 150 500 l 25
 200 500 l 25
 200 600 l 25
 400 600 l 25
 400 700 l 25
 450 700 l 25
 450 100 l 25
 400 100 l 25
 400 0 l 25
 200 0 l 25
 200 100 l 25
 150 100 l 25
EndSplineSet
Validated: 1
EndChar

StartChar: u1F4F1
Encoding: 128241 128241 323
Width: 600
Flags: HW
LayerCount: 2
Back
Fore
SplineSet
200 300 m 29
 400 300 l 29
 400 400 l 29
 200 400 l 29
 200 300 l 29
150 100 m 29
 150 500 l 29
 200 500 l 29
 200 600 l 29
 400 600 l 29
 400 700 l 29
 450 700 l 29
 450 100 l 29
 400 100 l 29
 400 0 l 29
 200 0 l 29
 200 100 l 29
 150 100 l 29
EndSplineSet
Validated: 1
EndChar

StartChar: u1F4F3
Encoding: 128243 128243 324
Width: 600
Flags: HW
LayerCount: 2
Back
Fore
SplineSet
500 400 m 25
 500 500 l 25
 550 500 l 25
 550 400 l 25
 500 400 l 25
550 200 m 25
 550 400 l 25
 600 400 l 25
 600 200 l 25
 550 200 l 25
500 100 m 25
 500 200 l 25
 550 200 l 25
 550 100 l 25
 500 100 l 25
50 100 m 25
 50 200 l 25
 100 200 l 25
 100 100 l 25
 50 100 l 25
0 200 m 25
 0 400 l 25
 50 400 l 25
 50 200 l 25
 0 200 l 25
50 400 m 25
 50 500 l 25
 100 500 l 25
 100 400 l 25
 50 400 l 25
200 300 m 29
 400 300 l 29
 400 400 l 29
 200 400 l 29
 200 300 l 29
150 100 m 29
 150 500 l 29
 200 500 l 29
 200 600 l 29
 400 600 l 29
 400 700 l 29
 450 700 l 29
 450 100 l 29
 400 100 l 29
 400 0 l 29
 200 0 l 29
 200 100 l 29
 150 100 l 29
EndSplineSet
Validated: 5
EndChar

StartChar: u1F4F4
Encoding: 128244 128244 325
Width: 1200
Flags: HW
LayerCount: 2
Back
Fore
SplineSet
750 200 m 29
 750 400 l 25
 850 400 l 25
 850 200 l 25
 750 200 l 29
650 200 m 25
 700 200 l 25
 700 100 l 25
 900 100 l 25
 900 200 l 25
 950 200 l 25
 950 400 l 25
 900 400 l 25
 900 500 l 25
 700 500 l 25
 700 400 l 25
 650 400 l 25
 650 200 l 25
550 200 m 25
 550 400 l 25
 600 400 l 25
 600 500 l 25
 650 500 l 25
 650 600 l 25
 950 600 l 25
 950 500 l 25
 1000 500 l 25
 1000 400 l 25
 1050 400 l 25
 1050 200 l 25
 1000 200 l 25
 1000 100 l 25
 950 100 l 25
 950 0 l 25
 650 0 l 25
 650 100 l 25
 600 100 l 25
 600 200 l 25
 550 200 l 25
200 300 m 25
 400 300 l 25
 400 400 l 25
 200 400 l 25
 200 300 l 25
150 100 m 25
 150 500 l 25
 200 500 l 25
 200 600 l 25
 400 600 l 25
 400 700 l 25
 450 700 l 25
 450 100 l 25
 400 100 l 25
 400 0 l 25
 200 0 l 25
 200 100 l 25
 150 100 l 25
EndSplineSet
Validated: 1
EndChar

StartChar: u1F4F6
Encoding: 128246 128246 326
Width: 600
Flags: HW
LayerCount: 2
Back
Fore
SplineSet
450 0 m 29
 450 700 l 25
 550 700 l 25
 550 0 l 25
 450 0 l 29
300 0 m 25
 300 500 l 25
 400 500 l 25
 400 0 l 25
 300 0 l 25
150 0 m 25
 150 300 l 25
 250 300 l 25
 250 0 l 25
 150 0 l 25
0 0 m 25
 0 100 l 25
 100 100 l 25
 100 0 l 25
 0 0 l 25
EndSplineSet
Validated: 1
EndChar

StartChar: u1F4F7
Encoding: 128247 128247 327
Width: 1200
Flags: HW
LayerCount: 2
Back
Fore
SplineSet
600 300 m 29
 700 300 l 29
 700 400 l 29
 600 400 l 29
 600 300 l 29
500 300 m 29
 500 400 l 29
 550 400 l 29
 550 500 l 29
 750 500 l 29
 750 400 l 29
 800 400 l 29
 800 300 l 29
 750 300 l 29
 750 200 l 29
 550 200 l 29
 550 300 l 29
 500 300 l 29
250 100 m 5
 850 100 l 29
 850 600 l 5
 750 600 l 29
 750 700 l 29
 700 700 l 29
 700 600 l 29
 250 600 l 29
 250 100 l 5
150 0 m 29
 150 700 l 29
 650 700 l 29
 650 800 l 29
 800 800 l 29
 800 700 l 29
 950 700 l 29
 950 0 l 29
 150 0 l 29
EndSplineSet
Validated: 1
EndChar

StartChar: u1F4F8
Encoding: 128248 128248 328
Width: 1200
Flags: HW
LayerCount: 2
Back
Fore
SplineSet
300 450 m 29
 300 550 l 25
 450 550 l 25
 450 450 l 25
 300 450 l 29
600 300 m 25
 700 300 l 25
 700 400 l 25
 600 400 l 25
 600 300 l 25
500 300 m 25
 500 400 l 25
 550 400 l 25
 550 500 l 25
 750 500 l 25
 750 400 l 25
 800 400 l 25
 800 300 l 25
 750 300 l 25
 750 200 l 25
 550 200 l 25
 550 300 l 25
 500 300 l 25
250 100 m 1
 850 100 l 25
 850 600 l 1
 750 600 l 25
 750 700 l 25
 700 700 l 25
 700 600 l 25
 250 600 l 25
 250 100 l 1
150 0 m 25
 150 700 l 25
 650 700 l 25
 650 800 l 25
 800 800 l 25
 800 700 l 25
 950 700 l 25
 950 0 l 25
 150 0 l 25
EndSplineSet
Validated: 1
EndChar

StartChar: u1F6DC
Encoding: 128732 128732 329
Width: 600
Flags: HW
LayerCount: 2
Back
Fore
SplineSet
250 0 m 29
 250 100 l 25
 350 100 l 25
 350 0 l 25
 250 0 l 29
150 200 m 25
 150 300 l 25
 200 300 l 25
 200 400 l 25
 400 400 l 25
 400 300 l 25
 450 300 l 25
 450 200 l 25
 350 200 l 25
 350 300 l 25
 250 300 l 25
 250 200 l 25
 150 200 l 25
0 300 m 25
 0 400 l 25
 50 400 l 25
 50 500 l 25
 100 500 l 25
 100 600 l 25
 500 600 l 25
 500 500 l 25
 550 500 l 25
 550 400 l 25
 600 400 l 25
 600 300 l 25
 500 300 l 25
 500 400 l 25
 450 400 l 25
 450 500 l 25
 150 500 l 25
 150 400 l 25
 100 400 l 25
 100 300 l 25
 0 300 l 25
EndSplineSet
Validated: 1
EndChar

StartChar: u1F92C
Encoding: 129324 129324 330
Width: 1200
Flags: HW
LayerCount: 2
Back
Fore
SplineSet
450 100 m 25
 450 200 l 25
 500 200 l 25
 500 300 l 25
 800 300 l 25
 800 200 l 25
 850 200 l 25
 850 100 l 25
 450 100 l 25
700 400 m 1
 700 500 l 25
 750 500 l 25
 750 600 l 1
 900 600 l 1
 900 500 l 1
 800 500 l 1
 800 400 l 25
 700 400 l 1
500 400 m 25
 500 500 l 1
 400 500 l 1
 400 600 l 1
 550 600 l 1
 550 500 l 25
 600 500 l 25
 600 400 l 25
 500 400 l 25
400 0 m 25
 900 0 l 25
 900 100 l 25
 950 100 l 25
 950 600 l 25
 900 600 l 25
 900 700 l 25
 400 700 l 25
 400 600 l 25
 350 600 l 25
 350 100 l 25
 400 100 l 25
 400 0 l 25
250 100 m 25
 250 600 l 25
 300 600 l 25
 300 700 l 25
 350 700 l 25
 350 800 l 25
 950 800 l 25
 950 700 l 25
 1000 700 l 25
 1000 600 l 25
 1050 600 l 25
 1050 100 l 25
 1000 100 l 25
 1000 0 l 25
 950 0 l 25
 950 -100 l 25
 350 -100 l 25
 350 0 l 25
 300 0 l 25
 300 100 l 25
 250 100 l 25
EndSplineSet
Validated: 5
EndChar

StartChar: u1F916
Encoding: 129302 129302 331
Width: 1200
Flags: HW
LayerCount: 2
Back
Fore
SplineSet
700 300 m 1
 700 400 l 25
 800 400 l 1
 800 300 l 29
 700 300 l 1
400 300 m 25
 400 400 l 1
 500 400 l 25
 500 300 l 1
 400 300 l 25
400 100 m 25
 400 200 l 25
 800 200 l 25
 800 100 l 25
 400 100 l 25
250 0 m 25
 950 0 l 25
 950 200 l 25
 900 200 l 25
 900 400 l 25
 850 400 l 25
 850 500 l 25
 350 500 l 25
 350 400 l 25
 300 400 l 25
 300 200 l 25
 250 200 l 25
 250 0 l 25
150 -100 m 25
 150 200 l 25
 200 200 l 25
 200 400 l 25
 250 400 l 25
 250 500 l 25
 300 500 l 25
 300 600 l 25
 350 600 l 25
 350 700 l 25
 250 700 l 25
 250 800 l 25
 400 800 l 25
 400 700 l 25
 450 700 l 25
 450 600 l 25
 750 600 l 25
 750 700 l 25
 800 700 l 25
 800 800 l 25
 950 800 l 25
 950 700 l 25
 850 700 l 25
 850 600 l 25
 900 600 l 25
 900 500 l 25
 950 500 l 25
 950 400 l 25
 1000 400 l 25
 1000 200 l 25
 1050 200 l 25
 1050 -100 l 25
 150 -100 l 25
EndSplineSet
Validated: 1
EndChar

StartChar: u1F978
Encoding: 129400 129400 332
Width: 1200
Flags: HW
LayerCount: 2
Back
Fore
SplineSet
450 100 m 29
 450 200 l 25
 500 200 l 25
 500 300 l 25
 850 300 l 25
 850 200 l 25
 900 200 l 25
 900 100 l 25
 850 100 l 25
 850 200 l 25
 800 200 l 25
 800 100 l 25
 750 100 l 25
 750 200 l 25
 700 200 l 25
 700 100 l 25
 650 100 l 25
 650 200 l 25
 600 200 l 25
 600 100 l 25
 550 100 l 25
 550 200 l 25
 500 200 l 25
 500 100 l 25
 450 100 l 29
400 700 m 25
 400 600 l 25
 900 600 l 25
 900 700 l 25
 400 700 l 25
950 100 m 25
 950 500 l 25
 849 500 l 25
 850 400 l 25
 700 400 l 25
 700 500 l 25
 599 500 l 25
 600 400 l 25
 450 401 l 25
 450 500 l 25
 350 501 l 25
 350 100 l 1
 400 100 l 25
 400 0 l 25
 900 0 l 25
 900 100 l 25
 950 100 l 25
250 100 m 25
 250 600 l 25
 300 600 l 25
 300 700 l 25
 350 700 l 25
 350 800 l 25
 950 800 l 25
 950 700 l 25
 1000 700 l 25
 1000 600 l 25
 1050 600 l 25
 1050 100 l 25
 1000 100 l 25
 1000 0 l 25
 950 0 l 25
 950 -100 l 25
 350 -100 l 25
 350 0 l 25
 300 0 l 25
 300 100 l 25
 250 100 l 25
EndSplineSet
Validated: 5
EndChar

StartChar: u1F9E9
Encoding: 129513 129513 333
Width: 600
Flags: HW
LayerCount: 2
Back
Fore
SplineSet
0 300 m 29
 0 500 l 25
 100 500 l 25
 100 700 l 25
 250 700 l 25
 250 600 l 25
 350 600 l 25
 350 700 l 25
 500 700 l 25
 500 500 l 25
 600 500 l 25
 600 300 l 25
 500 300 l 25
 500 100 l 25
 350 100 l 25
 350 200 l 25
 250 200 l 25
 250 100 l 25
 100 100 l 25
 100 300 l 25
 0 300 l 29
EndSplineSet
Validated: 1
EndChar

StartChar: u1FB00
Encoding: 129792 129792 334
Width: 600
Flags: HW
LayerCount: 2
Back
Fore
SplineSet
0 500 m 29
 0 800 l 29
 300 800 l 29
 300 500 l 29
 0 500 l 29
EndSplineSet
Validated: 1
EndChar

StartChar: u1FB01
Encoding: 129793 129793 335
Width: 600
Flags: HW
LayerCount: 2
Back
Fore
SplineSet
300 500 m 29
 300 800 l 29
 600 800 l 29
 600 500 l 29
 300 500 l 29
EndSplineSet
Validated: 1
EndChar

StartChar: u1FB02
Encoding: 129794 129794 336
Width: 600
Flags: HW
LayerCount: 2
Back
Fore
SplineSet
0 500 m 5
 0 800 l 5
 600 800 l 5
 600 500 l 5
 0 500 l 5
EndSplineSet
Validated: 1
EndChar

StartChar: u1FB03
Encoding: 129795 129795 337
Width: 600
Flags: HW
LayerCount: 2
Back
Fore
SplineSet
0 100 m 5
 0 500 l 5
 300 500 l 5
 300 100 l 5
 0 100 l 5
EndSplineSet
Validated: 1
EndChar

StartChar: u1FB04
Encoding: 129796 129796 338
Width: 600
Flags: HW
LayerCount: 2
Back
Fore
SplineSet
0 100 m 1
 0 800 l 1
 300 800 l 5
 300 100 l 1
 0 100 l 1
EndSplineSet
Validated: 1
EndChar

StartChar: u1FB05
Encoding: 129797 129797 339
Width: 600
Flags: HW
LayerCount: 2
Back
Fore
SplineSet
300 500 m 29
 300 800 l 29
 600 800 l 29
 600 500 l 29
 300 500 l 29
EndSplineSet
Validated: 1
EndChar

StartChar: u1FB06
Encoding: 129798 129798 340
Width: 600
Flags: HW
LayerCount: 2
Back
Fore
SplineSet
0 100 m 5
 0 800 l 1
 600 800 l 25
 600 500 l 25
 300 500 l 1
 300 100 l 1
 0 100 l 5
EndSplineSet
Validated: 1
EndChar

StartChar: u1FB07
Encoding: 129799 129799 341
Width: 600
Flags: HW
LayerCount: 2
Back
Fore
SplineSet
300 100 m 5
 300 500 l 5
 600 500 l 5
 600 100 l 5
 300 100 l 5
EndSplineSet
Validated: 1
EndChar

StartChar: u1FB08
Encoding: 129800 129800 342
Width: 600
Flags: HW
LayerCount: 2
Back
Fore
SplineSet
300 100 m 5
 300 500 l 5
 600 500 l 5
 600 100 l 5
 300 100 l 5
0 500 m 29
 0 800 l 29
 300 800 l 29
 300 500 l 29
 0 500 l 29
EndSplineSet
Validated: 5
EndChar

StartChar: u1FB0A
Encoding: 129802 129802 344
Width: 600
Flags: HW
LayerCount: 2
Back
Fore
SplineSet
0 500 m 29
 0 800 l 29
 600 800 l 29
 600 100 l 29
 300 100 l 29
 300 500 l 29
 0 500 l 29
EndSplineSet
Validated: 1
EndChar

StartChar: u1FB0B
Encoding: 129803 129803 345
Width: 600
Flags: HW
LayerCount: 2
Back
Fore
SplineSet
0 100 m 5
 0 500 l 5
 600 500 l 5
 600 100 l 5
 0 100 l 5
EndSplineSet
Validated: 1
EndChar

StartChar: u1FB0C
Encoding: 129804 129804 346
Width: 600
Flags: HW
LayerCount: 2
Back
Fore
SplineSet
300 800 m 5
 300 500 l 5
 600 500 l 5
 600 100 l 5
 0 100 l 29
 0 800 l 29
 300 800 l 5
EndSplineSet
Validated: 1
EndChar

StartChar: u1FB0D
Encoding: 129805 129805 347
Width: 600
Flags: HW
LayerCount: 2
Back
Fore
SplineSet
0 100 m 29
 0 500 l 25
 300 500 l 25
 300 800 l 25
 600 800 l 25
 600 100 l 25
 0 100 l 29
EndSplineSet
Validated: 1
EndChar

StartChar: u1FB0E
Encoding: 129806 129806 348
Width: 600
Flags: HW
LayerCount: 2
Back
Fore
SplineSet
0 100 m 5
 0 800 l 5
 600 800 l 5
 600 100 l 5
 0 100 l 5
EndSplineSet
Validated: 1
EndChar

StartChar: u1FB0F
Encoding: 129807 129807 349
Width: 600
Flags: HW
LayerCount: 2
Back
Fore
SplineSet
0 -200 m 29
 0 100 l 29
 300 100 l 29
 300 -200 l 29
 0 -200 l 29
EndSplineSet
Validated: 1
EndChar

StartChar: u1FB10
Encoding: 129808 129808 350
Width: 600
Flags: HW
LayerCount: 2
Back
Fore
SplineSet
0 500 m 29
 0 800 l 29
 300 800 l 29
 300 500 l 29
 0 500 l 29
0 -200 m 25
 0 100 l 25
 300 100 l 25
 300 -200 l 25
 0 -200 l 25
EndSplineSet
Validated: 1
EndChar

StartChar: u1FB11
Encoding: 129809 129809 351
Width: 600
Flags: HW
LayerCount: 2
Back
Fore
SplineSet
300 500 m 29
 300 800 l 29
 600 800 l 29
 600 500 l 29
 300 500 l 29
0 -200 m 25
 0 100 l 25
 300 100 l 25
 300 -200 l 25
 0 -200 l 25
EndSplineSet
Validated: 1
EndChar

StartChar: u1FB12
Encoding: 129810 129810 352
Width: 600
Flags: HW
LayerCount: 2
Back
Fore
SplineSet
0 -200 m 29
 0 100 l 29
 300 100 l 29
 300 -200 l 29
 0 -200 l 29
0 500 m 1
 0 800 l 1
 600 800 l 1
 600 500 l 1
 0 500 l 1
EndSplineSet
Validated: 1
EndChar

StartChar: u1FB13
Encoding: 129811 129811 353
Width: 600
Flags: HW
LayerCount: 2
Back
Fore
SplineSet
0 500 m 29
 299 500 l 29
 300 -200 l 29
 0 -200 l 29
 0 500 l 29
EndSplineSet
Validated: 1
EndChar

StartChar: u1FB14
Encoding: 129812 129812 354
Width: 600
Flags: HW
LayerCount: 2
Back
Fore
SplineSet
300 500 m 29
 300 800 l 29
 600 800 l 29
 600 500 l 29
 300 500 l 29
0 500 m 25
 299 500 l 25
 300 -200 l 25
 0 -200 l 25
 0 500 l 25
EndSplineSet
Validated: 1
EndChar

StartChar: u1FB15
Encoding: 129813 129813 355
Width: 600
Flags: HW
LayerCount: 2
Back
Fore
SplineSet
0 -200 m 29
 0 800 l 29
 600 800 l 29
 600 500 l 29
 300 500 l 29
 300 -200 l 29
 0 -200 l 29
EndSplineSet
Validated: 1
EndChar

StartChar: u1FB16
Encoding: 129814 129814 356
Width: 600
Flags: HW
LayerCount: 2
Back
Fore
SplineSet
300 100 m 5
 300 500 l 5
 600 500 l 5
 600 100 l 5
 300 100 l 5
EndSplineSet
Validated: 1
EndChar

StartChar: u1FB17
Encoding: 129815 129815 357
Width: 600
Flags: HW
LayerCount: 2
Back
Fore
SplineSet
0 -200 m 29
 0 100 l 29
 300 100 l 29
 300 -200 l 29
 0 -200 l 29
300 100 m 1
 300 500 l 1
 600 500 l 1
 600 100 l 1
 300 100 l 1
0 500 m 1
 0 800 l 25
 300 800 l 1
 300 500 l 25
 0 500 l 1
EndSplineSet
Validated: 5
EndChar

StartChar: u1FB18
Encoding: 129816 129816 358
Width: 600
Flags: HW
LayerCount: 2
Back
Fore
SplineSet
300 800 m 29
 599 800 l 29
 600 100 l 29
 300 100 l 29
 300 800 l 29
0 -200 m 25
 0 100 l 25
 300 100 l 25
 300 -200 l 25
 0 -200 l 25
EndSplineSet
Validated: 5
EndChar

StartChar: u1FB19
Encoding: 129817 129817 359
Width: 600
Flags: HW
LayerCount: 2
Back
Fore
SplineSet
0 500 m 29
 0 800 l 29
 600 800 l 29
 600 100 l 29
 300 100 l 29
 300 500 l 29
 0 500 l 29
0 -200 m 25
 0 100 l 25
 300 100 l 25
 300 -200 l 25
 0 -200 l 25
EndSplineSet
Validated: 5
EndChar

StartChar: u1FB1A
Encoding: 129818 129818 360
Width: 600
Flags: HW
LayerCount: 2
Back
Fore
SplineSet
0 -200 m 29
 0 500 l 25
 600 500 l 25
 600 101 l 25
 300 100 l 25
 300 -200 l 25
 0 -200 l 29
EndSplineSet
Validated: 1
EndChar

StartChar: u1FB1E
Encoding: 129822 129822 364
Width: 600
Flags: HW
LayerCount: 2
Back
Fore
SplineSet
300 -199 m 29
 300 101 l 29
 600 101 l 29
 600 -199 l 29
 300 -199 l 29
EndSplineSet
Validated: 1
EndChar

StartChar: u1FB1F
Encoding: 129823 129823 365
Width: 600
Flags: HW
LayerCount: 2
Back
Fore
SplineSet
300 -200 m 29
 300 100 l 29
 600 100 l 29
 600 -200 l 29
 300 -200 l 29
0 500 m 25
 0 800 l 25
 300 800 l 25
 300 500 l 25
 0 500 l 25
EndSplineSet
Validated: 1
EndChar

StartChar: u1FB20
Encoding: 129824 129824 366
Width: 600
Flags: HW
LayerCount: 2
Back
Fore
SplineSet
300 -200 m 25
 300 100 l 25
 600 100 l 25
 600 -200 l 25
 300 -200 l 25
300 500 m 29
 300 800 l 29
 600 800 l 29
 600 500 l 29
 300 500 l 29
EndSplineSet
Validated: 1
EndChar

StartChar: u1FB21
Encoding: 129825 129825 367
Width: 600
Flags: HW
LayerCount: 2
Back
Fore
SplineSet
300 -200 m 29
 300 100 l 29
 600 100 l 29
 600 -200 l 29
 300 -200 l 29
0 500 m 1
 0 800 l 1
 600 800 l 1
 600 500 l 1
 0 500 l 1
EndSplineSet
Validated: 1
EndChar

StartChar: u1FB22
Encoding: 129826 129826 368
Width: 600
Flags: HW
LayerCount: 2
Back
Fore
SplineSet
0 100 m 5
 0 500 l 5
 300 500 l 5
 300 100 l 5
 0 100 l 5
EndSplineSet
Validated: 1
EndChar

StartChar: u1FB23
Encoding: 129827 129827 369
Width: 600
Flags: HW
LayerCount: 2
Back
Fore
SplineSet
0 800 m 29
 299 800 l 29
 300 100 l 29
 0 100 l 29
 0 800 l 29
300 -200 m 25
 300 100 l 25
 600 100 l 25
 600 -200 l 25
 300 -200 l 25
EndSplineSet
Validated: 5
EndChar

StartChar: u1FB24
Encoding: 129828 129828 370
Width: 600
Flags: HW
LayerCount: 2
Back
Fore
SplineSet
300 500 m 29
 300 800 l 29
 600 800 l 29
 600 500 l 29
 300 500 l 29
0 100 m 1
 0 500 l 1
 300 500 l 1
 300 100 l 1
 0 100 l 1
300 -200 m 25
 300 100 l 25
 600 100 l 25
 600 -200 l 25
 300 -200 l 25
EndSplineSet
Validated: 5
EndChar

StartChar: u1FB25
Encoding: 129829 129829 371
Width: 600
Flags: HW
LayerCount: 2
Back
Fore
SplineSet
0 100 m 1
 0 800 l 25
 600 800 l 1
 600 500 l 1
 300 500 l 1
 300 100 l 1
 0 100 l 1
300 -200 m 25
 300 100 l 25
 600 100 l 25
 600 -200 l 25
 300 -200 l 25
EndSplineSet
Validated: 5
EndChar

StartChar: u1FB26
Encoding: 129830 129830 372
Width: 600
Flags: HW
LayerCount: 2
Back
Fore
SplineSet
300 -200 m 29
 300 500 l 29
 600 500 l 29
 600 -200 l 29
 300 -200 l 29
EndSplineSet
Validated: 1
EndChar

StartChar: u1FB27
Encoding: 129831 129831 373
Width: 600
Flags: HW
LayerCount: 2
Back
Fore
SplineSet
300 500 m 29
 599 500 l 29
 600 -200 l 29
 300 -200 l 29
 300 500 l 29
0 500 m 25
 0 800 l 25
 300 800 l 25
 300 500 l 25
 0 500 l 25
EndSplineSet
Validated: 5
EndChar

StartChar: u1FB28
Encoding: 129832 129832 374
Width: 600
Flags: HW
LayerCount: 2
Back
Fore
SplineSet
0 500 m 29
 0 800 l 29
 600 800 l 29
 600 -200 l 29
 300 -200 l 29
 300 500 l 29
 0 500 l 29
EndSplineSet
Validated: 1
EndChar

StartChar: u1FB29
Encoding: 129833 129833 375
Width: 600
Flags: HW
LayerCount: 2
Back
Fore
SplineSet
0 200 m 29
 0 500 l 29
 600 500 l 29
 600 -200 l 29
 300 -200 l 29
 300 200 l 29
 0 200 l 29
EndSplineSet
Validated: 1
EndChar

StartChar: u1FB2D
Encoding: 129837 129837 379
Width: 600
Flags: HW
LayerCount: 2
Back
Fore
SplineSet
0 -200 m 5
 0 100 l 5
 600 100 l 5
 600 -200 l 5
 0 -200 l 5
EndSplineSet
Validated: 1
EndChar

StartChar: u1FB2E
Encoding: 129838 129838 380
Width: 600
Flags: HW
LayerCount: 2
Back
Fore
SplineSet
0 -200 m 5
 0 100 l 5
 600 100 l 5
 600 -200 l 5
 0 -200 l 5
0 500 m 25
 0 800 l 25
 300 800 l 25
 300 500 l 25
 0 500 l 25
EndSplineSet
Validated: 1
EndChar

StartChar: u1FB2F
Encoding: 129839 129839 381
Width: 600
Flags: HW
LayerCount: 2
Back
Fore
SplineSet
0 -200 m 1
 0 100 l 1
 600 100 l 1
 600 -200 l 1
 0 -200 l 1
300 500 m 29
 300 800 l 29
 600 800 l 29
 600 500 l 29
 300 500 l 29
EndSplineSet
Validated: 1
EndChar

StartChar: u1FB30
Encoding: 129840 129840 382
Width: 600
Flags: HW
LayerCount: 2
Back
Fore
SplineSet
0 -200 m 5
 0 100 l 5
 600 100 l 5
 600 -200 l 5
 0 -200 l 5
EndSplineSet
Validated: 1
EndChar

StartChar: u1FB31
Encoding: 129841 129841 383
Width: 600
Flags: HW
LayerCount: 2
Back
Fore
SplineSet
300 500 m 29
 300 100 l 29
 600 100 l 29
 600 -200 l 29
 0 -200 l 29
 0 500 l 29
 300 500 l 29
EndSplineSet
Validated: 1
EndChar

StartChar: u1FB32
Encoding: 129842 129842 384
Width: 600
Flags: HW
LayerCount: 2
Back
Fore
SplineSet
300 800 m 5
 300 100 l 1
 600 100 l 25
 600 -200 l 25
 0 -200 l 1
 0 800 l 1
 300 800 l 5
EndSplineSet
Validated: 1
EndChar

StartChar: u1FB33
Encoding: 129843 129843 385
Width: 600
Flags: HW
LayerCount: 2
Back
Fore
SplineSet
300 500 m 29
 300 100 l 29
 600 100 l 29
 600 -200 l 29
 0 -200 l 29
 0 500 l 29
 300 500 l 29
EndSplineSet
Validated: 1
EndChar

StartChar: u1FB34
Encoding: 129844 129844 386
Width: 600
Flags: HW
LayerCount: 2
Back
Fore
SplineSet
0 800 m 29
 600 800 l 29
 600 500 l 29
 300 500 l 29
 300 100 l 29
 600 100 l 29
 600 -200 l 29
 0 -200 l 29
 0 800 l 29
EndSplineSet
Validated: 1
EndChar

StartChar: u1FB35
Encoding: 129845 129845 387
Width: 600
Flags: HW
LayerCount: 2
Back
Fore
SplineSet
0 -200 m 29
 0 100 l 29
 300 100 l 29
 300 500 l 29
 600 500 l 29
 600 -200 l 29
 0 -200 l 29
EndSplineSet
Validated: 1
EndChar

StartChar: u1FB36
Encoding: 129846 129846 388
Width: 600
Flags: HW
LayerCount: 2
Back
Fore
SplineSet
0 -200 m 29
 0 100 l 29
 300 100 l 29
 300 500 l 29
 600 500 l 29
 600 -200 l 29
 0 -200 l 29
0 500 m 25
 0 800 l 25
 300 800 l 25
 300 500 l 25
 0 500 l 25
EndSplineSet
Validated: 5
EndChar

StartChar: u1FB37
Encoding: 129847 129847 389
Width: 600
Flags: HW
LayerCount: 2
Back
Fore
SplineSet
0 -200 m 25
 0 100 l 25
 300 100 l 1
 300 800 l 1
 600 800 l 5
 600 -200 l 1
 0 -200 l 25
EndSplineSet
Validated: 1
EndChar

StartChar: u1FB38
Encoding: 129848 129848 390
Width: 600
Flags: HW
LayerCount: 2
Back
Fore
SplineSet
0 500 m 29
 0 800 l 29
 600 800 l 29
 600 -200 l 29
 0 -200 l 29
 0 100 l 29
 300 100 l 29
 300 500 l 29
 0 500 l 29
EndSplineSet
Validated: 1
EndChar

StartChar: u1FB39
Encoding: 129849 129849 391
Width: 600
Flags: HW
LayerCount: 2
Back
Fore
SplineSet
0 -200 m 5
 0 500 l 5
 600 500 l 5
 600 -200 l 5
 0 -200 l 5
EndSplineSet
Validated: 1
EndChar

StartChar: u1FB3A
Encoding: 129850 129850 392
Width: 600
Flags: HW
LayerCount: 2
Back
Fore
SplineSet
0 -200 m 25
 0 800 l 25
 300 800 l 25
 300 500 l 25
 600 500 l 25
 600 -200 l 25
 0 -200 l 25
EndSplineSet
Validated: 1
EndChar

StartChar: u1FB3B
Encoding: 129851 129851 393
Width: 600
Flags: HW
LayerCount: 2
Back
Fore
SplineSet
0 -200 m 29
 0 500 l 25
 300 500 l 25
 300 800 l 25
 600 800 l 25
 600 -200 l 25
 0 -200 l 29
EndSplineSet
Validated: 1
EndChar

StartChar: u1F3A7
Encoding: 127911 127911 397
Width: 1200
Flags: HW
LayerCount: 2
Back
Fore
SplineSet
350 0 m 29
 350 100 l 25
 300 100 l 25
 300 200 l 25
 250 200 l 25
 250 500 l 25
 300 500 l 25
 300 600 l 25
 350 600 l 25
 350 700 l 25
 450 700 l 25
 450 800 l 25
 800 800 l 25
 800 700 l 25
 900 700 l 25
 900 600 l 25
 950 600 l 25
 950 500 l 25
 1000 500 l 25
 1000 200 l 25
 950 200 l 25
 950 100 l 25
 900 100 l 25
 900 0 l 25
 750 0 l 25
 750 100 l 25
 700 100 l 25
 700 300 l 25
 750 300 l 25
 750 400 l 25
 900 400 l 25
 900 500 l 25
 850 500 l 25
 850 600 l 25
 750 600 l 25
 750 700 l 25
 500 700 l 25
 500 600 l 25
 400 600 l 25
 400 500 l 25
 350 500 l 25
 350 400 l 25
 500 400 l 25
 500 300 l 25
 550 300 l 25
 550 100 l 25
 500 100 l 25
 500 0 l 25
 350 0 l 29
EndSplineSet
Validated: 1
EndChar

StartChar: u1F453
Encoding: 128083 128083 398
Width: 1200
Flags: HW
LayerCount: 2
Back
Fore
SplineSet
200 250 m 29
 400 250 l 25
 400 450 l 25
 200 450 l 25
 200 250 l 29
750 250 m 25
 950 250 l 25
 950 450 l 25
 750 450 l 25
 750 250 l 25
0 250 m 25
 0 350 l 25
 50 350 l 25
 50 450 l 25
 150 450 l 25
 150 550 l 25
 450 550 l 25
 450 450 l 25
 700 450 l 25
 700 550 l 25
 1000 550 l 25
 1000 450 l 25
 1100 450 l 25
 1100 350 l 25
 1150 350 l 25
 1150 250 l 25
 1100 250 l 25
 1100 350 l 25
 1050 350 l 25
 1050 250 l 25
 1000 250 l 25
 1000 150 l 25
 700 150 l 25
 700 250 l 25
 650 250 l 25
 650 350 l 25
 500 350 l 25
 500 250 l 25
 450 250 l 25
 450 150 l 25
 150 150 l 25
 150 250 l 25
 100 250 l 25
 100 350 l 25
 50 350 l 25
 50 250 l 25
 0 250 l 25
EndSplineSet
Validated: 5
EndChar

StartChar: u1F446
Encoding: 128070 128070 399
Width: 1200
Flags: HW
LayerCount: 2
Back
Fore
SplineSet
200 300 m 29
 200 400 l 25
 350 400 l 25
 350 300 l 25
 400 300 l 25
 400 700 l 25
 500 700 l 25
 500 300 l 25
 550 300 l 25
 550 400 l 25
 650 400 l 25
 650 300 l 25
 700 300 l 25
 700 400 l 25
 800 400 l 25
 800 300 l 25
 850 300 l 25
 850 400 l 25
 950 400 l 25
 950 0 l 25
 900 0 l 25
 900 -100 l 25
 450 -100 l 25
 450 0 l 25
 400 0 l 25
 400 100 l 25
 350 100 l 25
 350 200 l 25
 300 200 l 25
 300 300 l 25
 200 300 l 29
EndSplineSet
Validated: 1
EndChar

StartChar: u1F44D
Encoding: 128077 128077 400
Width: 1200
Flags: HW
LayerCount: 2
Back
Fore
SplineSet
700 100 m 29
 800 100 l 25
 800 200 l 25
 850 200 l 25
 850 300 l 25
 800 300 l 25
 800 400 l 25
 700 400 l 25
 700 300 l 25
 650 300 l 25
 650 200 l 25
 700 200 l 25
 700 100 l 29
450 100 m 25
 650 100 l 25
 650 200 l 25
 600 200 l 25
 600 300 l 25
 650 300 l 25
 650 400 l 25
 600 400 l 25
 600 600 l 25
 650 600 l 25
 650 700 l 25
 600 700 l 25
 600 600 l 25
 550 600 l 25
 550 500 l 25
 500 500 l 25
 500 400 l 25
 450 400 l 25
 450 100 l 25
350 0 m 25
 350 400 l 25
 400 400 l 25
 400 500 l 25
 450 500 l 25
 450 600 l 25
 500 600 l 25
 500 700 l 25
 550 700 l 25
 550 800 l 25
 750 800 l 25
 750 600 l 25
 700 600 l 25
 700 500 l 25
 850 500 l 25
 850 400 l 25
 900 400 l 25
 900 300 l 25
 950 300 l 25
 950 200 l 25
 900 200 l 25
 900 100 l 25
 850 100 l 25
 850 0 l 25
 350 0 l 25
EndSplineSet
Validated: 5
EndChar

StartChar: u1F44E
Encoding: 128078 128078 401
Width: 1200
Flags: HW
LayerCount: 2
Back
Fore
SplineSet
600 400 m 29
 700 400 l 25
 700 200 l 25
 650 200 l 25
 650 100 l 25
 700 100 l 25
 700 200 l 25
 750 200 l 25
 750 300 l 25
 800 300 l 25
 800 700 l 25
 600 700 l 25
 600 600 l 25
 650 600 l 25
 650 500 l 25
 600 500 l 25
 600 400 l 29
450 400 m 25
 550 400 l 25
 550 500 l 25
 600 500 l 25
 600 600 l 25
 550 600 l 25
 550 700 l 25
 450 700 l 25
 450 600 l 25
 400 600 l 25
 400 500 l 25
 450 500 l 25
 450 400 l 25
300 500 m 25
 300 600 l 25
 350 600 l 25
 350 700 l 25
 400 700 l 25
 400 800 l 25
 900 800 l 25
 900 300 l 25
 850 300 l 25
 850 200 l 25
 800 200 l 25
 800 100 l 25
 750 100 l 25
 750 0 l 25
 600 0 l 25
 600 100 l 25
 550 100 l 25
 550 200 l 25
 600 200 l 25
 600 300 l 25
 400 300 l 25
 400 400 l 25
 350 400 l 25
 350 500 l 25
 300 500 l 25
EndSplineSet
Validated: 5
EndChar

StartChar: u1F610
Encoding: 128528 128528 402
Width: 1200
Flags: HW
LayerCount: 2
Back
Fore
SplineSet
450 100 m 29
 450 200 l 25
 850 200 l 25
 850 100 l 25
 450 100 l 29
750 500 m 25
 750 600 l 25
 850 600 l 25
 850 500 l 25
 750 500 l 25
450 500 m 25
 450 600 l 25
 550 600 l 25
 550 500 l 25
 450 500 l 25
400 0 m 25
 900 0 l 25
 900 100 l 25
 950 100 l 25
 950 600 l 25
 900 600 l 25
 900 700 l 25
 400 700 l 25
 400 600 l 25
 350 600 l 25
 350 100 l 25
 400 100 l 25
 400 0 l 25
250 100 m 25
 250 600 l 25
 300 600 l 25
 300 700 l 25
 350 700 l 25
 350 800 l 25
 950 800 l 25
 950 700 l 25
 1000 700 l 25
 1000 600 l 25
 1050 600 l 25
 1050 100 l 25
 1000 100 l 25
 1000 0 l 25
 950 0 l 25
 950 -100 l 25
 350 -100 l 25
 350 0 l 25
 300 0 l 25
 300 100 l 25
 250 100 l 25
EndSplineSet
Validated: 1
EndChar

StartChar: u1F62E
Encoding: 128558 128558 403
Width: 1200
Flags: HW
LayerCount: 2
Back
Fore
SplineSet
600 200 m 29
 700 200 l 25
 700 300 l 25
 600 300 l 25
 600 200 l 29
500 200 m 25
 500 300 l 25
 550 300 l 25
 550 400 l 25
 750 400 l 25
 750 300 l 25
 800 300 l 25
 800 200 l 25
 750 200 l 25
 750 100 l 25
 550 100 l 25
 550 200 l 25
 500 200 l 25
750 500 m 25
 750 600 l 25
 850 600 l 25
 850 500 l 25
 750 500 l 25
450 500 m 25
 450 600 l 25
 550 600 l 25
 550 500 l 25
 450 500 l 25
400 0 m 25
 900 0 l 25
 900 100 l 25
 950 100 l 25
 950 600 l 25
 900 600 l 25
 900 700 l 25
 400 700 l 25
 400 600 l 25
 350 600 l 25
 350 100 l 25
 400 100 l 25
 400 0 l 25
250 100 m 25
 250 600 l 25
 300 600 l 25
 300 700 l 25
 350 700 l 25
 350 800 l 25
 950 800 l 25
 950 700 l 25
 1000 700 l 25
 1000 600 l 25
 1050 600 l 25
 1050 100 l 25
 1000 100 l 25
 1000 0 l 25
 950 0 l 25
 950 -100 l 25
 350 -100 l 25
 350 0 l 25
 300 0 l 25
 300 100 l 25
 250 100 l 25
EndSplineSet
Validated: 1
EndChar

StartChar: u1F3B5
Encoding: 127925 127925 404
Width: 1200
Flags: HW
LayerCount: 2
Back
Fore
SplineSet
500 600 m 1
 850 600 l 29
 850 700 l 1
 500 700 l 25
 500 600 l 1
200 100 m 25
 200 200 l 1
 250 200 l 25
 250 300 l 25
 400 300 l 25
 400 800 l 25
 950 800 l 25
 950 100 l 25
 900 100 l 25
 900 0 l 25
 700 0 l 25
 700 100 l 25
 650 100 l 25
 650 200 l 25
 700 200 l 25
 700 300 l 25
 850 300 l 1
 850 500 l 1
 500 500 l 1
 500 100 l 1
 450 100 l 25
 450 0 l 25
 250 0 l 25
 250 100 l 1
 200 100 l 25
EndSplineSet
Validated: 1
EndChar

StartChar: u1F3B6
Encoding: 127926 127926 405
Width: 1200
Flags: HW
LayerCount: 2
Back
Fore
SplineSet
850 100 m 25
 850 200 l 25
 900 200 l 25
 900 300 l 25
 1050 300 l 25
 1050 800 l 25
 1150 800 l 25
 1150 100 l 25
 1100 100 l 25
 1100 0 l 25
 900 0 l 25
 900 100 l 25
 850 100 l 25
450 100 m 25
 450 200 l 25
 500 200 l 25
 500 300 l 25
 650 300 l 25
 650 800 l 25
 750 800 l 25
 750 100 l 25
 700 100 l 25
 700 0 l 25
 500 0 l 25
 500 100 l 25
 450 100 l 25
50 100 m 25
 50 200 l 25
 100 200 l 25
 100 300 l 25
 250 300 l 25
 250 800 l 25
 350 800 l 25
 350 100 l 25
 300 100 l 25
 300 0 l 25
 100 0 l 25
 100 100 l 25
 50 100 l 25
EndSplineSet
Validated: 1
EndChar

StartChar: u1F30E
Encoding: 127758 127758 406
Width: 1200
Flags: HW
LayerCount: 2
Back
Fore
SplineSet
700 600 m 29
 700 501 l 25
 650 500 l 25
 650 400 l 25
 600 400 l 25
 600 300 l 25
 800 300 l 25
 800 200 l 25
 850 200 l 25
 850 500 l 25
 800 500 l 25
 800 600 l 25
 700 600 l 29
300 200 m 25
 350 200 l 25
 350 100 l 25
 450 100 l 25
 450 0 l 25
 700 0 l 25
 700 100 l 25
 650 100 l 25
 650 200 l 25
 550 200 l 25
 550 300 l 25
 500 300 l 25
 500 400 l 25
 400 400 l 25
 400 500 l 25
 300 500 l 25
 300 200 l 25
200 200 m 25
 200 500 l 25
 250 500 l 25
 250 600 l 25
 300 600 l 25
 300 700 l 25
 400 700 l 25
 400 800 l 25
 750 800 l 25
 750 700 l 25
 850 700 l 25
 850 600 l 25
 900 600 l 25
 900 500 l 25
 950 500 l 25
 950 200 l 25
 900 200 l 25
 900 100 l 25
 850 100 l 25
 850 0 l 25
 750 0 l 25
 750 -100 l 25
 400 -100 l 25
 400 0 l 25
 300 0 l 25
 300 100 l 25
 250 100 l 25
 250 200 l 25
 200 200 l 25
EndSplineSet
Validated: 1
EndChar

StartChar: u1F381
Encoding: 127873 127873 407
Width: 1200
Flags: HW
LayerCount: 2
Back
Fore
SplineSet
700 600 m 29
 800 600 l 25
 800 700 l 25
 700 700 l 25
 700 600 l 29
650 500 m 25
 700 500 l 25
 700 600 l 25
 650 600 l 25
 650 500 l 25
450 600 m 25
 450 700 l 25
 350 700 l 25
 350 600 l 25
 450 600 l 25
450 500 m 25
 500 500 l 25
 500 600 l 25
 450 600 l 25
 450 500 l 25
350 250 m 25
 500 250 l 25
 500 400 l 25
 350 400 l 25
 350 250 l 25
650 250 m 25
 800 250 l 25
 800 400 l 25
 650 400 l 25
 650 250 l 25
650 0 m 25
 800 0 l 25
 800 150 l 25
 650 150 l 25
 650 0 l 25
350 0 m 25
 500 0 l 25
 500 150 l 25
 350 150 l 25
 350 0 l 25
250 -100 m 25
 250 500 l 25
 300 500 l 25
 300 600 l 25
 250 600 l 25
 250 700 l 25
 300 700 l 25
 300 800 l 25
 500 800 l 25
 500 700 l 25
 550 700 l 25
 550 600 l 25
 600 600 l 25
 600 700 l 25
 650 700 l 25
 650 800 l 25
 850 800 l 25
 850 700 l 25
 900 700 l 25
 900 600 l 25
 850 600 l 25
 850 500 l 25
 900 500 l 25
 900 -100 l 25
 250 -100 l 25
EndSplineSet
Validated: 5
EndChar

StartChar: u1F380
Encoding: 127872 127872 408
Width: 1200
Flags: HW
LayerCount: 2
Back
Fore
SplineSet
250 300 m 29
 250 500 l 25
 300 500 l 25
 300 600 l 25
 450 600 l 25
 450 500 l 25
 550 500 l 25
 550 400 l 25
 650 400 l 25
 650 500 l 25
 750 500 l 25
 750 600 l 25
 900 600 l 25
 900 500 l 25
 950 500 l 25
 950 300 l 25
 900 300 l 25
 900 100 l 25
 750 100 l 25
 750 200 l 25
 650 200 l 25
 650 300 l 25
 550 300 l 25
 550 200 l 25
 450 200 l 25
 450 100 l 25
 300 100 l 25
 300 300 l 25
 250 300 l 29
EndSplineSet
Validated: 1
EndChar

StartChar: u1F3A9
Encoding: 127913 127913 409
Width: 1200
Flags: HW
LayerCount: 2
Back
Fore
SplineSet
450 100 m 29
 800 100 l 25
 800 200 l 25
 450 200 l 25
 450 100 l 29
300 -100 m 25
 300 0 l 25
 250 0 l 25
 250 100 l 25
 400 100 l 25
 400 600 l 25
 450 600 l 25
 450 700 l 25
 800 700 l 25
 800 600 l 25
 850 600 l 25
 850 100 l 25
 1000 100 l 25
 1000 0 l 25
 950 0 l 25
 950 -100 l 25
 300 -100 l 25
EndSplineSet
Validated: 1
EndChar

StartChar: u1F389
Encoding: 127881 127881 410
Width: 1200
Flags: HW
LayerCount: 2
Back
Fore
SplineSet
700 700 m 29
 700 800 l 25
 750 800 l 25
 750 700 l 25
 700 700 l 29
650 600 m 25
 600 600 l 25
 600 700 l 25
 450 700 l 25
 450 600 l 25
 400 600 l 25
 400 700 l 25
 450 700 l 25
 450 800 l 25
 600 800 l 25
 600 700 l 25
 650 700 l 25
 650 600 l 25
950 500 m 25
 1000 500 l 25
 1000 400 l 25
 950 400 l 25
 950 500 l 25
850 400 m 25
 900 400 l 25
 900 300 l 25
 1050 300 l 25
 1050 400 l 25
 1100 400 l 25
 1100 300 l 25
 1050 300 l 25
 1050 200 l 25
 900 200 l 25
 900 300 l 25
 850 300 l 25
 850 400 l 25
700 400 m 25
 700 600 l 25
 800 600 l 25
 800 700 l 25
 950 700 l 25
 950 600 l 25
 900 600 l 25
 900 500 l 25
 750 500 l 25
 750 400 l 25
 700 400 l 25
400 300 m 25
 550 300 l 25
 550 400 l 25
 400 400 l 25
 400 300 l 25
300 100 m 25
 450 100 l 25
 450 200 l 25
 300 200 l 25
 300 100 l 25
150 -100 m 25
 150 100 l 25
 200 100 l 25
 200 200 l 25
 250 200 l 25
 250 300 l 25
 300 300 l 25
 300 400 l 25
 350 400 l 25
 350 500 l 25
 600 500 l 25
 600 400 l 25
 700 400 l 25
 700 200 l 25
 600 200 l 25
 600 100 l 25
 500 100 l 25
 500 0 l 25
 350 0 l 25
 350 -100 l 25
 150 -100 l 25
EndSplineSet
Validated: 5
EndChar

StartChar: ltshade
Encoding: 9617 9617 411
Width: 600
Flags: HW
LayerCount: 2
Back
Fore
SplineSet
500 -200 m 25
 500 -100 l 25
 550 -100 l 25
 550 -200 l 25
 500 -200 l 25
350 -100 m 29
 350 0 l 29
 400 0 l 29
 400 -100 l 29
 350 -100 l 29
350 -100 m 29
 400 -100 l 29
 400 0 l 29
 350 0 l 29
 350 -100 l 29
200 -200 m 25
 200 -100 l 25
 250 -100 l 25
 250 -200 l 25
 200 -200 l 25
50 -100 m 25
 50 0 l 25
 100 0 l 25
 100 -100 l 25
 50 -100 l 25
500 0 m 25
 500 100 l 25
 550 100 l 25
 550 0 l 25
 500 0 l 25
350 100 m 29
 350 200 l 29
 400 200 l 29
 400 100 l 29
 350 100 l 29
350 100 m 29
 400 100 l 29
 400 200 l 29
 350 200 l 29
 350 100 l 29
200 0 m 25
 200 100 l 25
 250 100 l 25
 250 0 l 25
 200 0 l 25
50 100 m 25
 50 200 l 25
 100 200 l 25
 100 100 l 25
 50 100 l 25
500 200 m 25
 500 300 l 25
 550 300 l 25
 550 200 l 25
 500 200 l 25
350 300 m 29
 350 400 l 29
 400 400 l 29
 400 300 l 29
 350 300 l 29
350 300 m 29
 400 300 l 29
 400 400 l 29
 350 400 l 29
 350 300 l 29
200 200 m 25
 200 300 l 25
 250 300 l 25
 250 200 l 25
 200 200 l 25
50 300 m 25
 50 400 l 25
 100 400 l 25
 100 300 l 25
 50 300 l 25
500 400 m 25
 500 500 l 25
 550 500 l 25
 550 400 l 25
 500 400 l 25
350 500 m 29
 350 600 l 29
 400 600 l 29
 400 500 l 29
 350 500 l 29
350 500 m 29
 400 500 l 29
 400 600 l 29
 350 600 l 29
 350 500 l 29
200 400 m 25
 200 500 l 25
 250 500 l 25
 250 400 l 25
 200 400 l 25
50 500 m 25
 50 600 l 25
 100 600 l 25
 100 500 l 25
 50 500 l 25
500 600 m 25
 500 700 l 25
 550 700 l 25
 550 600 l 25
 500 600 l 25
350 700 m 29
 350 800 l 29
 400 800 l 29
 400 700 l 29
 350 700 l 29
350 700 m 29
 400 700 l 29
 400 800 l 29
 350 800 l 29
 350 700 l 29
200 600 m 25
 200 700 l 25
 250 700 l 25
 250 600 l 25
 200 600 l 25
50 700 m 25
 50 800 l 25
 100 800 l 25
 100 700 l 25
 50 700 l 25
EndSplineSet
EndChar

StartChar: shade
Encoding: 9618 9618 412
Width: 600
Flags: HW
LayerCount: 2
Back
Fore
SplineSet
550 -200 m 25
 550 -100 l 25
 600 -100 l 25
 600 -200 l 25
 550 -200 l 25
450 -200 m 25
 450 -100 l 25
 500 -100 l 25
 500 -200 l 25
 450 -200 l 25
350 -200 m 25
 350 -100 l 25
 400 -100 l 25
 400 -200 l 25
 350 -200 l 25
250 -200 m 25
 250 -100 l 25
 300 -100 l 25
 300 -200 l 25
 250 -200 l 25
150 -200 m 25
 150 -100 l 25
 200 -100 l 25
 200 -200 l 25
 150 -200 l 25
50 -200 m 25
 50 -100 l 25
 100 -100 l 25
 100 -200 l 25
 50 -200 l 25
500 -100 m 25
 500 0 l 25
 550 0 l 25
 550 -100 l 25
 500 -100 l 25
400 -100 m 25
 400 0 l 25
 450 0 l 25
 450 -100 l 25
 400 -100 l 25
300 -100 m 25
 300 0 l 25
 350 0 l 25
 350 -100 l 25
 300 -100 l 25
200 -100 m 25
 200 0 l 25
 250 0 l 25
 250 -100 l 25
 200 -100 l 25
100 -100 m 25
 100 0 l 25
 150 0 l 25
 150 -100 l 25
 100 -100 l 25
0 -100 m 25
 0 0 l 25
 50 0 l 25
 50 -100 l 25
 0 -100 l 25
550 0 m 25
 550 100 l 25
 600 100 l 25
 600 0 l 25
 550 0 l 25
450 0 m 25
 450 100 l 25
 500 100 l 25
 500 0 l 25
 450 0 l 25
350 0 m 25
 350 100 l 25
 400 100 l 25
 400 0 l 25
 350 0 l 25
250 0 m 25
 250 100 l 25
 300 100 l 25
 300 0 l 25
 250 0 l 25
150 0 m 25
 150 100 l 25
 200 100 l 25
 200 0 l 25
 150 0 l 25
50 0 m 25
 50 100 l 25
 100 100 l 25
 100 0 l 25
 50 0 l 25
500 100 m 25
 500 200 l 25
 550 200 l 25
 550 100 l 25
 500 100 l 25
400 100 m 25
 400 200 l 25
 450 200 l 25
 450 100 l 25
 400 100 l 25
300 100 m 25
 300 200 l 25
 350 200 l 25
 350 100 l 25
 300 100 l 25
200 100 m 25
 200 200 l 25
 250 200 l 25
 250 100 l 25
 200 100 l 25
100 100 m 25
 100 200 l 25
 150 200 l 25
 150 100 l 25
 100 100 l 25
0 100 m 25
 0 200 l 25
 50 200 l 25
 50 100 l 25
 0 100 l 25
550 200 m 25
 550 300 l 25
 600 300 l 25
 600 200 l 25
 550 200 l 25
450 200 m 25
 450 300 l 25
 500 300 l 25
 500 200 l 25
 450 200 l 25
350 200 m 25
 350 300 l 25
 400 300 l 25
 400 200 l 25
 350 200 l 25
250 200 m 25
 250 300 l 25
 300 300 l 25
 300 200 l 25
 250 200 l 25
150 200 m 25
 150 300 l 25
 200 300 l 25
 200 200 l 25
 150 200 l 25
50 200 m 25
 50 300 l 25
 100 300 l 25
 100 200 l 25
 50 200 l 25
500 300 m 25
 500 400 l 25
 550 400 l 25
 550 300 l 25
 500 300 l 25
400 300 m 25
 400 400 l 25
 450 400 l 25
 450 300 l 25
 400 300 l 25
300 300 m 25
 300 400 l 25
 350 400 l 25
 350 300 l 25
 300 300 l 25
200 300 m 25
 200 400 l 25
 250 400 l 25
 250 300 l 25
 200 300 l 25
100 300 m 25
 100 400 l 25
 150 400 l 25
 150 300 l 25
 100 300 l 25
0 300 m 25
 0 400 l 25
 50 400 l 25
 50 300 l 25
 0 300 l 25
550 400 m 25
 550 500 l 25
 600 500 l 25
 600 400 l 25
 550 400 l 25
450 400 m 25
 450 500 l 25
 500 500 l 25
 500 400 l 25
 450 400 l 25
350 400 m 25
 350 500 l 25
 400 500 l 25
 400 400 l 25
 350 400 l 25
250 400 m 25
 250 500 l 25
 300 500 l 25
 300 400 l 25
 250 400 l 25
150 400 m 25
 150 500 l 25
 200 500 l 25
 200 400 l 25
 150 400 l 25
50 400 m 25
 50 500 l 25
 100 500 l 25
 100 400 l 25
 50 400 l 25
500 500 m 25
 500 600 l 25
 550 600 l 25
 550 500 l 25
 500 500 l 25
400 500 m 25
 400 600 l 25
 450 600 l 25
 450 500 l 25
 400 500 l 25
300 500 m 25
 300 600 l 25
 350 600 l 25
 350 500 l 25
 300 500 l 25
200 500 m 25
 200 600 l 25
 250 600 l 25
 250 500 l 25
 200 500 l 25
100 500 m 25
 100 600 l 25
 150 600 l 25
 150 500 l 25
 100 500 l 25
0 500 m 25
 0 600 l 25
 50 600 l 25
 50 500 l 25
 0 500 l 25
550 600 m 25
 550 700 l 25
 600 700 l 25
 600 600 l 25
 550 600 l 25
450 600 m 25
 450 700 l 25
 500 700 l 25
 500 600 l 25
 450 600 l 25
350 600 m 25
 350 700 l 25
 400 700 l 25
 400 600 l 25
 350 600 l 25
250 600 m 25
 250 700 l 25
 300 700 l 25
 300 600 l 25
 250 600 l 25
150 600 m 25
 150 700 l 25
 200 700 l 25
 200 600 l 25
 150 600 l 25
50 600 m 25
 50 700 l 25
 100 700 l 25
 100 600 l 25
 50 600 l 25
500 700 m 25
 500 800 l 25
 550 800 l 25
 550 700 l 25
 500 700 l 25
400 700 m 25
 400 800 l 25
 450 800 l 25
 450 700 l 25
 400 700 l 25
300 700 m 25
 300 800 l 25
 350 800 l 25
 350 700 l 25
 300 700 l 25
200 700 m 25
 200 800 l 25
 250 800 l 25
 250 700 l 25
 200 700 l 25
100 700 m 25
 100 800 l 25
 150 800 l 25
 150 700 l 25
 100 700 l 25
0 700 m 25
 0 800 l 25
 50 800 l 25
 50 700 l 25
 0 700 l 25
EndSplineSet
Validated: 5
EndChar

StartChar: dkshade
Encoding: 9619 9619 413
Width: 600
Flags: HW
LayerCount: 2
Back
Fore
SplineSet
349 -100 m 29
 399 -100 l 29
 399 0 l 29
 349 0 l 29
 349 -100 l 29
349 100 m 29
 399 100 l 29
 399 200 l 29
 349 200 l 29
 349 100 l 29
349 300 m 29
 399 300 l 29
 399 400 l 29
 349 400 l 29
 349 300 l 29
349 500 m 29
 399 500 l 29
 399 600 l 29
 349 600 l 29
 349 500 l 29
349 700 m 29
 399 700 l 29
 399 800 l 29
 349 800 l 29
 349 700 l 29
500 -200 m 25
 550 -200 l 25
 550 -100 l 25
 500 -100 l 25
 500 -200 l 25
200 -200 m 25
 250 -200 l 25
 250 -100 l 25
 200 -100 l 25
 200 -200 l 25
50 -100 m 25
 100 -100 l 25
 100 0 l 25
 50 0 l 25
 50 -100 l 25
500 0 m 25
 550 0 l 25
 550 100 l 25
 500 100 l 25
 500 0 l 25
200 0 m 25
 250 0 l 25
 250 100 l 25
 200 100 l 25
 200 0 l 25
50 100 m 25
 100 100 l 25
 100 200 l 25
 50 200 l 25
 50 100 l 25
500 200 m 25
 550 200 l 25
 550 300 l 25
 500 300 l 25
 500 200 l 25
200 200 m 25
 250 200 l 25
 250 300 l 25
 200 300 l 25
 200 200 l 25
50 300 m 25
 100 300 l 25
 100 400 l 25
 50 400 l 25
 50 300 l 25
500 400 m 25
 550 400 l 25
 550 500 l 25
 500 500 l 25
 500 400 l 25
200 400 m 25
 250 400 l 25
 250 500 l 25
 200 500 l 25
 200 400 l 25
50 500 m 25
 100 500 l 25
 100 600 l 25
 50 600 l 25
 50 500 l 25
500 600 m 25
 550 600 l 25
 550 700 l 25
 500 700 l 25
 500 600 l 25
200 600 m 25
 250 600 l 25
 250 700 l 25
 200 700 l 25
 200 600 l 25
50 700 m 25
 100 700 l 25
 100 800 l 25
 50 800 l 25
 50 700 l 25
0 800 m 25
 600 800 l 25
 600 -200 l 25
 0 -200 l 25
 0 800 l 25
EndSplineSet
Validated: 5
EndChar

StartChar: SF110000
Encoding: 9474 9474 414
Width: 600
Flags: HW
LayerCount: 2
Back
Fore
SplineSet
250 800 m 29
 349 800 l 29
 350 -200 l 29
 250 -200 l 29
 250 800 l 29
EndSplineSet
Validated: 1
EndChar

StartChar: SF090000
Encoding: 9508 9508 415
Width: 600
Flags: HW
LayerCount: 2
Back
Fore
SplineSet
0 300 m 29
 0 400 l 25
 250 400 l 25
 250 800 l 25
 350 800 l 25
 350 -200 l 25
 250 -200 l 25
 250 300 l 25
 0 300 l 29
EndSplineSet
Validated: 1
EndChar

StartChar: SF190000
Encoding: 9569 9569 416
Width: 600
Flags: HW
LayerCount: 2
Back
Fore
SplineSet
0 500 m 29
 250 500 l 25
 250 800 l 25
 350 800 l 25
 350 -200 l 25
 250 -200 l 25
 250 100 l 25
 0 100 l 25
 0 200 l 25
 250 200 l 25
 250 400 l 25
 0 400 l 25
 0 500 l 29
EndSplineSet
Validated: 1
EndChar

StartChar: SF200000
Encoding: 9570 9570 417
Width: 600
Flags: HW
LayerCount: 2
Back
Fore
SplineSet
350 800 m 29
 450 800 l 25
 450 -200 l 25
 350 -200 l 25
 350 800 l 29
150 800 m 25
 250 800 l 25
 250 -200 l 25
 150 -200 l 25
 150 300 l 25
 0 300 l 25
 0 400 l 25
 150 400 l 25
 150 800 l 25
EndSplineSet
Validated: 1
EndChar

StartChar: SF210000
Encoding: 9558 9558 418
Width: 600
Flags: HW
LayerCount: 2
Back
Fore
SplineSet
0 300 m 25
 0 400 l 25
 450 400 l 25
 450 -200 l 25
 350 -200 l 25
 350 300 l 1
 250 300 l 29
 250 -200 l 1
 150 -200 l 25
 150 300 l 25
 0 300 l 25
EndSplineSet
Validated: 1
EndChar

StartChar: SF220000
Encoding: 9557 9557 419
Width: 600
Flags: HW
LayerCount: 2
Back
Fore
SplineSet
0 400 m 29
 0 500 l 25
 350 500 l 25
 350 -200 l 25
 250 -200 l 25
 250 200 l 25
 0 200 l 25
 0 300 l 25
 250 300 l 25
 250 400 l 25
 0 400 l 29
EndSplineSet
Validated: 1
EndChar

StartChar: SF240000
Encoding: 9553 9553 420
Width: 600
Flags: HW
LayerCount: 2
Back
Fore
SplineSet
350 800 m 29
 450 800 l 25
 450 -200 l 25
 350 -200 l 25
 350 800 l 29
150 800 m 25
 250 800 l 25
 250 -200 l 25
 150 -200 l 25
 150 800 l 25
EndSplineSet
Validated: 1
EndChar

StartChar: SF250000
Encoding: 9559 9559 421
Width: 600
Flags: HW
LayerCount: 2
Back
Fore
SplineSet
150 -200 m 29
 150 150 l 1
 0 150 l 25
 0 250 l 25
 250 250 l 25
 250 -200 l 1
 150 -200 l 29
0 350 m 25
 0 450 l 25
 449 450 l 25
 450 -200 l 25
 350 -200 l 25
 350 350 l 25
 0 350 l 25
EndSplineSet
Validated: 1
EndChar

StartChar: SF260000
Encoding: 9565 9565 422
Width: 600
Flags: HW
LayerCount: 2
Back
Fore
SplineSet
0 250 m 29
 350 250 l 25
 350 800 l 25
 450 800 l 25
 450 150 l 25
 0 150 l 25
 0 250 l 29
0 450 m 25
 150 450 l 25
 150 800 l 25
 250 800 l 25
 250 350 l 25
 0 350 l 25
 0 450 l 25
EndSplineSet
Validated: 1
EndChar

